<?xml version="1.0" encoding="utf-8"?>
<!-- Generator: Adobe Illustrator 16.0.0, SVG Export Plug-In . SVG Version: 6.00 Build 0)  -->
<!DOCTYPE svg PUBLIC "-//W3C//DTD SVG 1.1//EN" "http://www.w3.org/Graphics/SVG/1.1/DTD/svg11.dtd">
<svg version="1.1" xmlns="http://www.w3.org/2000/svg" xmlns:xlink="http://www.w3.org/1999/xlink" x="0px" y="0px"
	 width="283.46px" height="283.46px" viewBox="0 0 283.46 283.46" enable-background="new 0 0 283.46 283.46" xml:space="preserve">
<g id="Layer_3">
	<polygon fill="#FFFFFF" points="252.04,0 31.42,0 0,31.419 0,251.357 31.42,282.779 252.04,282.779 283.46,251.357 283.46,31.419 	
		"/>
</g>
<g id="Layer_2">
	<rect x="28.7" y="28" fill="#020202" width="46" height="44"/>
	<rect x="119.7" y="28" fill="#020202" width="44" height="44"/>
	<rect x="211.7" y="28" fill="#020202" width="44" height="44"/>
	<rect x="74.7" y="72" fill="#020202" width="45" height="46"/>
	<rect x="163.7" y="72" fill="#020202" width="48" height="46"/>
	<rect x="28.7" y="118" fill="#020202" width="46" height="45"/>
	<rect x="119.7" y="118" fill="#020202" width="44" height="45"/>
	<rect x="211.7" y="118" fill="#020202" width="44" height="45"/>
	<rect x="74.7" y="163" fill="#020202" width="45" height="46"/>
	<rect x="163.7" y="163" fill="#020202" width="48" height="46"/>
	<rect x="28.7" y="209" fill="#020202" width="46" height="46"/>
	<rect x="119.7" y="209" fill="#020202" width="44" height="46"/>
	<rect x="211.7" y="209" fill="#020202" width="44" height="46"/>
</g>
</svg>
