<?xml version="1.0" encoding="utf-8"?>
<!-- Generator: Adobe Illustrator 16.0.0, SVG Export Plug-In . SVG Version: 6.00 Build 0)  -->
<!DOCTYPE svg PUBLIC "-//W3C//DTD SVG 1.1//EN" "http://www.w3.org/Graphics/SVG/1.1/DTD/svg11.dtd">
<svg version="1.1" id="Layer_1" xmlns="http://www.w3.org/2000/svg" xmlns:xlink="http://www.w3.org/1999/xlink" x="0px" y="0px"
	 width="283.46px" height="283.46px" viewBox="0 0 283.46 283.46" enable-background="new 0 0 283.46 283.46" xml:space="preserve">
<g id="Layer_2">
	<path fill="#020202" d="M232.923,151.167c-3.523,0-6.881,0.691-9.973,1.912l-0.004-0.01c-1.476,0.58-3.078,0.91-4.759,0.91
		c-7.179,0-13-5.82-13-13c0-7.179,5.821-12.999,13-12.999c1.037,0,2.043,0.135,3.01,0.364l0.003-0.004
		c1.465,0.348,2.982,0.552,4.553,0.552c10.865,0,19.676-8.809,19.676-19.674c0-10.863-8.811-19.673-19.676-19.673
		c-10.002,0-18.242,7.476-19.489,17.138l-0.046-0.005c-1.488,11.557-11.344,20.495-23.307,20.495
		c-12.988,0-23.521-10.531-23.521-23.521c0-9.632,5.798-17.901,14.087-21.539l-0.002-0.003c9.559-4.194,16.24-13.728,16.24-24.834
		c0-14.978-12.143-27.121-27.125-27.121c-14.975,0-27.118,12.144-27.118,27.121c0,3.776,0.782,7.369,2.176,10.635
		c0.923,2.111,1.44,4.439,1.44,6.891c0,9.532-7.728,17.26-17.26,17.26c-9.533,0-17.261-7.728-17.261-17.26
		c0-1.642,0.245-3.223,0.674-4.727c0.439-1.572,0.695-3.222,0.695-4.936c0-10.042-8.143-18.183-18.185-18.183
		S69.57,55.1,69.57,65.141c0,10.042,8.142,18.184,18.184,18.184c0.323,0,1.635-0.047,1.979-0.047
		c10.718,0,19.406,8.688,19.406,19.407c0,10.718-8.688,19.406-19.406,19.406c-5.61,0-10.646-2.393-14.189-6.199l-0.029,0.028
		c-5.479-5.884-13.27-9.585-21.941-9.585c-16.569,0-30.004,13.436-30.004,30.006c0,16.573,13.435,30.006,30.004,30.006
		c12.047,0,22.405-7.114,27.18-17.354l0.032,0.014c4.577-9.822,14.512-16.646,26.063-16.646c15.892,0,28.773,12.884,28.773,28.772
		c0,15.892-12.882,28.773-28.773,28.773c-0.508,0-2.336-0.057-2.755-0.057c-13.143,0-23.799,10.656-23.799,23.798
		c0,13.146,10.656,23.8,23.799,23.8c13.144,0,23.799-10.656,23.799-23.8c0-2.772-0.5-5.425-1.373-7.899l0.019-0.008
		c-0.679-1.848-1.067-3.836-1.067-5.921c0-9.497,7.698-17.196,17.195-17.196c9.496,0,17.195,7.699,17.195,17.196
		c0,4.05-1.41,7.767-3.753,10.705c-3.089,4.417-4.937,9.765-4.937,15.562c0,15.053,12.201,27.252,27.248,27.252
		c15.053,0,27.252-12.2,27.252-27.252c0-11.953-7.705-22.084-18.416-25.758c-6.43-1.74-11.166-7.599-11.166-14.578
		c0-8.352,6.771-15.119,15.117-15.119c7.459,0,13.641,5.402,14.881,12.502l0.021-0.004c2.237,12.799,13.378,22.537,26.813,22.537
		c15.052,0,27.252-12.201,27.252-27.252C260.175,163.371,247.975,151.167,232.923,151.167z"/>
</g>
</svg>
