<?xml version="1.0" encoding="utf-8"?>
<!-- Generator: Adobe Illustrator 16.0.0, SVG Export Plug-In . SVG Version: 6.00 Build 0)  -->
<!DOCTYPE svg PUBLIC "-//W3C//DTD SVG 1.1//EN" "http://www.w3.org/Graphics/SVG/1.1/DTD/svg11.dtd">
<svg version="1.1" xmlns="http://www.w3.org/2000/svg" xmlns:xlink="http://www.w3.org/1999/xlink" x="0px" y="0px"
	 width="283.46px" height="283.46px" viewBox="0 0 283.46 283.46" enable-background="new 0 0 283.46 283.46" xml:space="preserve">
<g id="Layer_3">
	<polygon fill="#FFFFFF" points="252.04,0 31.42,0 0,31.419 0,251.357 31.42,282.779 252.04,282.779 283.46,251.357 283.46,31.419 	
		"/>
</g>
<g id="Layer_2">
	<path fill="#020202" d="M232.924,151.168c-3.524,0-6.881,0.691-9.974,1.911l-0.003-0.009c-1.476,0.58-3.078,0.91-4.759,0.91
		c-7.179,0-13-5.821-13-13c0-7.179,5.821-12.999,13-12.999c1.037,0,2.043,0.135,3.01,0.364l0.002-0.004
		c1.465,0.348,2.983,0.552,4.554,0.552c10.865,0,19.675-8.809,19.675-19.674c0-10.863-8.81-19.673-19.675-19.673
		c-10.002,0-18.243,7.476-19.49,17.138l-0.045-0.005c-1.489,11.557-11.345,20.495-23.307,20.495
		c-12.989,0-23.521-10.531-23.521-23.521c0-9.632,5.798-17.901,14.087-21.539l-0.002-0.003c9.559-4.194,16.24-13.728,16.24-24.834
		c0-14.978-12.143-27.121-27.124-27.121c-14.976,0-27.119,12.144-27.119,27.121c0,3.776,0.782,7.369,2.176,10.635
		c0.923,2.111,1.44,4.439,1.44,6.891c0,9.532-7.728,17.26-17.26,17.26c-9.533,0-17.261-7.728-17.261-17.26
		c0-1.642,0.245-3.223,0.674-4.727c0.439-1.572,0.695-3.222,0.695-4.936c0-10.042-8.143-18.183-18.185-18.183
		S69.57,55.1,69.57,65.141c0,10.042,8.142,18.184,18.184,18.184c0.323,0,1.635-0.047,1.979-0.047
		c10.718,0,19.406,8.688,19.406,19.407c0,10.718-8.688,19.406-19.406,19.406c-5.61,0-10.646-2.393-14.189-6.199l-0.029,0.028
		c-5.479-5.884-13.27-9.585-21.941-9.585c-16.569,0-30.004,13.436-30.004,30.006c0,16.572,13.435,30.006,30.004,30.006
		c12.047,0,22.405-7.114,27.18-17.353l0.032,0.014c4.577-9.823,14.512-16.646,26.063-16.646c15.892,0,28.773,12.883,28.773,28.773
		c0,15.891-12.882,28.772-28.773,28.772c-0.508,0-2.336-0.056-2.755-0.056c-13.143,0-23.799,10.657-23.799,23.798
		c0,13.145,10.656,23.8,23.799,23.8c13.144,0,23.799-10.656,23.799-23.8c0-2.773-0.5-5.425-1.373-7.899l0.019-0.008
		c-0.679-1.848-1.067-3.836-1.067-5.921c0-9.497,7.698-17.197,17.196-17.197c9.496,0,17.195,7.7,17.195,17.197
		c0,4.05-1.41,7.766-3.753,10.705c-3.089,4.417-4.936,9.765-4.936,15.562c0,15.052,12.201,27.252,27.248,27.252
		c15.052,0,27.252-12.201,27.252-27.252c0-11.953-7.706-22.085-18.416-25.758c-6.43-1.74-11.167-7.599-11.167-14.579
		c0-8.351,6.771-15.119,15.118-15.119c7.458,0,13.64,5.402,14.88,12.502l0.021-0.003c2.237,12.798,13.378,22.536,26.814,22.536
		c15.051,0,27.251-12.201,27.251-27.252C260.175,163.37,247.975,151.168,232.924,151.168z"/>
</g>
</svg>
