<?xml version="1.0" encoding="utf-8"?>
<!-- Generator: Adobe Illustrator 16.0.0, SVG Export Plug-In . SVG Version: 6.00 Build 0)  -->
<!DOCTYPE svg PUBLIC "-//W3C//DTD SVG 1.1//EN" "http://www.w3.org/Graphics/SVG/1.1/DTD/svg11.dtd">
<svg version="1.1" id="Layer_1" xmlns="http://www.w3.org/2000/svg" xmlns:xlink="http://www.w3.org/1999/xlink" x="0px" y="0px"
	 width="283.46px" height="283.46px" viewBox="0 0 283.46 283.46" enable-background="new 0 0 283.46 283.46" xml:space="preserve">
<g id="Layer_2">
	<polygon fill="#020202" points="50.28,86.54 141.786,27.16 233.253,86.54 	"/>
	<rect x="46.095" y="219.669" fill="#020202" width="192.309" height="11.584"/>
	<rect x="28.847" y="242.835" fill="#020202" width="226.804" height="11.582"/>
	<g>
		<rect x="70.906" y="102.572" fill="#020202" width="21.597" height="21.596"/>
		<rect x="111.332" y="102.572" fill="#020202" width="21.597" height="21.596"/>
		<rect x="151.757" y="102.572" fill="#020202" width="21.596" height="21.596"/>
		<rect x="192.181" y="102.572" fill="#020202" width="21.597" height="21.596"/>
	</g>
	<g>
		<rect x="70.906" y="141.435" fill="#020202" width="21.597" height="21.596"/>
		<rect x="111.332" y="141.435" fill="#020202" width="21.597" height="21.596"/>
		<rect x="151.757" y="141.435" fill="#020202" width="21.596" height="21.596"/>
		<rect x="192.181" y="141.435" fill="#020202" width="21.597" height="21.596"/>
	</g>
	<g>
		<rect x="70.906" y="180.298" fill="#020202" width="21.597" height="21.597"/>
		<rect x="111.332" y="180.298" fill="#020202" width="21.597" height="21.597"/>
		<rect x="151.757" y="180.298" fill="#020202" width="21.596" height="21.597"/>
		<rect x="192.181" y="180.298" fill="#020202" width="21.597" height="21.597"/>
	</g>
</g>
</svg>
