<?xml version="1.0" encoding="utf-8"?>
<!-- Generator: Adobe Illustrator 16.0.0, SVG Export Plug-In . SVG Version: 6.00 Build 0)  -->
<!DOCTYPE svg PUBLIC "-//W3C//DTD SVG 1.1//EN" "http://www.w3.org/Graphics/SVG/1.1/DTD/svg11.dtd">
<svg version="1.1" xmlns="http://www.w3.org/2000/svg" xmlns:xlink="http://www.w3.org/1999/xlink" x="0px" y="0px"
	 width="283.46px" height="283.46px" viewBox="0 0 283.46 283.46" enable-background="new 0 0 283.46 283.46" xml:space="preserve">
<g id="Layer_3">
	<polygon fill="#FFFFFF" points="252.04,0 31.42,0 0,31.419 0,251.357 31.42,282.779 252.04,282.779 283.46,251.357 283.46,31.419 	
		"/>
</g>
<g id="Layer_2">
	<polygon fill="#020202" points="190.783,119.57 214.582,56.366 175.389,93.351 167.909,46.79 155.443,83.535 127.518,22.225 
		136.161,100.062 97.596,59.44 122.117,115.278 48.227,77.395 99.099,123.862 33.266,109.404 87.003,138.687 17.558,152.042 
		95.195,155.073 22.794,213.379 110.022,169.118 89.367,213.379 122.117,189.796 112.182,261.253 142.405,176.259 149.957,232.08 
		161.912,183.163 200.824,239.56 176.347,176.141 224.012,199.914 177.909,158.584 265.902,161.766 185.321,141.74 253.186,121.372 
			"/>
</g>
</svg>
