<?xml version="1.0" encoding="utf-8"?>
<!-- Generator: Adobe Illustrator 16.0.0, SVG Export Plug-In . SVG Version: 6.00 Build 0)  -->
<!DOCTYPE svg PUBLIC "-//W3C//DTD SVG 1.1//EN" "http://www.w3.org/Graphics/SVG/1.1/DTD/svg11.dtd">
<svg version="1.1" xmlns="http://www.w3.org/2000/svg" xmlns:xlink="http://www.w3.org/1999/xlink" x="0px" y="0px"
	 width="283.46px" height="283.46px" viewBox="0 0 283.46 283.46" enable-background="new 0 0 283.46 283.46" xml:space="preserve">
<g id="Layer_3">
	<polygon fill="#FFFFFF" points="252.04,0 31.42,0 0,31.419 0,251.357 31.42,282.779 252.04,282.779 283.46,251.357 283.46,31.419 	
		"/>
</g>
<g id="Layer_2">
	<polygon fill="#020202" points="26.188,252.871 46.019,255.115 40.873,176.945 29.223,176.583 	"/>
	<polygon fill="#020202" points="62.164,255.115 56.151,177.671 80.297,179.914 84.811,253.674 	"/>
	<polygon fill="#020202" points="97.656,252.257 99.945,179.914 112.333,178.32 115.584,255.115 	"/>
	<polygon fill="#020202" points="126.528,255.115 129.021,178.32 144.841,179.914 144.841,255.115 	"/>
	<polygon fill="#020202" points="162.07,253.481 164.021,178.32 186.632,182.457 189.701,255.115 	"/>
	<polygon fill="#020202" points="202.163,252.871 204.113,179.914 222.1,178.32 217.996,251.036 	"/>
	<polygon fill="#020202" points="234.02,252.871 237.777,180.327 252.44,178.32 255.691,255.115 	"/>
	<polygon fill="#020202" points="40.873,176.945 48.512,104.921 61.296,103.139 56.151,177.671 	"/>
	<polygon fill="#020202" points="80.297,179.914 99.945,179.914 97.656,108.152 75.385,104.921 	"/>
	<polygon fill="#020202" points="112.333,178.32 117.282,110.091 132.309,110.091 129.021,178.32 	"/>
	<polygon fill="#020202" points="144.841,179.914 144.841,108.152 163.587,110.091 164.021,178.32 	"/>
	<polygon fill="#020202" points="186.632,182.457 183.308,108.152 202.163,104.921 204.113,179.914 	"/>
	<polygon fill="#020202" points="222.1,178.32 237.777,180.327 236.62,106.325 224.197,103.139 	"/>
	<polygon fill="#020202" points="29.223,103.139 48.512,104.921 43.743,25.491 29.223,27.23 	"/>
	<polygon fill="#020202" points="61.296,103.139 61.296,25.491 74.95,29.258 75.385,104.921 	"/>
	<polygon fill="#020202" points="97.656,108.152 93.154,31.578 109.625,33.024 117.282,110.091 	"/>
	<polygon fill="#020202" points="132.309,110.091 144.841,108.152 142.457,31.578 123.928,29.258 	"/>
	<polygon fill="#020202" points="163.587,110.091 163.587,34.761 179.19,31.578 183.308,108.152 	"/>
	<polygon fill="#020202" points="202.163,104.921 200.428,29.258 214.732,29.258 224.197,103.139 	"/>
	<polygon fill="#020202" points="236.62,106.325 232.72,31.578 246.805,31.578 253.914,108.152 	"/>
</g>
</svg>
