<?xml version="1.0" encoding="utf-8"?>
<!-- Generator: Adobe Illustrator 16.0.0, SVG Export Plug-In . SVG Version: 6.00 Build 0)  -->
<!DOCTYPE svg PUBLIC "-//W3C//DTD SVG 1.1//EN" "http://www.w3.org/Graphics/SVG/1.1/DTD/svg11.dtd">
<svg version="1.1" id="Layer_1" xmlns="http://www.w3.org/2000/svg" xmlns:xlink="http://www.w3.org/1999/xlink" x="0px" y="0px"
	 width="283.46px" height="283.46px" viewBox="0 0 283.46 283.46" enable-background="new 0 0 283.46 283.46" xml:space="preserve">
<g id="Layer_2">
	<g>
		<circle fill="#020202" cx="110.456" cy="106.88" r="29.485"/>
		<circle fill="#020202" cx="165.4" cy="133.044" r="26.465"/>
		<circle fill="#020202" cx="158.558" cy="82.729" r="18.013"/>
		<circle fill="#020202" cx="130.079" cy="66.326" r="9.862"/>
		<circle fill="#020202" cx="96.469" cy="52.994" r="20.729"/>
		<circle fill="#020202" cx="124.444" cy="37.899" r="5.635"/>
		<circle fill="#020202" cx="124.444" cy="50.226" r="2.818"/>
		<circle fill="#020202" cx="137.224" cy="47.508" r="5.938"/>
		<circle fill="#020202" cx="73.324" cy="80.164" r="9.862"/>
		<circle fill="#020202" cx="62.758" cy="58.73" r="7.548"/>
		<circle fill="#020202" cx="68.041" cy="37.347" r="5.283"/>
		<circle fill="#020202" cx="42.228" cy="62.807" r="8.552"/>
		<path fill="#020202" d="M74.179,112.916c0,11.116-9.011,20.128-20.126,20.128c-11.115,0-20.126-9.012-20.126-20.128
			c0-11.113,9.011-20.126,20.126-20.126C65.168,92.79,74.179,101.803,74.179,112.916z"/>
		<circle fill="#020202" cx="78.104" cy="160.565" r="25.61"/>
		<circle fill="#020202" cx="124.887" cy="156.088" r="14.088"/>
		<circle fill="#020202" cx="160.067" cy="203.385" r="37.434"/>
		<circle fill="#020202" cx="91.515" cy="223.891" r="28.052"/>
		<circle fill="#020202" cx="112.569" cy="182.755" r="7.648"/>
		<circle fill="#020202" cx="106.833" cy="143.71" r="1.912"/>
		<circle fill="#020202" cx="56.542" cy="195.837" r="9.056"/>
		<circle fill="#020202" cx="50.779" cy="217.523" r="6.77"/>
		<circle fill="#020202" cx="35.259" cy="175.538" r="13.712"/>
		<circle fill="#020202" cx="42" cy="145.747" r="8.78"/>
		<circle fill="#020202" cx="227.214" cy="81.548" r="27.499"/>
		<circle fill="#020202" cx="216.722" cy="162.428" r="26.063"/>
		<circle fill="#020202" cx="187.539" cy="98.83" r="8.755"/>
		<circle fill="#020202" cx="208.259" cy="121.048" r="9.569"/>
		<circle fill="#020202" cx="245.753" cy="134.402" r="8"/>
		<circle fill="#020202" cx="253.753" cy="153.624" r="4.579"/>
		<circle fill="#020202" cx="188.445" cy="76.943" r="5.434"/>
		<circle fill="#020202" cx="178.984" cy="54.05" r="10.465"/>
		<circle fill="#020202" cx="201.023" cy="52.994" r="4.931"/>
		<circle fill="#020202" cx="155.287" cy="52.287" r="6.088"/>
		<circle fill="#020202" cx="147.69" cy="36.591" r="4.528"/>
		<circle fill="#020202" cx="214.059" cy="47.408" r="3.774"/>
		<circle fill="#020202" cx="212.949" cy="203.132" r="8.201"/>
		<circle fill="#020202" cx="210.285" cy="229.489" r="11.771"/>
		<path fill="#020202" d="M243.341,217.523c0,5.752-4.666,10.415-10.42,10.415c-5.75,0-10.416-4.663-10.416-10.415
			s4.666-10.415,10.416-10.415C238.675,207.108,243.341,211.771,243.341,217.523z"/>
		<path fill="#020202" d="M243.341,195.232c0,3.434-2.782,6.217-6.217,6.217c-3.433,0-6.213-2.783-6.213-6.217
			c0-3.43,2.781-6.214,6.213-6.214C240.559,189.019,243.341,191.802,243.341,195.232z"/>
	</g>
</g>
</svg>
