<?xml version="1.0" encoding="utf-8"?>
<!-- Generator: Adobe Illustrator 16.0.0, SVG Export Plug-In . SVG Version: 6.00 Build 0)  -->
<!DOCTYPE svg PUBLIC "-//W3C//DTD SVG 1.1//EN" "http://www.w3.org/Graphics/SVG/1.1/DTD/svg11.dtd">
<svg version="1.1" id="Layer_1" xmlns="http://www.w3.org/2000/svg" xmlns:xlink="http://www.w3.org/1999/xlink" x="0px" y="0px"
	 width="283.46px" height="283.46px" viewBox="0 0 283.46 283.46" enable-background="new 0 0 283.46 283.46" xml:space="preserve">
<g id="Layer_2">
	<g>
		<g>
			<polygon fill="#020202" points="28.548,149.003 42.23,149.003 28.548,142.184 			"/>
			<polygon fill="#020202" points="28.548,122.083 69.242,122.083 28.548,101.785 			"/>
		</g>
		<g>
			<polygon fill="#020202" points="122.383,27.409 28.548,27.409 28.548,35.465 63.25,52.774 28.548,52.774 28.548,75.866 
				36.223,79.692 28.548,79.692 28.548,95.166 96.267,95.166 42.272,68.247 123.296,68.247 69.328,41.328 150.308,41.328 			"/>
		</g>
		<polygon fill="#020202" points="181.013,68.246 255.117,68.246 255.117,64.796 208.068,41.328 255.117,41.328 255.117,27.409 
			151.146,27.409 201.988,52.771 120.966,52.771 174.978,79.689 93.998,79.689 147.964,106.609 66.943,106.609 120.938,133.527 
			39.947,133.527 93.913,160.445 28.548,160.445 28.548,168.25 66.9,187.365 28.548,187.365 28.548,208.625 39.891,214.28 
			28.548,214.28 28.548,229.755 99.936,229.755 45.969,202.837 126.947,202.837 72.936,175.917 153.958,175.917 99.992,149.001 
			180.984,149.001 126.99,122.083 208.009,122.083 154.044,95.163 235.021,95.163 		"/>
		<g>
			<polygon fill="#020202" points="255.117,79.687 232.738,79.687 255.117,90.848 			"/>
			<polygon fill="#020202" points="255.117,106.604 205.683,106.604 255.117,131.246 			"/>
		</g>
		<polygon fill="#020202" points="255.117,214.279 236.376,214.279 255.117,223.621 		"/>
		<g>
			<polygon fill="#020202" points="28.548,234.56 28.548,255.115 69.778,255.115 			"/>
		</g>
		<polygon fill="#020202" points="255.117,133.527 178.716,133.527 232.683,160.443 151.66,160.443 205.655,187.362 
			124.661,187.362 178.628,214.28 97.607,214.28 151.617,241.197 70.637,241.197 98.539,255.115 208.539,255.115 157.653,229.753 
			238.675,229.753 184.708,202.835 255.117,202.835 255.117,197.562 211.705,175.917 255.117,175.917 255.117,157.158 
			238.761,148.998 255.117,148.998 		"/>
		<g>
			<path fill="#020202" d="M255.117,255.115"/>
			<polygon fill="#020202" points="209.378,241.196 237.283,255.115 255.117,255.115 255.117,241.196 			"/>
		</g>
	</g>
</g>
</svg>
