<?xml version="1.0" encoding="utf-8"?>
<!-- Generator: Adobe Illustrator 16.0.0, SVG Export Plug-In . SVG Version: 6.00 Build 0)  -->
<!DOCTYPE svg PUBLIC "-//W3C//DTD SVG 1.1//EN" "http://www.w3.org/Graphics/SVG/1.1/DTD/svg11.dtd">
<svg version="1.1" xmlns="http://www.w3.org/2000/svg" xmlns:xlink="http://www.w3.org/1999/xlink" x="0px" y="0px"
	 width="283.46px" height="283.46px" viewBox="0 0 283.46 283.46" enable-background="new 0 0 283.46 283.46" xml:space="preserve">
<g id="Layer_3">
	<polygon fill="#FFFFFF" points="252.04,0 31.42,0 0,31.419 0,251.357 31.42,282.779 252.04,282.779 283.46,251.357 283.46,31.419 	
		"/>
</g>
<g id="Layer_2">
	<path fill="#020202" d="M111.992,218.629c0-9.206-1.987-15.565-6.42-22.195c-4.432-6.629-15.114-14.779-15.114-22.248
		c0-7.47,4.981-12.822,11.58-12.822c6.594,0,15.305,3.423,23.104,13.162c7.25,9.055,13.247,26.156,16.086,38.606
		c2.878,12.621,11.496,25.12,26.282,25.897c11.46,0.601,20.204-4.339,25.229-16.392c4.306-10.322,12.741-23.681,32.908-23.681
		c20.165,0,33.238-17.429,33.238-32.489c0-23.174-15.314-24.174-18.658-41.306c-2.958-15.169,7.587-18.757,7.587-38.974
		c0-25.879-23.293-39.253-39.346-39.253c-16.052,0-21.334,3.799-31.746,14.562c-4.182,4.321-11.975,10.238-21.247,10.238
		c-10.117,0-19.089-12.236-25.8-20.07c-13.195-15.405-22.904-25.029-51.536-25.029c-27.887,0-54.569,27.55-54.569,58.257
		c0,37.133,28.549,45.1,28.549,73.858c0,27.258-19.791,32.361-19.791,58.63c0,17.428,14.44,40.571,39.083,40.571
		C96.055,257.952,111.992,239.04,111.992,218.629z M72.362,119.129c-3.637-1.673-8.108-5.098-9.925-11.123
		c-1.2-3.98,0.546-11.232,3.491-14.723c4.826-5.722,9.268-8.778,15.484-11.233c12.071-4.765,23.062-5.146,27.992-0.185
		c5.135,5.164,3.182,19.129-6.947,29.194C92.331,121.128,78.979,122.171,72.362,119.129z M150.583,149.812
		c-6.065-22.32-1.643-42.535,9.627-46.012c16.088-4.964,25.726,12.072,31.79,34.391c6.066,22.319,6.505,43.824-9.826,46.428
		C170.525,186.479,156.646,172.129,150.583,149.812z"/>
</g>
</svg>
