<?xml version="1.0" encoding="utf-8"?>
<!-- Generator: Adobe Illustrator 16.0.0, SVG Export Plug-In . SVG Version: 6.00 Build 0)  -->
<!DOCTYPE svg PUBLIC "-//W3C//DTD SVG 1.1//EN" "http://www.w3.org/Graphics/SVG/1.1/DTD/svg11.dtd">
<svg version="1.1" xmlns="http://www.w3.org/2000/svg" xmlns:xlink="http://www.w3.org/1999/xlink" x="0px" y="0px"
	 width="283.46px" height="283.46px" viewBox="0 0 283.46 283.46" enable-background="new 0 0 283.46 283.46" xml:space="preserve">
<g id="Layer_3">
	<polygon fill="#FFFFFF" points="252.04,0 31.42,0 0,31.419 0,251.357 31.42,282.779 252.04,282.779 283.46,251.357 283.46,31.419 	
		"/>
</g>
<g id="Layer_2">
	<g>
		<g>
			<polygon fill="#020202" points="28.548,149.004 42.23,149.004 28.548,142.184 			"/>
			<polygon fill="#020202" points="28.548,122.083 69.242,122.083 28.548,101.785 			"/>
		</g>
		<g>
			<polygon fill="#020202" points="122.383,27.409 28.548,27.409 28.548,35.465 63.25,52.774 28.548,52.774 28.548,75.866 
				36.223,79.692 28.548,79.692 28.548,95.166 96.267,95.166 42.272,68.247 123.296,68.247 69.328,41.328 150.308,41.328 			"/>
		</g>
		<polygon fill="#020202" points="181.013,68.246 255.116,68.246 255.116,64.796 208.068,41.328 255.116,41.328 255.116,27.409 
			151.146,27.409 201.988,52.771 120.966,52.771 174.978,79.689 93.998,79.689 147.965,106.609 66.943,106.609 120.938,133.527 
			39.947,133.527 93.913,160.445 28.548,160.445 28.548,168.25 66.9,187.365 28.548,187.365 28.548,208.624 39.891,214.28 
			28.548,214.28 28.548,229.756 99.936,229.756 45.969,202.838 126.947,202.838 72.936,175.918 153.958,175.918 99.992,149.001 
			180.984,149.001 126.99,122.083 208.01,122.083 154.044,95.163 235.021,95.163 		"/>
		<g>
			<polygon fill="#020202" points="255.116,79.687 232.738,79.687 255.116,90.848 			"/>
			<polygon fill="#020202" points="255.116,106.604 205.683,106.604 255.116,131.246 			"/>
		</g>
		<polygon fill="#020202" points="255.116,214.279 236.376,214.279 255.116,223.621 		"/>
		<g>
			<polygon fill="#020202" points="28.548,234.56 28.548,255.115 69.778,255.115 			"/>
		</g>
		<polygon fill="#020202" points="255.116,133.527 178.716,133.527 232.683,160.443 151.66,160.443 205.655,187.362 
			124.661,187.362 178.628,214.28 97.607,214.28 151.617,241.197 70.637,241.197 98.539,255.115 208.539,255.115 157.653,229.753 
			238.675,229.753 184.708,202.836 255.116,202.836 255.116,197.562 211.705,175.918 255.116,175.918 255.116,157.158 
			238.761,148.998 255.116,148.998 		"/>
		<g>
			<path fill="#020202" d="M255.116,255.115"/>
			<polygon fill="#020202" points="209.378,241.196 237.282,255.115 255.116,255.115 255.116,241.196 			"/>
		</g>
	</g>
</g>
</svg>
