<?xml version="1.0" encoding="utf-8"?>
<!-- Generator: Adobe Illustrator 16.0.0, SVG Export Plug-In . SVG Version: 6.00 Build 0)  -->
<!DOCTYPE svg PUBLIC "-//W3C//DTD SVG 1.1//EN" "http://www.w3.org/Graphics/SVG/1.1/DTD/svg11.dtd">
<svg version="1.1" id="Layer_1" xmlns="http://www.w3.org/2000/svg" xmlns:xlink="http://www.w3.org/1999/xlink" x="0px" y="0px"
	 width="283.46px" height="283.46px" viewBox="0 0 283.46 283.46" enable-background="new 0 0 283.46 283.46" xml:space="preserve">
<g id="Layer_2">
	<g>
		<g>
			<polygon fill="#020202" points="210.041,208.789 268.332,107.782 210.017,74.127 			"/>
			<polygon fill="#020202" points="74.026,209.634 74,74.1 209.925,74.075 107.783,15.128 15.128,175.679 175.679,268.332 
				209.566,209.609 			"/>
		</g>
		<path fill="#020202" d="M160.328,73.961l-86.265,49.826l49.649,85.958l86.264-49.824L160.328,73.961z M92.601,154.904
			l35.955-62.303l62.305,35.955l-35.956,62.302L92.601,154.904z"/>
		<path fill="#020202" d="M168.093,115.46l-52.155,0.01l0.011,52.779l52.156-0.01L168.093,115.46z M116.015,134.764l32.857-18.978
			l19.152,33.157l-32.858,18.979L116.015,134.764z"/>
		<g>
			<polygon fill="#020202" points="152.364,150.977 160.626,136.664 152.362,131.896 			"/>
			<polygon fill="#020202" points="132.043,152.109 146.796,160.625 151.712,152.107 			"/>
			<polygon fill="#020202" points="131.657,131.589 151.83,131.588 136.664,122.834 122.834,146.796 131.658,151.889 			"/>
		</g>
	</g>
</g>
</svg>
