<?xml version="1.0" encoding="utf-8"?>
<!-- Generator: Adobe Illustrator 16.0.0, SVG Export Plug-In . SVG Version: 6.00 Build 0)  -->
<!DOCTYPE svg PUBLIC "-//W3C//DTD SVG 1.1//EN" "http://www.w3.org/Graphics/SVG/1.1/DTD/svg11.dtd">
<svg version="1.1" id="Layer_1" xmlns="http://www.w3.org/2000/svg" xmlns:xlink="http://www.w3.org/1999/xlink" x="0px" y="0px"
	 width="283.46px" height="283.46px" viewBox="0 0 283.46 283.46" enable-background="new 0 0 283.46 283.46" xml:space="preserve">
<g id="Layer_2">
	<path fill="#020202" d="M183.852,210.91c0,0-0.927,1.129-2.649,2.002c-1.721,0.875-3.507,1.123-3.507,1.123
		c0.036-0.56,3.708-56.398,4.927-86.374c1.215-29.908,0.012-58.145,0-58.426l4.924-0.213c0.015,0.283,1.225,28.728,0.002,58.839
		C186.328,157.897,183.889,210.349,183.852,210.91z"/>
	<path fill="#020202" d="M200.88,199.085l-3.104,2.162c0.031-0.373,3.646-39.185,3.646-61.472V81.808h2.466v57.969
		C203.889,162.166,200.912,198.708,200.88,199.085z"/>
	<path fill="#020202" d="M223.462,200.583l-3.857,1.998c1.619-18.623,3.466-121.072,3.484-122.104l3.697,0.067
		C226.769,81.577,225.093,181.839,223.462,200.583z"/>
	<path fill="#020202" d="M230.689,191.654l-3.389,2.139c0.017-0.299,1.447-29.941,2.057-43.445
		c0.607-13.488,1.021-60.609,1.025-61.081l1.85,0.016c-0.006,0.475-0.419,47.626-1.029,61.148
		C230.593,163.937,230.705,191.354,230.689,191.654z"/>
	<path fill="#020202" d="M247.38,191.694l-2.205,1.591c0.043-0.766,4.507-76.688,3.695-103.456l1.848-0.056
		C251.533,116.621,247.425,190.93,247.38,191.694z"/>
	<path fill="#020202" d="M252.13,196.197l-3.769,2.172c3.745-37.685,2.575-112.877,2.563-113.632l3.082-0.049
		C254.018,85.445,255.895,158.335,252.13,196.197z"/>
	<path fill="#020202" d="M217.337,219.886c0,0-4.022,3.16-7.784,5.031c-3.763,1.871-10.288,3.955-10.288,3.955
		c0.021-0.58,2.171-58.758,3.39-88.624c1.208-29.596,0.009-85.141-0.005-85.698l16.637-0.366c0.049,2.298,1.223,56.631-0.004,86.743
		C218.064,170.765,217.358,219.306,217.337,219.886z"/>
	<path fill="#020202" d="M176.438,215.64l-5.63,3.424c0.01-0.386,1.011-38.746,0.002-58.54c-0.839-16.456-1.396-60.789-1.696-84.604
		c-0.067-5.265-0.116-9.407-0.155-11.841l5.547-0.086c0.037,2.438,0.088,6.585,0.154,11.857c0.301,23.779,0.856,68.041,1.689,84.392
		C177.373,180.25,176.449,215.253,176.438,215.64z"/>
	<path fill="#020202" d="M160.125,211.068l-4.004,2.15c0.043-1.36,0.162-4.26,0.321-8.203c0.576-14.088,1.774-43.401,1.937-61.805
		c0.205-23.418,0.617-73.375,0.617-73.375l3.696,0.03c0,0-0.409,49.956-0.618,73.374c-0.16,18.463-1.361,47.818-1.937,61.924
		C159.978,209.098,160.167,209.716,160.125,211.068z"/>
	<path fill="#020202" d="M151.817,208.423l-3.3,1.339c0.006-0.323,1.248-32.992,2.469-58.093
		c1.217-25.062,2.246-77.842,2.256-78.374l2.467,0.047c-0.01,0.532-1.043,53.348-2.262,78.444
		C152.23,176.843,151.822,208.102,151.817,208.423z"/>
	<path fill="#020202" d="M137.87,230.819c0,0-3.077,2.47-6.213,4.062c-3.136,1.592-7.792,3.049-7.792,3.049
		c0.052-0.783,5.353-78.555,6.771-109.554c1.417-30.978,2.246-82.728,2.252-83.248l12.941,0.206
		c-0.009,0.521-0.841,52.466-2.266,83.634C142.141,160.107,137.924,230.037,137.87,230.819z"/>
	<path fill="#020202" d="M99.23,259.065c-2.497-5.823-2.498-18.269-2.06-27.685c0.233-5.012,0.682-13.392,1.248-24.002
		c1.435-26.805,3.601-67.314,4.704-98.666c1.517-43.095,1.837-84.309,1.841-84.721l25.883,0.191
		c-0.002,0.416-0.325,41.975-1.856,85.439c-1.11,31.587-3.286,72.239-4.724,99.137c-0.563,10.56-1.01,18.9-1.239,23.826
		c-0.611,13.109,1.769,15.402,1.812,15.574c0-0.002-4.22,3.397-12.223,6.627C105.477,257.662,99.23,259.065,99.23,259.065z"/>
	<path fill="#020202" d="M93.1,239.757c0,0-2.665,2.267-5.917,3.765c-4.145,1.91-6.339,2.153-6.339,2.153
		c0.922-9.84,4.231-96.43,5.097-123.241c0.914-28.287,2.45-84.487,2.464-85.054l10.473,0.285
		c-0.015,0.565-1.552,56.793-2.465,85.106C95.506,150.789,94.057,229.553,93.1,239.757z"/>
	<path fill="#020202" d="M77.453,226.91l-5.618,3.307c0.092-1.432,9.249-143.621,9.856-177.375l4.929,0.088
		C86.01,86.8,77.547,225.475,77.453,226.91z"/>
	<path fill="#020202" d="M84.541,222.798l-5.612,2.602c2.124-20.922,5.196-166.275,5.227-167.742l4.93,0.105
		C88.961,63.753,86.684,201.68,84.541,222.798z"/>
	<path fill="#020202" d="M48.412,241.445c0,0-0.917,0.779-2.543,1.516c-1.626,0.732-3.001,0.986-3.001,0.986
		c0.022-0.459,2.154-46.475,2.154-90.992c0-44.556-1.068-113.08-1.079-113.77l4.929-0.077c0.012,0.688,1.081,69.254,1.081,113.847
		C49.953,197.589,48.433,240.983,48.412,241.445z"/>
	<path fill="#020202" d="M42.363,243.46c0,0-1.104,0.951-3.505,2.158c-2.4,1.209-4.159,1.696-4.159,1.696
		c1.52-40.131,0.786-209.807,0.77-211.512l6.781-0.062C42.262,37.448,43.888,203.173,42.363,243.46z"/>
	<path fill="#020202" d="M51.185,225.553c-0.006-0.456-0.592-46.063,1.544-79.339c2.132-33.187,4.596-88.157,4.62-88.708
		l3.695,0.164c-0.025,0.552-2.492,55.562-4.626,88.783c-2.126,33.131-1.08,76.459-1.073,76.918L51.185,225.553z"/>
	<path fill="#020202" d="M68.441,213.414l-4.622,3.053c0.019-0.584,3.397-119.132,4.005-149.873l2.466,0.049
		C69.68,97.397,68.46,212.83,68.441,213.414z"/>
	<path fill="#020202" d="M73.073,211.979l-2.781,1.647c0.043-0.975,4.293-97.858,2.771-144.114l2.465-0.083
		C77.051,115.781,73.118,211.005,73.073,211.979z"/>
</g>
</svg>
