<?xml version="1.0" encoding="utf-8"?>
<!-- Generator: Adobe Illustrator 16.0.0, SVG Export Plug-In . SVG Version: 6.00 Build 0)  -->
<!DOCTYPE svg PUBLIC "-//W3C//DTD SVG 1.1//EN" "http://www.w3.org/Graphics/SVG/1.1/DTD/svg11.dtd">
<svg version="1.1" xmlns="http://www.w3.org/2000/svg" xmlns:xlink="http://www.w3.org/1999/xlink" x="0px" y="0px"
	 width="283.46px" height="283.46px" viewBox="0 0 283.46 283.46" enable-background="new 0 0 283.46 283.46" xml:space="preserve">
<g id="Layer_3">
	<polygon fill="#FFFFFF" points="252.04,0 31.42,0 0,31.419 0,251.357 31.42,282.779 252.04,282.779 283.46,251.357 283.46,31.419 	
		"/>
</g>
<g id="Layer_2">
	<g>
		<path fill="#020202" d="M216.965,88.646l0.002,0.001c-13.114-23.238-32.666-32.739-43.63-37.548
			c-10.965-4.81-26.545-7.311-30.969-7.887c-4.424-0.576-11.157-3.271-18.467-3.464c-7.307-0.189-33.084-1.73-44.818-3.653
			c-8.805-1.441-34.867-6.135-47.328-8.388c-1.197,2.873-2.583,6.658-3.467,10.543c10.74,1.993,44.589,8.314,55.221,10.733
			c12.695,2.888,30.968,5.002,40.01,5.771c9.038,0.769,30.777,3.077,41.163,4.422c10.388,1.348,22.123,3.657,22.123,3.657
			c7.393,3.495,12.992,11.205,15.7,15.538c-15.998-9.198-50.939-11.502-75.332-13.038c-24.427-1.539-45.588-5.194-60.398-6.541
			c-11.293-1.027-29.656-2.836-37.749-3.636c0,0-0.871,1.313-0.774,4.677c0.086,2.991,0.556,7.681,1.873,12.521
			c11.89,1.518,41.954,5.15,64.157,6.057c28.276,1.154,63.285,0.771,87.138,4.039c23.851,3.271,38.083,9.62,38.083,9.62
			S219.254,90.944,216.965,88.646z"/>
		<path fill="#020202" d="M217.962,100.151c-14.233-3.462-68.095-2.5-91.945-2.5c-23.852,0-51.868-2.938-76.75-9.812
			c-8.417-2.325-13.032-5.403-17.338-9.122c0.167,2.267,0.264,7.264,0.842,9.931c0.204,0.943,0.395,2.1,0.562,3.376
			c14.241,5.16,32.944,11.954,45.119,16.398c14.759,5.386,58.336,5.386,79.112,3.848c20.775-1.54,49.819-3.653,62.899,0.191
			c13.081,3.847,20.774,13.273,20.774,13.273C238.353,111.691,232.196,103.614,217.962,100.151z"/>
		<path fill="#020202" d="M236.621,136.12c-5.962-4.617-29.043-17.312-48.47-17.312c-19.431,0-51.171,7.31-61.556,9.619
			c-10.387,2.31-24.62,0.768-38.085-3.079c-9.979-2.852-40.044-13.404-54.955-18.683c-0.187,1.054-0.441,1.923-0.784,2.508
			c-1.923,3.271-1.842,7.004-0.248,11.197c0.003,0.006,0.005,0.012,0.009,0.02c14.332,3.717,28.182,9.451,41.936,15.346
			c16.157,6.926,26.737,9.619,40.393,9.619c13.657,0,25.583-4.811,35.969-7.886c10.388-3.073,22.121-6.926,32.896-6.926
			c10.771,0,23.851,6.154,30.198,10.387c6.347,4.233,16.734,9.235,21.734,12.312c5.001,3.077,8.467,7.306,8.467,7.306
			C244.125,151.702,242.583,140.736,236.621,136.12z"/>
		<path fill="#020202" d="M245.278,173.246c-4.041-9.233-12.696-14.429-21.159-16.927c-8.465-2.502-30.391-8.465-39.432-8.465
			c-9.04,0-24.238,2.888-32.701,5.963c-8.463,3.078-23.66,8.08-39.817,8.08c-16.159,0-43.666-12.697-58.863-17.12
			c-7.596-2.211-14.68-3.511-19.864-4.259c-0.32,3.861-0.265,7.924,0.745,10.973c1.115,3.357,2.709,5.855,3.667,8.79
			c0.645,0.094,1.303,0.183,1.988,0.267c9.233,1.155,24.046,6.35,33.856,9.043c9.81,2.693,32.505,7.885,42.125,7.885
			c9.617,0,19.812-3.27,32.506-7.116c12.696-3.846,23.469-5.771,36.548-5.771c13.081,0,50.012,9.617,55.397,12.887
			c5.387,3.273,9.235,9.428,9.235,9.428S249.316,182.478,245.278,173.246z"/>
		<path fill="#020202" d="M238.544,192.48c-7.502-2.114-28.66-10.579-49.626-10.579c-20.967,0-57.516,11.734-74.058,11.734
			c-16.541,0-52.512-8.463-68.479-11.734c-5.304-1.089-9.425-1.934-12.595-2.589c-2.244,2.513-3.233,5.888-2.169,8.916
			c1.148,3.29,3.797,7.999,7.325,10.909c20.899,5.359,53.224,10.463,68.033,10.463c18.849,0,42.701-5.193,53.28-7.119
			c10.579-1.922,26.739-3.652,38.279-1.73c11.541,1.925,39.047,8.85,45.396,11.733c6.347,2.888,8.656,7.888,8.656,7.888
			s0.897-6.73,0.897-12.695C253.484,201.713,246.048,194.597,238.544,192.48z"/>
		<path fill="#020202" d="M234.764,226.849c-6.669-3.076-19.75-7.693-41.036-7.693c-21.288,0-60.528,7.181-111.31,7.181
			c-16.346,0-31.167-2.754-41.665-5.408l0,0c1.442,3.271,2.831,17.229,10.501,20.83c6.633,1.031,14.314,1.761,22.825,1.761
			c56.169,0,81.689-3.846,102.207-4.359c20.519-0.512,34.366-1.795,41.805-3.333c7.437-1.539,13.081-1.283,15.643,1.024
			c2.567,2.309,7.887,11.798,9.235,15.357c1.346,3.558,3.176,4.519,4.712,4.519c1.54,0,5.803-3.717,5.803-12.438
			C253.484,235.057,241.429,229.927,234.764,226.849z"/>
	</g>
</g>
</svg>
