<?xml version="1.0" encoding="utf-8"?>
<!-- Generator: Adobe Illustrator 16.0.0, SVG Export Plug-In . SVG Version: 6.00 Build 0)  -->
<!DOCTYPE svg PUBLIC "-//W3C//DTD SVG 1.1//EN" "http://www.w3.org/Graphics/SVG/1.1/DTD/svg11.dtd">
<svg version="1.1" xmlns="http://www.w3.org/2000/svg" xmlns:xlink="http://www.w3.org/1999/xlink" x="0px" y="0px"
	 width="283.46px" height="283.46px" viewBox="0 0 283.46 283.46" enable-background="new 0 0 283.46 283.46" xml:space="preserve">
<g id="Layer_3">
	<polygon fill="#FFFFFF" points="252.04,0 31.42,0 0,31.419 0,251.357 31.42,282.779 252.04,282.779 283.46,251.357 283.46,31.419 	
		"/>
</g>
<g id="Layer_2">
	<g>
		<path fill="#020202" d="M187.421,106.356c-6.187-7.951-19.336-21.289-37.883-21.289c-14.016,0-27.949,4.176-38.228,11.457
			c-14.919,10.57-24.188,27.772-24.188,44.893c0,29.383,27.463,58.22,55.446,58.22c14.541,0,29.703-6.859,41.599-18.82
			c11.216-11.277,17.912-25.403,17.912-37.787C202.08,132.366,196.189,117.628,187.421,106.356z M145.86,185.089
			c-25.973,0-41.479-15.675-41.479-41.93c0-15.601,5.311-28.383,14.569-35.068c8.844-6.385,22.467-7.123,31.944-7.123
			c11.815,0,20.994,9.473,25.416,15.12c6.803,8.683,11.03,19.056,11.03,27.071C187.339,167.868,165.479,185.089,145.86,185.089z"/>
		<path fill="#020202" d="M150.248,107.91c-6.269,0-19.165,2.167-27.08,7.986c-7.21,5.299-10.425,13.448-10.425,26.423
			c0,23.439,17.229,36.088,33.441,36.088c16.313,0,33.567-18.55,33.567-36.088C179.751,121.314,162.277,107.91,150.248,107.91z
			 M144.053,165.342c-12.23,0-19.539-10.983-19.539-21.603c0-6.791,0.75-14.283,6.316-18.358c4.399-3.223,12.727-4.665,19.029-4.665
			c11.812,0,17.992,11.582,17.992,23.023C167.852,155.455,153.233,165.342,144.053,165.342z"/>
		<path fill="#020202" d="M148.829,126.624c-12.25,0-17.76,8.65-17.76,14.793c0,6.142,4.308,14.79,13.886,14.79
			c9.098,0,15.438-7.796,15.438-14.791C160.393,134.145,156.067,126.624,148.829,126.624z M145.455,137.676
			c0.983,0,2.843,0.636,2.843,3.041c0,1.716-0.908,4.439-3.343,4.439c-2.906,0-3.34-2.781-3.34-4.439
			C141.615,138.223,144.387,137.676,145.455,137.676z"/>
		<path fill="#020202" d="M223.778,57.535c-14.462-12.007-53.417-30.159-79.176-30.159c-17.392,0-48.988,15.988-58.258,20.889
			C68.579,57.655,46.235,71.648,41.73,80.176c-7.341,13.901-15.202,43.745-15.202,66.017c0,24.152,20.057,80.407,56.826,97.357
			c22.106,10.188,42.363,15.143,61.927,15.144c0.002,0,0.003,0,0.005,0c16.97,0,33.691-3.886,49.697-11.55
			c37.631-18.021,61.947-57.646,61.947-100.951C256.931,92.008,239.213,70.351,223.778,57.535z M238.834,147.868
			c0,26.05-11.736,50.368-33.046,68.476c-18.066,15.351-41.696,24.888-61.67,24.888c-36.843,0-83.883-39.787-90.825-55.404
			c-6.328-14.241-12.104-55.814-2.555-81.012c9.227-24.349,53.021-58.311,103.382-58.311
			C205.046,46.505,238.834,107.515,238.834,147.868z"/>
		<path fill="#020202" d="M150.894,56.803c-42.987,0-91.066,35.799-91.066,83.711c0,40.894,29.747,84.677,74.03,84.677
			c24.35,0,46.917-6.242,63.545-17.577c20.539-14,31.395-35.396,31.395-61.873c0-19.272-8.694-41.356-23.258-59.074
			C189.94,67.688,170.022,56.803,150.894,56.803z M137.729,209.354c-15.331,0-30.866-6.946-42.622-19.058
			c-12.664-13.047-19.637-30.728-19.637-49.783c0-20.006,10.344-38.687,28.379-51.253c15.947-11.113,34.757-15.072,47.043-15.072
			c13.331,0,28.509,8.89,41.644,24.39c12.478,14.724,20.229,32.499,20.229,46.388C212.766,186.426,168.398,209.354,137.729,209.354z
			"/>
	</g>
</g>
</svg>
