<?xml version="1.0" encoding="utf-8"?>
<!-- Generator: Adobe Illustrator 16.0.0, SVG Export Plug-In . SVG Version: 6.00 Build 0)  -->
<!DOCTYPE svg PUBLIC "-//W3C//DTD SVG 1.1//EN" "http://www.w3.org/Graphics/SVG/1.1/DTD/svg11.dtd">
<svg version="1.1" xmlns="http://www.w3.org/2000/svg" xmlns:xlink="http://www.w3.org/1999/xlink" x="0px" y="0px"
	 width="283.46px" height="283.46px" viewBox="0 0 283.46 283.46" enable-background="new 0 0 283.46 283.46" xml:space="preserve">
<g id="Layer_3">
	<polygon fill="#FFFFFF" points="252.04,0 31.42,0 0,31.419 0,251.357 31.42,282.779 252.04,282.779 283.46,251.357 283.46,31.419 	
		"/>
</g>
<g id="Layer_2">
	<path fill="#020202" d="M235.765,108.145c-11.413-3.522-23.79-0.75-29.445-0.75c-5.653,0-9.92-4.354-9.92-9.707
		c0-5.475,2.739-10.383,11.702-10.383c9.228,0,26.564,14.99,31.185,18.17c4.105,2.829,9.032,4.287,12.693,1.71
		c3.577-2.523,1.813-11.203-7.148-20.913c-8.961-9.705-26.137-13.227-35.739-13.227c-9.599,0-12.586,8.319-19.199,8.319
		c-6.615,0-9.812-5.865-9.812-10.665c0-4.801,5.864-8.644,10.347-8.644c4.479,0,8.746,1.601,13.652,3.628s11.203,3.947,17.281,3.947
		c6.082,0,10.673-6.826,5.016-12.483c-5.654-5.654-13.977-8.853-18.885-8.853c-4.904,0-8.958,1.708-11.519,3.627
		c-2.56,1.921-6.938,6.188-12.164,6.188c-5.225,0-9.492-3.948-9.492-9.391c0-5.44,4.268-9.066,8.643-9.066
		c4.374,0,6.628,1.814,9.354,4.34c2.295,2.128,4.725,3.599,7.252,2.453c2.283-1.033,3.397-2.697,2.812-5.519
		c-0.625-3.016-3.612-5.522-10.013-8.401c-6.4-2.884-21.125-6.03-31.433-4.927c-8.273,0.884-12.905,4.907-12.905,10.881
		c0,5.976,4.05,10.667,4.05,16.003c0,5.334-4.8,8.961-10.347,8.961c-5.548,0-10.349-3.627-10.349-8.961
		c0-5.336,4.052-10.027,4.052-16.003c0-5.974-4.632-9.997-12.906-10.881c-10.31-1.104-25.031,2.043-31.433,4.927
		c-6.402,2.879-9.39,5.386-10.014,8.401c-0.583,2.821,0.527,4.485,2.812,5.519c2.527,1.146,4.957-0.325,7.254-2.453
		c2.725-2.525,4.98-4.34,9.356-4.34c4.372,0,8.642,3.626,8.642,9.066c0,5.442-4.27,9.391-9.495,9.391
		c-5.229,0-9.603-4.268-12.163-6.188c-2.56-1.919-6.613-3.627-11.52-3.627c-4.908,0-13.23,3.198-18.886,8.853
		c-5.654,5.657-1.063,12.483,5.019,12.483c6.079,0,12.373-1.92,17.279-3.947c4.908-2.027,9.173-3.628,13.654-3.628
		c4.482,0,10.35,3.843,10.35,8.644c0,4.8-3.203,10.665-9.815,10.665c-6.614,0-9.601-8.319-19.203-8.319
		c-9.601,0-26.774,3.521-35.738,13.227c-8.96,9.71-10.724,18.39-7.146,20.913c3.658,2.577,8.586,1.119,12.693-1.71
		c4.62-3.18,21.957-18.17,31.185-18.17c8.96,0,11.7,4.908,11.7,10.383c0,5.353-4.267,9.707-9.92,9.707s-18.032-2.772-29.445,0.75
		c-11.412,3.52-22.83,17.707-22.83,26.989c0,9.28,5.444,13.332,12.054,13.332c6.618,0,12.879-8.592,17.604-15.256
		c6.916-9.738,17.478-14.507,30.938-14.507c7.68,0,13.441,3.521,13.441,10.456c0,6.936-5.014,9.709-8.961,9.709
		c-5.3,0-9.016-2.988-16.75-2.988c-9.512,0-18.349,6.402-24.854,16.749c-6.51,10.347-10.349,23.576-10.349,34.673
		c0,11.095,5.333,14.401,11.946,14.401c6.615,0,11.842-9.068,14.937-18.028c3.096-8.961,15.788-42.034,29.018-42.034
		c5.865,0,9.921,3.948,9.921,8.963c0,5.013-3.841,7.892-9.175,10.666c-5.333,2.774-17.389,14.829-22.403,30.297
		c-5.015,15.47-6.292,39.582,2.987,45.556c9.28,5.974,17.925-2.563,18.991-14.51c1.064-11.948,2.347-36.22,4.426-42.302
		c2.081-6.081,7.68-9.12,11.523-9.12c6.079,0,8.959,3.679,8.959,8.643c0,4.96-5.18,9.049-8.953,12.686
		c-3.602,3.475-9.128,10.997-9.128,25.399c0,14.401,3.817,34.528,13.848,34.528c7.047,0,9.684-6.025,9.684-12.64
		c0-6.615-3.314-11.979-7.423-15.382c-3.941-3.263-5.55-6.186-5.55-11.309c0-5.118,3.048-8.594,9.13-8.594
		c6.158,0,10.074,5.393,10.074,12.433c0,7.045-2.773,14.512-2.773,23.046c0,8.533,7.516,15.114,13.704,15.114
		c6.187,0,13.702-6.581,13.702-15.114c0-8.534-2.771-16.001-2.771-23.046c0-7.04,3.914-12.433,10.074-12.433
		c6.082,0,9.13,3.476,9.13,8.594c0,5.123-1.608,8.046-5.551,11.309c-4.107,3.403-7.419,8.767-7.419,15.382
		c0,6.614,2.632,12.64,9.681,12.64c10.027,0,13.85-20.127,13.85-34.528c0-14.402-5.528-21.925-9.129-25.399
		c-3.774-3.637-8.956-7.726-8.956-12.686c0-4.964,2.88-8.643,8.96-8.643c3.841,0,9.441,3.039,11.522,9.12
		c2.081,6.082,3.363,30.354,4.428,42.302c1.066,11.946,9.707,20.483,18.988,14.51c9.282-5.974,8.003-30.086,2.988-45.556
		c-5.015-15.468-17.068-27.522-22.403-30.297c-5.332-2.774-9.175-5.653-9.175-10.666c0-5.015,4.056-8.963,9.923-8.963
		c13.228,0,25.922,33.073,29.017,42.034c3.096,8.96,8.321,18.028,14.936,18.028c6.615,0,11.947-3.307,11.947-14.401
		c0-11.097-3.84-24.326-10.348-34.673s-15.343-16.749-24.855-16.749c-7.736,0-11.451,2.988-16.749,2.988
		c-3.947,0-8.963-2.773-8.963-9.709c0-6.935,5.764-10.456,13.443-10.456c13.46,0,24.024,4.769,30.937,14.507
		c4.727,6.664,10.988,15.256,17.604,15.256c6.612,0,12.056-4.052,12.056-13.332C258.596,125.852,247.178,111.664,235.765,108.145z
		 M100.981,103.898c-4.359,0-7.889-3.53-7.889-7.889c0-4.356,3.529-7.888,7.889-7.888c4.358,0,7.889,3.531,7.889,7.888
		C108.87,100.368,105.34,103.898,100.981,103.898z M116.761,141.242c-4.356,0-7.891-3.528-7.891-7.889
		c0-4.356,3.534-7.887,7.891-7.887s7.889,3.53,7.889,7.887C124.649,137.714,121.117,141.242,116.761,141.242z M167.358,61.734
		c3.549,0,6.422,2.877,6.422,6.427c0,3.549-2.873,6.426-6.422,6.426c-3.551,0-6.426-2.877-6.426-6.426
		C160.933,64.611,163.808,61.734,167.358,61.734z M169.142,164.888c-4.355,0-7.892-3.534-7.892-7.892
		c0-4.354,3.536-7.889,7.892-7.889c4.357,0,7.891,3.535,7.891,7.889C177.032,161.354,173.499,164.888,169.142,164.888z
		 M180.822,108.145c-4.596,0-8.32-3.728-8.32-8.323s3.725-8.319,8.32-8.319c4.599,0,8.32,3.724,8.32,8.319
		S185.421,108.145,180.822,108.145z"/>
</g>
</svg>
