<?xml version="1.0" encoding="utf-8"?>
<!-- Generator: Adobe Illustrator 16.0.0, SVG Export Plug-In . SVG Version: 6.00 Build 0)  -->
<!DOCTYPE svg PUBLIC "-//W3C//DTD SVG 1.1//EN" "http://www.w3.org/Graphics/SVG/1.1/DTD/svg11.dtd">
<svg version="1.1" id="Layer_1" xmlns="http://www.w3.org/2000/svg" xmlns:xlink="http://www.w3.org/1999/xlink" x="0px" y="0px"
	 width="283.46px" height="283.46px" viewBox="0 0 283.46 283.46" enable-background="new 0 0 283.46 283.46" xml:space="preserve">
<g id="Layer_2">
	<path fill="#020202" d="M260.173,114.721l-22.721-30.338l0.65-47.313l-60.346,2.322L134.2,24.876L96.816,51.535L43.174,69.327
		l2.872,37.646l-24.601,38.3l26.632,28.113l-2.636,50.656l68.315,2.582l42.322,34.987l41.889-28.022l48.902,1.5l-7.765-77.703
		L260.173,114.721z M235.602,153.378l-28.306-18.118l8.074-22.285l38.166,4.08L235.602,153.378z M140.029,117.146l-19.164,21.013
		l-0.056-8.496L140.029,117.146z M118.21,125.489l-5.777-3.025l18.55-5.291L118.21,125.489z M148.771,114.858l-8.139,24.259
		l-15.85,2.044L148.771,114.858z M144.953,108.073l-35.747,10.198l10.36-10.224l26.587-0.756L144.953,108.073z M116.777,95.464
		l23.055,7.09l-19.713,0.561L116.777,95.464z M122.226,91.995l12.923-1.685l9.651,8.626L122.226,91.995z M122.574,72.474
		l17.929-12.727l4.131,15.747l-8.787,8.846L122.574,72.474z M130.309,85.981l-19.406,2.531l-18.52-5.694l25.648-7.811
		L130.309,85.981z M110.581,93.559l4.239,9.707l-24.449,0.694l-3.237-17.613L110.581,93.559z M89.726,108.896l22.633-0.643
		L99.36,121.081l-20.941,5.976L89.726,108.896z M105.569,124.423l7.916,4.144l-21.007,13.679L80.062,131.7L105.569,124.423z
		 M115.913,132.853l0.072,10.658l-21.24,23.293l-0.005-20.165L115.913,132.853z M119.66,146.78l19.234-2.481l-8.902,26.535
		l-32.152-0.125L119.66,146.78z M143.694,145.446l9.103,7.169l0.332,35.846l-18.514-15.947L143.694,145.446z M145.355,140.497
		l7.132-21.258l0.25,27.073L145.355,140.497z M139.518,87.619l6.565-6.606l4.276,16.3L139.518,87.619z M149.382,74.215
		l-3.889-14.821l20.297,7.463l-4.293,11.917L149.382,74.215z M164.593,84.683l9.103,1.568L160.087,97.19L164.593,84.683z
		 M199.271,91.299l-17.328,4.194v-9.565l17.328-13.933V91.299z M200.664,96.022l7.739,11.266l-20.7-2.214l-3.916-4.97
		L200.664,96.022z M164.218,107.691l0.463-0.134l18.484,1.978l-3.842,7.822L164.218,107.691z M178.69,134.501l-14.778-21.168
		l14.028,8.977L178.69,134.501z M177.026,96.684l-12.103,2.927l12.103-9.729V96.684z M178.53,101.377l2.339,2.968l-10.125-1.082
		L178.53,101.377z M178.81,82.14l-12.535-2.121l4.355-12.09l24.486,1.1L178.81,82.14z M177.251,141.024l-7.395,0.688l-7.281-21.706
		L177.251,141.024z M180.487,145.662l19.899,28.5l-19.073,1.698l-9.849-29.358L180.487,145.662z M184.096,142.242l-1.027-16.65
		l18.806,12.038l0.397,30.644L184.096,142.242z M183.49,120.026l4.881-9.936l21.965,2.347l-7.287,20.107L183.49,120.026z
		 M251.949,111.942l-37.107-3.967l-9.062-13.192l28.208-6.826L251.949,111.942z M232.554,83.245l-28.365,6.865V68.042l28.891-23.229
		L232.554,83.245z M179.158,44.258l49.119-1.891l-27.361,21.999l-28.541-1.282L179.158,44.258z M174.24,43.401l-6.783,18.828
		l-23.483-8.635l-5.83-22.225L174.24,43.401z M133.138,31.673l6.032,22.991l-20.356,14.449l-16.941-15.146L133.138,31.673z
		 M97.363,56.533l16.378,14.64l-29.754,9.064l-30.141-9.27L97.363,56.533z M81.836,84.718l3.563,19.384l-34.565,0.982l-2.336-30.619
		L81.836,84.718z M49.929,110.027l33.9-0.963l-12.454,20.001l-41.231,11.764L49.929,110.027z M29.126,146.23l45.252-12.909
		l13.8,11.726l-37.215,24.236L29.126,146.23z M52.976,173.837l36.849-23.996l0.005,22.354l-38.991,42.756L52.976,173.837z
		 M112.936,221.675l-59.523-2.252l39.959-43.815l34.975,0.136L112.936,221.675z M117.551,223.38l15.375-45.832l20.263,17.455
		l0.537,58.285L117.551,223.38z M155.18,96.31l-4.267-16.264l8.916,3.354L155.18,96.31z M157.412,120.072l7.75,23.102l-7.498,4.113
		L157.412,120.072z M157.714,152.865l9.037-4.955l9.908,29.536l-18.606,11.947L157.714,152.865z M158.65,253.976l-0.543-58.771
		l20.164-12.951l16.057,47.855L158.65,253.976z M199.041,228.705l-16.119-48.053l20.711-1.843l35.697,51.129L199.041,228.705z
		 M240.764,223.408l-33.483-47.959l-0.447-34.646l27.431,17.556L240.764,223.408z"/>
</g>
</svg>
