<?xml version="1.0" encoding="utf-8"?>
<!-- Generator: Adobe Illustrator 16.0.0, SVG Export Plug-In . SVG Version: 6.00 Build 0)  -->
<!DOCTYPE svg PUBLIC "-//W3C//DTD SVG 1.1//EN" "http://www.w3.org/Graphics/SVG/1.1/DTD/svg11.dtd">
<svg version="1.1" xmlns="http://www.w3.org/2000/svg" xmlns:xlink="http://www.w3.org/1999/xlink" x="0px" y="0px"
	 width="283.46px" height="283.46px" viewBox="0 0 283.46 283.46" enable-background="new 0 0 283.46 283.46" xml:space="preserve">
<g id="Layer_3">
	<polygon fill="#FFFFFF" points="252.04,0 31.42,0 0,31.419 0,251.357 31.42,282.779 252.04,282.779 283.46,251.357 283.46,31.419 	
		"/>
</g>
<g id="Layer_2">
	<path fill="#020202" d="M260.174,114.721l-22.721-30.338l0.65-47.313l-60.345,2.322l-43.558-14.516L96.816,51.535L43.174,69.327
		l2.872,37.646l-24.601,38.3l26.632,28.113l-2.636,50.657l68.315,2.581l42.322,34.988l41.888-28.023l48.903,1.501l-7.765-77.704
		L260.174,114.721z M235.602,153.378l-28.306-18.117l8.074-22.285l38.167,4.08L235.602,153.378z M140.029,117.146l-19.164,21.013
		l-0.056-8.496L140.029,117.146z M118.21,125.489l-5.777-3.025l18.55-5.291L118.21,125.489z M148.771,114.858l-8.139,24.259
		l-15.85,2.044L148.771,114.858z M144.953,108.073l-35.747,10.198l10.36-10.224l26.587-0.756L144.953,108.073z M116.777,95.464
		l23.055,7.09l-19.713,0.561L116.777,95.464z M122.226,91.995l12.923-1.685l9.652,8.626L122.226,91.995z M122.574,72.474
		l17.929-12.727l4.132,15.747l-8.788,8.846L122.574,72.474z M130.309,85.981l-19.406,2.531l-18.52-5.694l25.648-7.811
		L130.309,85.981z M110.581,93.559l4.239,9.707l-24.449,0.694l-3.237-17.613L110.581,93.559z M89.726,108.896l22.633-0.643
		l-12.999,12.828l-20.941,5.976L89.726,108.896z M105.569,124.423l7.916,4.144l-21.007,13.679l-12.416-10.546L105.569,124.423z
		 M115.913,132.853l0.072,10.658l-21.24,23.293l-0.005-20.165L115.913,132.853z M119.66,146.78l19.234-2.482l-8.902,26.535
		l-32.152-0.125L119.66,146.78z M143.694,145.446l9.102,7.168l0.332,35.847l-18.514-15.948L143.694,145.446z M145.355,140.497
		l7.132-21.258l0.25,27.073L145.355,140.497z M139.518,87.619l6.565-6.606l4.277,16.3L139.518,87.619z M149.383,74.215l-3.89-14.821
		l20.297,7.463l-4.293,11.917L149.383,74.215z M164.594,84.683l9.102,1.568L160.088,97.19L164.594,84.683z M199.271,91.299
		l-17.328,4.194v-9.565l17.328-13.933V91.299z M200.663,96.022l7.74,11.266l-20.7-2.214l-3.916-4.97L200.663,96.022z
		 M164.218,107.691l0.463-0.134l18.484,1.978l-3.842,7.822L164.218,107.691z M178.69,134.501l-14.778-21.168l14.028,8.977
		L178.69,134.501z M177.026,96.684l-12.102,2.927l12.102-9.729V96.684z M178.53,101.377l2.339,2.968l-10.126-1.082L178.53,101.377z
		 M178.81,82.14l-12.535-2.121l4.355-12.09l24.486,1.1L178.81,82.14z M177.251,141.024l-7.394,0.688l-7.282-21.706L177.251,141.024z
		 M180.487,145.661l19.899,28.501l-19.073,1.698l-9.849-29.359L180.487,145.661z M184.096,142.241l-1.027-16.649l18.805,12.038
		l0.398,30.644L184.096,142.241z M183.49,120.026l4.88-9.936l21.965,2.347l-7.286,20.107L183.49,120.026z M251.949,111.942
		l-37.107-3.967l-9.062-13.192l28.208-6.826L251.949,111.942z M232.554,83.245l-28.365,6.865V68.042l28.891-23.229L232.554,83.245z
		 M179.157,44.258l49.12-1.891l-27.362,21.999l-28.54-1.282L179.157,44.258z M174.24,43.401l-6.783,18.828l-23.484-8.635
		l-5.83-22.225L174.24,43.401z M133.138,31.673l6.032,22.991l-20.356,14.449l-16.941-15.146L133.138,31.673z M97.363,56.533
		l16.378,14.64l-29.754,9.064l-30.141-9.27L97.363,56.533z M81.836,84.718l3.563,19.384l-34.565,0.982l-2.336-30.619L81.836,84.718z
		 M49.929,110.027l33.9-0.963l-12.454,20.001l-41.231,11.764L49.929,110.027z M29.126,146.23l45.252-12.909l13.8,11.725
		l-37.215,24.236L29.126,146.23z M52.976,173.837l36.849-23.996l0.005,22.354l-38.991,42.755L52.976,173.837z M112.936,221.675
		l-59.523-2.251l39.959-43.816l34.975,0.136L112.936,221.675z M117.551,223.38l15.375-45.832l20.263,17.455l0.537,58.285
		L117.551,223.38z M155.18,96.31l-4.267-16.264l8.917,3.354L155.18,96.31z M157.412,120.072l7.75,23.101l-7.499,4.114
		L157.412,120.072z M157.715,152.864l9.036-4.954l9.908,29.536l-18.606,11.947L157.715,152.864z M158.65,253.976l-0.543-58.772
		l20.164-12.951l16.056,47.856L158.65,253.976z M199.04,228.704l-16.119-48.052l20.712-1.843l35.697,51.129L199.04,228.704z
		 M240.764,223.407l-33.483-47.958l-0.448-34.646l27.431,17.556L240.764,223.407z"/>
</g>
</svg>
