<?xml version="1.0" encoding="utf-8"?>
<!-- Generator: Adobe Illustrator 16.0.0, SVG Export Plug-In . SVG Version: 6.00 Build 0)  -->
<!DOCTYPE svg PUBLIC "-//W3C//DTD SVG 1.1//EN" "http://www.w3.org/Graphics/SVG/1.1/DTD/svg11.dtd">
<svg version="1.1" xmlns="http://www.w3.org/2000/svg" xmlns:xlink="http://www.w3.org/1999/xlink" x="0px" y="0px"
	 width="283.46px" height="283.46px" viewBox="0 0 283.46 283.46" enable-background="new 0 0 283.46 283.46" xml:space="preserve">
<g id="Layer_3">
	<polygon fill="#FFFFFF" points="252.04,0 31.42,0 0,31.419 0,251.357 31.42,282.779 252.04,282.779 283.46,251.357 283.46,31.419 	
		"/>
</g>
<g id="Layer_2">
	<polygon fill="#020202" points="21.052,236.607 51.221,184.354 81.392,236.607 	"/>
	<polygon fill="#020202" points="81.392,236.607 111.561,184.354 141.73,236.607 	"/>
	<polygon fill="#020202" points="141.73,236.607 171.899,184.354 202.069,236.607 	"/>
	<polygon fill="#020202" points="51.221,184.354 81.392,132.101 111.561,184.354 	"/>
	<polygon fill="#020202" points="111.561,79.627 141.73,27.374 171.899,79.627 	"/>
	<polygon fill="#020202" points="81.392,132.06 111.561,79.805 141.73,132.06 	"/>
	<polygon fill="#020202" points="141.73,132.06 171.899,79.805 202.069,132.06 	"/>
	<polygon fill="#020202" points="171.899,184.354 202.069,132.101 232.239,184.354 	"/>
	<polygon fill="#020202" points="202.069,236.607 232.239,184.354 262.409,236.607 	"/>
</g>
</svg>
