<?xml version="1.0" encoding="utf-8"?>
<!-- Generator: Adobe Illustrator 16.0.0, SVG Export Plug-In . SVG Version: 6.00 Build 0)  -->
<!DOCTYPE svg PUBLIC "-//W3C//DTD SVG 1.1//EN" "http://www.w3.org/Graphics/SVG/1.1/DTD/svg11.dtd">
<svg version="1.1" id="Layer_1" xmlns="http://www.w3.org/2000/svg" xmlns:xlink="http://www.w3.org/1999/xlink" x="0px" y="0px"
	 width="283.46px" height="283.46px" viewBox="0 0 283.46 283.46" enable-background="new 0 0 283.46 283.46" xml:space="preserve">
<g id="Layer_2">
	<path fill="#020202" d="M141.872,81.385c0,32.356-26.229,58.586-58.589,58.586c-32.355,0-58.583-26.23-58.583-58.586
		c0-32.355,26.228-58.586,58.583-58.586C115.644,22.798,141.872,49.03,141.872,81.385z"/>
	<path fill="#020202" d="M208.66,23.385c35.736,0,50.383,33.589,50.383,70.302c0,103.695-43.354,164.041-155.836,164.041
		c-35.155,0-78.506-14.061-78.506-48.042c0-31.312,26.97-43.501,58.583-45.108c34.566-1.758,57.246-12.383,72.472-36.076
		c11.309-17.589,8.58-42.751,8.58-57.264C164.335,43.899,184.39,23.385,208.66,23.385z"/>
</g>
</svg>
