<?xml version="1.0" encoding="utf-8"?>
<!-- Generator: Adobe Illustrator 16.0.0, SVG Export Plug-In . SVG Version: 6.00 Build 0)  -->
<!DOCTYPE svg PUBLIC "-//W3C//DTD SVG 1.1//EN" "http://www.w3.org/Graphics/SVG/1.1/DTD/svg11.dtd">
<svg version="1.1" id="Layer_1" xmlns="http://www.w3.org/2000/svg" xmlns:xlink="http://www.w3.org/1999/xlink" x="0px" y="0px"
	 width="283.46px" height="283.46px" viewBox="0 0 283.46 283.46" enable-background="new 0 0 283.46 283.46" xml:space="preserve">
<g id="Layer_2">
	<polygon fill="#020202" points="226.498,103.829 197.875,141.556 169.906,103.829 141.936,141.556 112.666,103.829 83.396,141.556 
		56.077,103.829 28.758,141.556 28.758,179.281 56.077,141.556 83.396,179.281 112.666,141.556 141.936,179.281 169.906,141.556 
		197.875,179.281 226.498,141.556 255.117,179.281 255.117,141.556 	"/>
	<polygon fill="#020202" points="226.498,179.662 197.875,217.388 169.906,179.662 141.936,217.388 112.666,179.662 83.396,217.388 
		56.077,179.662 28.758,217.388 28.758,255.117 56.077,217.388 83.396,255.117 112.666,217.388 141.936,255.117 169.906,217.388 
		197.875,255.117 226.498,217.388 255.117,255.117 255.117,217.388 	"/>
	<polygon fill="#020202" points="226.498,27.998 197.875,65.723 169.906,27.998 141.936,65.723 112.666,27.998 83.396,65.723 
		56.077,27.998 28.758,65.723 28.758,103.45 56.077,65.723 83.396,103.45 112.666,65.723 141.936,103.45 169.906,65.723 
		197.875,103.45 226.498,65.723 255.117,103.45 255.117,65.723 	"/>
</g>
</svg>
