<?xml version="1.0" encoding="utf-8"?>
<!-- Generator: Adobe Illustrator 16.0.0, SVG Export Plug-In . SVG Version: 6.00 Build 0)  -->
<!DOCTYPE svg PUBLIC "-//W3C//DTD SVG 1.1//EN" "http://www.w3.org/Graphics/SVG/1.1/DTD/svg11.dtd">
<svg version="1.1" id="Layer_1" xmlns="http://www.w3.org/2000/svg" xmlns:xlink="http://www.w3.org/1999/xlink" x="0px" y="0px"
	 width="283.46px" height="283.46px" viewBox="0 0 283.46 283.46" enable-background="new 0 0 283.46 283.46" xml:space="preserve">
<g id="Layer_2">
	<g>
		<rect x="28" y="28.54" fill="#020202" width="69" height="29"/>
		<rect x="106" y="28.54" fill="#020202" width="69" height="29"/>
		<rect x="185" y="28.54" fill="#020202" width="70" height="29"/>
		<rect x="68" y="69.54" fill="#020202" width="69" height="28"/>
		<rect x="28" y="69.54" fill="#020202" width="31" height="28"/>
		<rect x="146" y="69.54" fill="#020202" width="71" height="28"/>
		<rect x="225" y="69.54" fill="#020202" width="30" height="28"/>
		<rect x="28" y="108.54" fill="#020202" width="69" height="27"/>
		<rect x="106" y="108.54" fill="#020202" width="69" height="27"/>
		<rect x="185" y="108.54" fill="#020202" width="70" height="27"/>
		<rect x="68" y="147.541" fill="#020202" width="69" height="26"/>
		<rect x="28" y="147.541" fill="#020202" width="31" height="26"/>
		<rect x="146" y="147.541" fill="#020202" width="71" height="26"/>
		<rect x="225" y="147.541" fill="#020202" width="30" height="26"/>
		<rect x="28" y="185.541" fill="#020202" width="69" height="30"/>
		<rect x="106" y="185.541" fill="#020202" width="69" height="30"/>
		<rect x="185" y="185.541" fill="#020202" width="70" height="30"/>
		<rect x="68" y="226.541" fill="#020202" width="69" height="29"/>
		<rect x="28" y="226.541" fill="#020202" width="31" height="29"/>
		<rect x="146" y="226.541" fill="#020202" width="71" height="29"/>
		<rect x="225" y="226.541" fill="#020202" width="30" height="29"/>
	</g>
</g>
</svg>
