<?xml version="1.0" encoding="utf-8"?>
<!-- Generator: Adobe Illustrator 16.0.0, SVG Export Plug-In . SVG Version: 6.00 Build 0)  -->
<!DOCTYPE svg PUBLIC "-//W3C//DTD SVG 1.1//EN" "http://www.w3.org/Graphics/SVG/1.1/DTD/svg11.dtd">
<svg version="1.1" id="Layer_1" xmlns="http://www.w3.org/2000/svg" xmlns:xlink="http://www.w3.org/1999/xlink" x="0px" y="0px"
	 width="283.46px" height="283.46px" viewBox="0 0 283.46 283.46" enable-background="new 0 0 283.46 283.46" xml:space="preserve">
<g id="Layer_2">
	<path fill="#020202" d="M252.854,254.958c-1.362,0-2.476-1.225-2.476-2.722V31.261c0-1.497,1.113-2.721,2.476-2.721
		s2.476,1.224,2.476,2.721v220.975C255.33,253.733,254.216,254.958,252.854,254.958z"/>
	<path fill="#020202" d="M201.729,254.958c-2.724,0-4.953-2.449-4.953-5.442V33.982c0-2.993,2.229-5.442,4.953-5.442
		s4.953,2.449,4.953,5.442v215.534C206.682,252.509,204.453,254.958,201.729,254.958z"/>
	<path fill="#020202" d="M150.602,254.958c-4.086,0-7.429-3.674-7.429-8.164V36.703c0-4.489,3.343-8.163,7.429-8.163
		c4.085,0,7.428,3.674,7.428,8.163v210.091C158.03,251.285,154.688,254.958,150.602,254.958z"/>
	<path fill="#020202" d="M99.476,254.958c-6.809,0-12.38-6.123-12.38-13.604V42.145c0-7.482,5.571-13.604,12.38-13.604
		c6.81,0,12.381,6.122,12.381,13.604v199.208C111.856,248.835,106.285,254.958,99.476,254.958z"/>
	<path fill="#020202" d="M48.35,254.958c-10.895,0-19.81-9.797-19.81-21.769V50.308c0-11.972,8.915-21.768,19.81-21.768
		c10.896,0,19.81,9.796,19.81,21.768V233.19C68.16,245.162,59.245,254.958,48.35,254.958z"/>
</g>
</svg>
