<?xml version="1.0" encoding="utf-8"?>
<!-- Generator: Adobe Illustrator 16.0.0, SVG Export Plug-In . SVG Version: 6.00 Build 0)  -->
<!DOCTYPE svg PUBLIC "-//W3C//DTD SVG 1.1//EN" "http://www.w3.org/Graphics/SVG/1.1/DTD/svg11.dtd">
<svg version="1.1" id="Layer_1" xmlns="http://www.w3.org/2000/svg" xmlns:xlink="http://www.w3.org/1999/xlink" x="0px" y="0px"
	 width="203.553px" height="143.759px" viewBox="0 0 203.553 143.759" enable-background="new 0 0 203.553 143.759"
	 xml:space="preserve">
<polygon fill="#00BDD4" points="0,0 0,39.042 20.573,0 "/>
<path fill="#00BDD4" d="M169.311,20.046l-2.593,14.889l17.702,6.706l8.979-15.205l-11.052-11.358L169.311,20.046z M143.564,0
	l-4.367,14.109l13.288,15.998l23.508-18.022L171.848,0H143.564z M192.259,0l-0.015,2.548l4.856,0.961l-8.995,11.59l11.872,16.116
	l3.575-1.577V0H192.259z"/>
<polygon fill="#00BDD4" points="160.037,143.759 173.256,98.828 70.099,68.479 63.985,89.259 22.886,77.169 10.683,118.65 
	51.781,130.742 47.952,143.759 "/>
<polygon fill="#00BDD4" points="189.198,75.355 197.337,84.25 203.553,78.564 203.553,62.221 "/>
</svg>
