<?xml version="1.0" encoding="utf-8"?>
<!-- Generator: Adobe Illustrator 16.0.0, SVG Export Plug-In . SVG Version: 6.00 Build 0)  -->
<!DOCTYPE svg PUBLIC "-//W3C//DTD SVG 1.1//EN" "http://www.w3.org/Graphics/SVG/1.1/DTD/svg11.dtd">
<svg version="1.1" xmlns="http://www.w3.org/2000/svg" xmlns:xlink="http://www.w3.org/1999/xlink" x="0px" y="0px" width="204px"
	 height="143.759px" viewBox="0 0 204 143.759" enable-background="new 0 0 204 143.759" xml:space="preserve">
<g id="Layer_1">
</g>
<g id="Layer_2">
	<polygon fill="#925D9E" points="0.155,94.411 0.155,107.321 43.231,26.488 37.26,24.015 	"/>
	<path fill="#925D9E" d="M101.681,13.878"/>
	<polygon fill="#925D9E" points="42,0 41.265,20.362 85.439,17.131 78.727,0 	"/>
	<path fill="#925D9E" d="M192.478,133.271l-0.061,10.488h11.291v-17.26L192.478,133.271z M164.263,122.093l1.081,3.113l-17.77,6.586
		l-3.701,11.967h27.958l-1.833-5.346l16.2,2.102l6.359-14.225l-10.144-12.42L164.263,122.093z"/>
	<polygon fill="#925D9E" points="45.509,97.229 46.787,94.806 19.679,82.142 0,118.933 0,143.364 20.991,143.364 42.294,103.134 
		151.531,119.788 152.945,113.432 	"/>
	<polygon fill="#925D9E" points="111.661,64.968 134.205,48.573 176.386,13.22 185.877,0 110.588,0 91.921,29.088 69.542,37.455 
		83.732,75.411 	"/>
	<polygon fill="#925D9E" points="199.547,111.685 203.708,112.522 203.708,91.905 	"/>
</g>
</svg>
