<?xml version="1.0" encoding="utf-8"?>
<!-- Generator: Adobe Illustrator 15.0.0, SVG Export Plug-In . SVG Version: 6.00 Build 0)  -->
<!DOCTYPE svg PUBLIC "-//W3C//DTD SVG 1.1//EN" "http://www.w3.org/Graphics/SVG/1.1/DTD/svg11.dtd">
<svg version="1.1" id="Layer_1" xmlns="http://www.w3.org/2000/svg" xmlns:xlink="http://www.w3.org/1999/xlink" x="0px" y="0px"
	 width="204px" height="143.758px" viewBox="0 0 204 143.758" enable-background="new 0 0 204 143.758" xml:space="preserve">
<path id="bottom_left" fill="#00BDD4" d="M0.155,94.411v12.91l43.076-80.833l-5.971-2.473L0.155,94.411z M45.509,97.229l1.278-2.423
	L19.679,82.142L0,118.933v24.431h20.991l21.303-40.23l109.237,16.654l1.414-6.355L45.509,97.229z"/>
<path id="top_center" fill="#00BDD4" d="M42,0l-0.735,20.362l44.174-3.231L78.727,0H42z M111.661,64.968l22.544-16.395
	l42.182-35.353L185.877,0h-75.289L91.921,29.088l-22.379,8.367l14.19,37.956L111.661,64.968z"/>
<path id="bottom_right" fill="#00BDD4" d="M192.479,133.271l-0.062,10.487h11.291v-17.26L192.479,133.271z M164.264,122.092
	l1.08,3.113l-17.77,6.586l-3.701,11.967h27.958l-1.833-5.346l16.2,2.103l6.358-14.226l-10.144-12.42L164.264,122.092z
	 M199.547,111.685l4.161,0.837V91.905L199.547,111.685z"/>
</svg>
