<?xml version="1.0" encoding="utf-8"?>
<!-- Generator: Adobe Illustrator 16.0.0, SVG Export Plug-In . SVG Version: 6.00 Build 0)  -->
<!DOCTYPE svg PUBLIC "-//W3C//DTD SVG 1.1//EN" "http://www.w3.org/Graphics/SVG/1.1/DTD/svg11.dtd">
<svg version="1.1" xmlns="http://www.w3.org/2000/svg" xmlns:xlink="http://www.w3.org/1999/xlink" x="0px" y="0px" width="204px"
	 height="143.76px" viewBox="0 0 204 143.76" enable-background="new 0 0 204 143.76" xml:space="preserve">
<g id="Layer_2">
	<polygon fill="#FAB0C9" points="153.014,122.851 173.827,20.831 119.188,9.028 97.589,111.685 	"/>
	<polygon fill="#FAB0C9" points="62.305,122.093 63.386,125.206 45.617,131.792 41.915,143.759 69.873,143.759 68.04,138.413 
		84.24,140.515 90.6,126.29 80.456,113.87 	"/>
	<polygon fill="#FAB0C9" points="90.52,133.271 90.459,143.759 113.319,143.759 118.104,136.944 103.443,125.478 	"/>
	<polygon fill="#FAB0C9" points="0.224,112.38 49.573,119.837 50.987,113.456 0.224,105.79 	"/>
	<polygon fill="#FAB0C9" points="8.629,0 0.223,13.098 0.223,68.513 9.703,64.968 32.247,48.573 74.428,13.22 83.919,0 	"/>
	<polygon fill="#FAB0C9" points="142,0 181.98,7.79 183.354,0 	"/>
	<polygon fill="#FAB0C9" points="190.792,143.759 203.776,143.759 203.776,119.388 	"/>
	<polygon fill="#FAB0C9" points="178.009,143.759 184.602,143.759 203.776,107.776 203.776,94.872 	"/>
</g>
<g id="Layer_1">
</g>
</svg>
