<?xml version="1.0" encoding="utf-8"?>
<!-- Generator: Adobe Illustrator 16.0.0, SVG Export Plug-In . SVG Version: 6.00 Build 0)  -->
<!DOCTYPE svg PUBLIC "-//W3C//DTD SVG 1.1//EN" "http://www.w3.org/Graphics/SVG/1.1/DTD/svg11.dtd">
<svg version="1.1" xmlns="http://www.w3.org/2000/svg" xmlns:xlink="http://www.w3.org/1999/xlink" x="0px" y="0px" width="204px"
	 height="143.76px" viewBox="0 0 204 143.76" enable-background="new 0 0 204 143.76" xml:space="preserve">
<g id="Layer_1">
</g>
<g id="Layer_3">
	<polygon fill="#FFAF3E" points="42.232,139.76 42.087,143.76 78.6,143.76 76.064,137.289 	"/>
	<polygon fill="#FFAF3E" points="60.658,130.523 61.851,105.094 86.847,103.291 91.222,128.289 	"/>
	<polygon fill="#FFAF3E" points="0.609,108.686 10.481,134.191 30.79,132.744 29.535,106.541 	"/>
	<polygon fill="#FFAF3E" points="35.661,120.586 33.232,89.363 51.346,88.016 56.727,119.064 	"/>
	<polygon fill="#FFAF3E" points="0.223,71.005 0.223,104.02 17.075,102.76 11.399,70.179 	"/>
	<polygon fill="#FFAF3E" points="11.147,55.351 19.966,76.43 51.812,74.084 36.77,53.476 	"/>
	<polygon fill="#FFAF3E" points="0.223,15.897 0.223,48.367 24.125,46.605 3.692,15.635 	"/>
	<polygon fill="#FFAF3E" points="110.977,143.76 186.305,143.76 203.776,119.422 203.776,69.138 171.931,48.775 	"/>
	<polygon fill="#FFAF3E" points="149.116,37.453 160.134,0 48.048,0 45.958,7.104 	"/>
</g>
</svg>
