<?xml version="1.0" encoding="utf-8"?>
<!-- Generator: Adobe Illustrator 16.0.0, SVG Export Plug-In . SVG Version: 6.00 Build 0)  -->
<!DOCTYPE svg PUBLIC "-//W3C//DTD SVG 1.1//EN" "http://www.w3.org/Graphics/SVG/1.1/DTD/svg11.dtd">
<svg version="1.1" id="Layer_1" xmlns="http://www.w3.org/2000/svg" xmlns:xlink="http://www.w3.org/1999/xlink" x="0px" y="0px"
	 width="1440px" height="1440px" viewBox="0 0 1440 1440" enable-background="new 0 0 1440 1440" xml:space="preserve">
<g>
	<defs>
		<rect id="SVGID_1_" x="-1544" width="1444" height="1440"/>
	</defs>
	<clipPath id="SVGID_2_">
		<use xlink:href="#SVGID_1_"  overflow="visible"/>
	</clipPath>
	<g clip-path="url(#SVGID_2_)">
		<polygon fill="#46B4EB" points="405.537,1700.028 251.224,1426.396 85.267,1486.664 191.039,1777.922 		"/>
		<polygon fill="#46B4EB" points="-1.962,1318.378 -176.936,1381.922 -45.409,1701.647 102.412,1647.979 -1.956,1318.392 		"/>
	</g>
	<g clip-path="url(#SVGID_2_)">
		<path fill="#46B4EB" d="M-543.951,44.578l310.239-637.432c24.551-50.455,85.926-71.642,136.379-47.086l263.219,128.107
			c50.452,24.554,71.644,85.928,47.09,136.382L-97.26,261.982c-24.557,50.456-85.932,71.643-136.384,47.089l-263.219-128.107
			C-547.318,156.407-568.505,95.036-543.951,44.578z"/>
	</g>
</g>
<g>
	<defs>
		<rect id="SVGID_3_" width="1440" height="1440"/>
	</defs>
	<clipPath id="SVGID_4_">
		<use xlink:href="#SVGID_3_"  overflow="visible"/>
	</clipPath>
	<g clip-path="url(#SVGID_4_)">
		<polygon fill="#6EC828" points="1518.894,1911.345 1880.843,1717.759 1942.938,1378.412 1473.876,1354.534 1249.524,1632.562 		
			"/>
		<polygon fill="#6EC828" points="933.615,1527.684 1111.542,1666.375 1270.477,1573.245 1286.354,1535.394 1223.407,1346.276 
			1043.507,1349.967 		"/>
		<polygon fill="#6EC828" points="1025.028,942.61 876.662,1053.997 897.386,1221.585 1104.162,1269.882 1167.229,1072.034 		"/>
		<polygon fill="#6EC828" points="1124.644,999.496 1329.482,1159.802 1470.181,1027.068 1409.5,873.376 1208.346,849.984 		"/>
	</g>
	<g clip-path="url(#SVGID_4_)">
		<polygon fill="#6EC828" points="415.185,1155.347 415.175,1155.376 415.188,1155.34 504.643,915.521 280.711,832.755 
			-69.067,1785.336 -69.115,1785.467 -87.303,1778.029 -150.861,1952.836 -132.706,1960.355 -206.228,2158.767 -133.649,2185.61 
			-134.142,2186.519 -245.657,2491.116 -6.702,2579.091 504.642,1188.922 		"/>
	</g>
	<polygon clip-path="url(#SVGID_4_)" fill="#6EC828" points="2641.646,-841.237 2469.961,-665.11 2560.814,-576.558 
		1693.087,313.63 1605.299,228.065 1262.431,579.812 901.647,228.13 1244.522,-123.614 1142.305,-223.255 2181.705,-1289.571 	"/>
	<g clip-path="url(#SVGID_4_)">
		<path fill="#6EC828" d="M-571.96,135.139L350.227-138.13c72.993-21.636,150.413,20.399,172.039,93.393l112.847,380.801
			c21.631,72.993-20.398,150.417-93.388,172.05l-922.197,273.263c-72.99,21.628-150.408-20.398-172.039-93.39l-112.841-380.805
			C-686.982,234.185-644.961,156.769-571.96,135.139z"/>
	</g>
</g>
<g>
	<defs>
		<rect id="SVGID_7_" x="1540" width="1440" height="1440"/>
	</defs>
	<clipPath id="SVGID_6_">
		<use xlink:href="#SVGID_7_"  overflow="visible"/>
	</clipPath>
	<path clip-path="url(#SVGID_6_)" fill="#FFAF3C" d="M1642.719-98.518l257.01,25.155l-30.51,294.368l-251.66-24.781L1597.9,397.981
		L1400.367,621.87l376.164,343.17l247.861-270.117l221.553-440.783l-174.627-17.329l28.857-286.906l283.828,25.734l49.539-97.521
		l-177.426-14.988l18.979-181.468l184.559,18.541l163.398-1079.684l-837.797-84.157L1642.719-98.518z M1765.693-533.313
		l20.59-202.535l170.576,16.904l-19.312,202.194L1765.693-533.313z M2105.143-155.464l-190.871-20.845l16.797-174.42l193.34,19.259
		L2105.143-155.464z M2475.348-918.566l-68.932,450.903l-259.785-26.538l43.293-452.134L2475.348-918.566z"/>
</g>
<g>
	<defs>
		<rect id="SVGID_23_" x="-1540" y="1540" width="1440" height="1440"/>
	</defs>
	<clipPath id="SVGID_8_">
		<use xlink:href="#SVGID_23_"  overflow="visible"/>
	</clipPath>
	<g clip-path="url(#SVGID_8_)">
	</g>
</g>
<g>
	<defs>
		<rect id="SVGID_25_" y="1540" width="1440" height="1440"/>
	</defs>
	<clipPath id="SVGID_10_">
		<use xlink:href="#SVGID_25_"  overflow="visible"/>
	</clipPath>
	<path clip-path="url(#SVGID_10_)" fill="#6EC828" d="M732.428,1409.473l24.603,208.363l-238.943,26.828l-23.972-204.049
		L330.562,1460l-211.964-117.968l-207.156,358.094l257.384,149.891l388.293,99.419l-16.528-141.612l232.731-26.852l28.789,229.751
		l86.005,22.408l-18.875-143.425l147.328-16.41l17.291,149.707l885.326-57.534l-78.489-679.586L732.428,1409.473z
		 M1098.868,1431.685l164.33-18.782l16.164,138.324l-163.837,19.736L1098.868,1431.685z M857.819,1766.642l-16.552-155.113
		l141.355-16.918l18.243,156.802L857.819,1766.642z M1527.724,1928.16l-369.855,23.478l-23.985-210.803l366.386-44.045
		L1527.724,1928.16z"/>
</g>
<g>
	<defs>
		<rect id="SVGID_27_" x="1540" y="1540" width="1440" height="1440"/>
	</defs>
	<clipPath id="SVGID_12_">
		<use xlink:href="#SVGID_27_"  overflow="visible"/>
	</clipPath>
	<g clip-path="url(#SVGID_12_)">
		<polygon fill="#FFAF3C" points="1665.055,1683.788 1683.104,1411.449 1431.9,1330.965 1284.792,1483.805 1418.162,1709.74 		"/>
	</g>
</g>
</svg>
