<?xml version="1.0" encoding="utf-8"?>
<!-- Generator: Adobe Illustrator 16.0.0, SVG Export Plug-In . SVG Version: 6.00 Build 0)  -->
<!DOCTYPE svg PUBLIC "-//W3C//DTD SVG 1.1//EN" "http://www.w3.org/Graphics/SVG/1.1/DTD/svg11.dtd">
<svg version="1.1" id="Layer_1" xmlns="http://www.w3.org/2000/svg" xmlns:xlink="http://www.w3.org/1999/xlink" x="0px" y="0px"
	 width="1440px" height="1440px" viewBox="0 0 1440 1440" enable-background="new 0 0 1440 1440" xml:space="preserve">
<rect x="-4" fill="none" width="1440" height="1440"/>
<g>
	<defs>
		<rect id="SVGID_13_" x="1536" width="1444" height="1440"/>
	</defs>
	<clipPath id="SVGID_2_">
		<use xlink:href="#SVGID_13_"  overflow="visible"/>
	</clipPath>
	<g clip-path="url(#SVGID_2_)">
		<polygon fill="#FFEB64" points="1440.391,-64.803 1438.896,249.339 1612.914,279.191 1665.308,-26.215 		"/>
	</g>
	<g clip-path="url(#SVGID_2_)">
		<polygon fill="#FFEB64" points="2728.031,2014.615 2747.125,1976.51 1408.863,1275.512 1389.763,1313.622 		"/>
	</g>
</g>
<g>
	<defs>
		<rect id="SVGID_15_" x="-4" width="1440" height="1440"/>
	</defs>
	<clipPath id="SVGID_4_">
		<use xlink:href="#SVGID_15_"  overflow="visible"/>
	</clipPath>
	<g clip-path="url(#SVGID_4_)">
		<polygon fill="#FFAFC8" points="1673.422,-894.305 1673.41,-894.277 1673.426,-894.311 1796.748,-1118.604 1587.205,-1233.001 
			1102.844,-341.289 1102.777,-341.166 1085.862,-351.166 997.6,-187.438 1014.473,-177.361 912.924,8.273 980.838,45.369 
			980.219,46.197 825.666,331.379 1049.317,453.111 1757.057,-848.099 		"/>
		<polygon fill="#FFAFC8" points="1621.168,-438.961 1582.076,-459.296 836.096,913.036 875.188,933.388 		"/>
	</g>
	<polygon clip-path="url(#SVGID_4_)" fill="#FFAFC8" points="-592.316,1835.738 -499.568,1607.935 -617.076,1560.102 
		-148.324,408.729 -34.781,454.95 150.436,0 617.076,189.98 431.85,644.931 564.06,698.759 2.572,2077.931 	"/>
	<g clip-path="url(#SVGID_4_)">
		<path fill="#FFAFC8" d="M1790.459,1161.411l-610.37,743.339c-48.309,58.842-135.983,67.444-194.816,19.131l-306.954-252.04
			c-58.837-48.311-67.447-135.985-19.141-194.823l610.382-743.34c48.31-58.834,135.979-67.443,194.815-19.132l306.95,252.045
			C1830.164,1014.905,1838.777,1102.569,1790.459,1161.411z"/>
	</g>
</g>
<g>
	<defs>
		<rect id="SVGID_17_" x="-1544" width="1440" height="1440"/>
	</defs>
	<clipPath id="SVGID_6_">
		<use xlink:href="#SVGID_17_"  overflow="visible"/>
	</clipPath>
	<path clip-path="url(#SVGID_6_)" fill="#FFAF3C" d="M317.981,902.804L75.108,990.552l-98.97-278.906l237.882-85.786l-68.964-190.62
		l82.132-287.054L-259.953,0l-107.706,350.425l-10.601,493.217l165.124-59.405l97.255,271.458l-267.337,98.751l-2.815,109.348
		l166.644-62.725l60.857,172.008l-174.611,62.582l316.505,1045.104L776,2196.669L317.981,902.804z M393.816,1348.246l68.456,191.723
		L300.99,1598.02l-69.464-190.867L393.816,1348.246z M-75.079,1152.968l181.302-63.214l59.798,164.709l-182.849,65.707
		L-75.079,1152.968z M-81.371,2001.105l-131.555-436.759l245.973-87.692l155.234,426.852L-81.371,2001.105z"/>
</g>
<g>
	<defs>
		<rect id="SVGID_37_" y="-1540" width="1440" height="1440"/>
	</defs>
	<clipPath id="SVGID_8_">
		<use xlink:href="#SVGID_37_"  overflow="visible"/>
	</clipPath>
	<g clip-path="url(#SVGID_8_)">
		<polygon fill="#FFAFC8" points="1472.049,-1406.92 1472.029,-1406.889 1472.041,-1406.92 1569.842,-1649.525 1343.279,-1740.066 
			960.514,-776.264 960.467,-776.136 942.084,-784.222 872.482,-607.335 890.826,-599.167 810.418,-398.432 883.854,-369.088 
			883.324,-368.158 761.271,-59.967 1003.025,36.287 1562.525,-1370.226 		"/>
		<polygon fill="#FFAFC8" points="1474.516,-938.535 1432.373,-954.411 842.746,528.922 884.885,544.807 		"/>
	</g>
</g>
<g>
	<defs>
		<rect id="SVGID_39_" x="1540" y="-1540" width="1440" height="1440"/>
	</defs>
	<clipPath id="SVGID_10_">
		<use xlink:href="#SVGID_39_"  overflow="visible"/>
	</clipPath>
	<path clip-path="url(#SVGID_10_)" fill="#FFEB64" d="M2009.459-579.281l-85.404,167.067l-190.902-98.968l83.73-163.551
		l-131.178-66.984l-98.801-193.134l-332.125,162.992l116.664,239.465l239.049,267.096l58.191-113.453l186.295,95.869L1762.039-97.84
		l52.75,59.445l57.354-115.964l117.641,61.125L1928.129,26.61l686.482,397.81l279.863-544.03L2009.459-579.281z M2270.695-380.424
		l131.451,67.819l-56.822,110.829l-131.564-66.871L2270.695-380.424z M1924.893-251.481l64.891-123.501l113.451,57.773
		l-64.473,125.591L1924.893-251.481z M2342.293,201.896L2055.789,35.291l87.078-168.575l294.17,149.596L2342.293,201.896z"/>
</g>
</svg>
