<?xml version="1.0" encoding="utf-8"?>
<!-- Generator: Adobe Illustrator 16.0.0, SVG Export Plug-In . SVG Version: 6.00 Build 0)  -->
<!DOCTYPE svg PUBLIC "-//W3C//DTD SVG 1.1//EN" "http://www.w3.org/Graphics/SVG/1.1/DTD/svg11.dtd">
<svg version="1.1" id="Layer_1" xmlns="http://www.w3.org/2000/svg" xmlns:xlink="http://www.w3.org/1999/xlink" x="0px" y="0px"
	 width="1440px" height="1440px" viewBox="0 0 1440 1440" enable-background="new 0 0 1440 1440" xml:space="preserve">
<g>
	<defs>
		<rect id="SVGID_5_" x="-1540" width="1440" height="1440"/>
	</defs>
	<clipPath id="SVGID_2_">
		<use xlink:href="#SVGID_5_"  overflow="visible"/>
	</clipPath>
	<path clip-path="url(#SVGID_2_)" fill="#6EC828" d="M328.703,180.93l27.443-222.165L610.568-8.331l-27.002,217.538l174.409,21.468
		l189.678,176.095l305.647-318.438l-228.634-220.727L647.558-334.067L628.705-183.12l-247.994-31.311l28.536-245.394l-83.424-45.071
		l-16.885,153.424l-156.84-20.434l20.121-159.527l-932.047-165.312l-91.329,724.17L328.703,180.93z M-45.383,64.812l-175.062-22.289
		l18.396-147.448l174.792,21.179L-45.383,64.812z M289.511-221.05L267.255-56.101l-150.78-18.385l20.934-167.123L289.511-221.05z
		 M-363.646-558.624l389.229,69.639L-3.12-264.442l-390.862-47.447L-363.646-558.624z"/>
	<polygon clip-path="url(#SVGID_2_)" fill="#6EC828" points="399.243,647.978 306.5,892.604 432.685,940.435 -36.047,2176.828 
		-157.976,2130.609 -343.186,2619.155 -844.283,2429.181 -659.064,1940.636 -801.037,1886.81 -239.573,405.796 	"/>
</g>
<g>
	<defs>
		<rect id="SVGID_7_" y="-3080" width="1440" height="1440"/>
	</defs>
	<clipPath id="SVGID_4_">
		<use xlink:href="#SVGID_7_"  overflow="visible"/>
	</clipPath>
	<g clip-path="url(#SVGID_4_)">
		<polygon fill="#FFAF3C" points="905.303,-244.024 1274.387,2.667 1476.582,-223.481 1054.545,-505.36 		"/>
	</g>
</g>
<g>
	<defs>
		<rect id="SVGID_15_" x="1536" y="1540" width="1440" height="1440"/>
	</defs>
	<clipPath id="SVGID_6_">
		<use xlink:href="#SVGID_15_"  overflow="visible"/>
	</clipPath>
</g>
<g>
	<defs>
		<rect id="SVGID_17_" x="-4" y="1540" width="1440" height="1440"/>
	</defs>
	<clipPath id="SVGID_8_">
		<use xlink:href="#SVGID_17_"  overflow="visible"/>
	</clipPath>
	<g clip-path="url(#SVGID_8_)">
		<polygon fill="#FFAF3C" points="467.797,1472.494 215.561,1303.91 87.605,1543.035 288.102,1677.033 		"/>
		<polygon fill="#FFAF3C" points="750.691,1574.275 899.271,1271.809 640.459,1098.834 436.338,1364.168 		"/>
		<polygon fill="#FFAF3C" points="610.697,966.689 241.613,720 39.418,946.146 461.455,1228.025 		"/>
		<polygon fill="#FFAF3C" points="-85.273,987.461 -192.793,1290.35 49.326,1454.256 168.887,1157.318 		"/>
	</g>
</g>
<g>
	<defs>
		<rect id="SVGID_19_" x="-1544" y="1540" width="1440" height="1440"/>
	</defs>
	<clipPath id="SVGID_10_">
		<use xlink:href="#SVGID_19_"  overflow="visible"/>
	</clipPath>
	<path clip-path="url(#SVGID_10_)" fill="#6EC828" d="M-559.889,1922.038l-35.54-205.425l235.653-39.386l34.684,201.184
		l161.247-27.964l216.621,105.729l186.431-366.368L-24.19,1454.814l-390.579-77.91l23.96,139.633l-229.501,39.062l-40.833-226.427
		l-86.525-17.646l26.382,141.313l-145.311,24.143l-25.147-147.618l-875.386,104.364l114.169,670.118L-559.889,1922.038z
		 M-924.675,1919.566l-162.058,27.406l-23.423-136.383l161.522-28.33L-924.675,1919.566z M-703.385,1574.337l24.713,153.025
		l-139.353,24.337l-26.478-154.619L-703.385,1574.337z M-1376.715,1449.84l365.737-43.043l35.052,207.889l-361.192,63.27
		L-1376.715,1449.84z"/>
</g>
<g>
	<defs>
		<rect id="SVGID_25_" x="-1540" y="-1540" width="1440" height="1440"/>
	</defs>
	<clipPath id="SVGID_12_">
		<use xlink:href="#SVGID_25_"  overflow="visible"/>
	</clipPath>
	<g clip-path="url(#SVGID_12_)">
		<polygon fill="#6EC828" points="8.942,-420.923 -171.616,-130.317 97.379,3.06 235.616,-219.419 		"/>
	</g>
</g>
<g>
	<defs>
		<rect id="SVGID_27_" y="-1540" width="1440" height="1440"/>
	</defs>
	<clipPath id="SVGID_14_">
		<use xlink:href="#SVGID_27_"  overflow="visible"/>
	</clipPath>
	<polygon clip-path="url(#SVGID_14_)" fill="#FFAF3C" points="692.319,250.951 793.189,100.432 715.546,48.405 1225.358,-712.361 
		1300.383,-662.089 1501.827,-962.697 1810.157,-756.074 1608.707,-455.468 1696.064,-396.926 1085.39,514.359 	"/>
</g>
<g>
	<defs>
		<rect id="SVGID_29_" x="1540" y="-1540" width="1440" height="1440"/>
	</defs>
	<clipPath id="SVGID_16_">
		<use xlink:href="#SVGID_29_"  overflow="visible"/>
	</clipPath>
	<g clip-path="url(#SVGID_16_)">
		<polygon fill="#FFAFC8" points="998.261,236.382 1153.154,485.792 1361.518,326.208 1238.395,127.963 		"/>
		<polygon fill="#FFAFC8" points="1529.955,355.686 1793.542,-54.946 1669.832,-254.161 1328.773,31.763 		"/>
		<polygon fill="#FFAFC8" points="789.644,33.587 537.778,240.75 696.712,496.658 982.677,344.422 		"/>
		<polygon fill="#FFAFC8" points="670.115,625.006 896.759,989.965 1165.363,871.499 906.116,454.357 		"/>
		<polygon fill="#FFAFC8" points="1291.77,884.952 1507.609,660.991 1359.757,419.755 1135.691,633.64 		"/>
		<polygon fill="#FFAFC8" points="847.362,-130.7 1005.59,124.064 1465.994,-189.354 1332.342,-404.584 847.368,-130.704 		"/>
	</g>
</g>
<g>
	<defs>
		<rect id="SVGID_35_" width="1440" height="1440"/>
	</defs>
	<clipPath id="SVGID_18_">
		<use xlink:href="#SVGID_35_"  overflow="visible"/>
	</clipPath>
	<g clip-path="url(#SVGID_18_)">
		<polygon fill="#FFAF3C" points="324.896,1861.123 715.854,1793.341 875.867,1500.751 452.621,1336.432 162.313,1523.491 		"/>
		<polygon fill="#FFAF3C" points="-95.775,1331.33 25.416,1512.627 199.553,1475.405 225.62,1445.49 225.26,1252.815 
			59.033,1201.584 		"/>
		<polygon fill="#FFAF3C" points="165.744,822.115 -4.237,879.301 -36.095,1039.399 139.01,1146.5 256.959,984.068 		"/>
		<polygon fill="#FFAF3C" points="239.891,904.566 379.226,1113.881 548.65,1034.772 539.614,875.293 362.109,792.758 		"/>
		<polygon fill="#FFAF3C" points="498.657,1251.201 651.947,1401.565 828.738,1292.889 812.925,1126.749 609.714,1090.548 		"/>
	</g>
	<g clip-path="url(#SVGID_18_)">
		<path fill="#FFAF3C" d="M627.558,658.014L-96.381,227.486c-57.304-34.073-76.3-108.844-42.221-166.143L39.173-237.598
			C73.248-294.9,148.02-313.902,205.319-279.83l723.945,430.535c57.298,34.076,76.299,108.841,42.22,166.144L793.705,615.788
			C759.628,673.091,684.865,692.094,627.558,658.014z"/>
		<polygon fill="#FFAF3C" points="1297.982,368.593 1435.801,694.318 1348.987,730.792 1211.023,405.322 		"/>
	</g>
</g>
<g>
	<defs>
		<rect id="SVGID_37_" x="1540" width="1440" height="1440"/>
	</defs>
	<clipPath id="SVGID_20_">
		<use xlink:href="#SVGID_37_"  overflow="visible"/>
	</clipPath>
	<g clip-path="url(#SVGID_20_)">
		<path fill="#FFAFC8" d="M1420.814,356.596l174.983-655.999c13.848-51.926,67.667-83.073,119.592-69.221l270.885,72.253
			c51.924,13.849,83.077,67.669,69.231,119.591l-174.989,656.004c-13.852,51.921-67.668,83.072-119.591,69.223l-270.886-72.259
			C1438.114,462.338,1406.963,408.525,1420.814,356.596z"/>
	</g>
</g>
</svg>
