<?xml version="1.0" encoding="utf-8"?>
<!-- Generator: Adobe Illustrator 16.0.0, SVG Export Plug-In . SVG Version: 6.00 Build 0)  -->
<!DOCTYPE svg PUBLIC "-//W3C//DTD SVG 1.1//EN" "http://www.w3.org/Graphics/SVG/1.1/DTD/svg11.dtd">
<svg version="1.1" id="Layer_1" xmlns="http://www.w3.org/2000/svg" xmlns:xlink="http://www.w3.org/1999/xlink" x="0px" y="0px"
	 width="1440px" height="1440px" viewBox="0 0 1440 1440" enable-background="new 0 0 1440 1440" xml:space="preserve">
<g>
	<defs>
		<rect id="SVGID_3_" x="-1540" width="1440" height="1440"/>
	</defs>
	<clipPath id="SVGID_2_">
		<use xlink:href="#SVGID_3_"  overflow="visible"/>
	</clipPath>
	<g clip-path="url(#SVGID_2_)">
		<polygon fill="#6EC828" points="-21.106,1911.345 340.843,1717.759 402.938,1378.412 -66.124,1354.534 -290.476,1632.562 		"/>
		<polygon fill="#6EC828" points="-48.601,1255.865 150.792,1353.748 289.126,1189.574 219.613,1031.543 8.28,1062.007 		"/>
	</g>
	<polygon clip-path="url(#SVGID_2_)" fill="#6EC828" points="1101.646,-841.237 929.961,-665.11 1020.814,-576.558 153.087,313.63 
		65.299,228.065 -277.569,579.812 -638.353,228.13 -295.478,-123.614 -397.695,-223.255 641.705,-1289.571 	"/>
</g>
<g>
	<defs>
		<rect id="SVGID_7_" width="1440" height="1440"/>
	</defs>
	<clipPath id="SVGID_4_">
		<use xlink:href="#SVGID_7_"  overflow="visible"/>
	</clipPath>
	<g clip-path="url(#SVGID_4_)">
		<polygon fill="#FFAF3C" points="973.949,653.103 1324.057,887.093 1499.125,561.653 1231.094,382.502 		"/>
		<polygon fill="#FFAF3C" points="767.668,966.318 1112.965,1196.958 1237.309,939.294 894.242,710.023 		"/>
		<polygon fill="#FFAF3C" points="860.174,1126.322 645.008,1602.976 889.379,1766.304 1176.029,1337.417 		"/>
		<polygon fill="#FFAF3C" points="1636.939,1499.691 1702.953,1130.165 1505.732,998.348 1315.754,1282.589 		"/>
	</g>
	<path clip-path="url(#SVGID_4_)" fill="#FFAF3C" d="M102.719-98.518l257.01,25.155l-30.51,294.368l-251.66-24.781L57.9,397.981
		L-139.633,621.87l376.164,343.17l247.861-270.117L705.945,254.14l-174.627-17.329l28.857-286.906l283.828,25.734l49.539-97.521
		l-177.426-14.988l18.979-181.468l184.559,18.541l163.398-1079.684l-837.797-84.157L102.719-98.518z M225.693-533.313l20.59-202.535
		l170.576,16.904l-19.312,202.194L225.693-533.313z M565.143-155.464l-190.871-20.845l16.797-174.42l193.34,19.259L565.143-155.464z
		 M935.348-918.566l-68.932,450.903l-259.785-26.538l43.293-452.134L935.348-918.566z"/>
</g>
<g>
	<defs>
		<rect id="SVGID_9_" x="1540" width="1440" height="1440"/>
	</defs>
	<clipPath id="SVGID_6_">
		<use xlink:href="#SVGID_9_"  overflow="visible"/>
	</clipPath>
	<polygon clip-path="url(#SVGID_6_)" fill="#FFAFC8" points="2193.498,-129.34 2107.125,98.485 2224.645,143.032 1788.102,1294.515 
		1674.547,1251.469 1502.057,1706.463 1035.373,1529.537 1207.871,1074.542 1075.65,1024.414 1598.555,-354.891 	"/>
</g>
<g>
	<defs>
		<rect id="SVGID_25_" x="-1540" y="1540" width="1440" height="1440"/>
	</defs>
	<clipPath id="SVGID_8_">
		<use xlink:href="#SVGID_25_"  overflow="visible"/>
	</clipPath>
	<path clip-path="url(#SVGID_8_)" fill="#6EC828" d="M-807.572,1409.473l24.603,208.363l-238.943,26.828l-23.972-204.049
		L-1209.438,1460l-211.964-117.968l-207.156,358.094l257.384,149.891l388.293,99.419l-16.528-141.612l232.731-26.852l28.789,229.751
		l86.005,22.408l-18.875-143.425l147.328-16.41l17.291,149.707l885.326-57.534l-78.489-679.586L-807.572,1409.473z
		 M-441.132,1431.685l164.33-18.782l16.164,138.324l-163.837,19.736L-441.132,1431.685z M-682.181,1766.642l-16.552-155.113
		l141.355-16.918l18.243,156.802L-682.181,1766.642z M-12.276,1928.16l-369.855,23.478l-23.985-210.803l366.386-44.045
		L-12.276,1928.16z"/>
</g>
<g>
	<defs>
		<rect id="SVGID_27_" y="1540" width="1440" height="1440"/>
	</defs>
	<clipPath id="SVGID_10_">
		<use xlink:href="#SVGID_27_"  overflow="visible"/>
	</clipPath>
	<g clip-path="url(#SVGID_10_)">
		<polygon fill="#FFAF3C" points="857.104,1346.241 467.972,1025.375 53.314,1113.381 245.366,1657.596 666.167,1782.63 		"/>
		<polygon fill="#FFAF3C" points="125.055,1683.788 143.104,1411.449 -108.1,1330.965 -255.208,1483.805 -121.838,1709.74 		"/>
	</g>
</g>
<g>
	<defs>
		<rect id="SVGID_29_" x="1540" y="1540" width="1440" height="1440"/>
	</defs>
	<clipPath id="SVGID_12_">
		<use xlink:href="#SVGID_29_"  overflow="visible"/>
	</clipPath>
</g>
</svg>
