<?xml version="1.0" encoding="utf-8"?>
<!-- Generator: Adobe Illustrator 16.0.0, SVG Export Plug-In . SVG Version: 6.00 Build 0)  -->
<!DOCTYPE svg PUBLIC "-//W3C//DTD SVG 1.1//EN" "http://www.w3.org/Graphics/SVG/1.1/DTD/svg11.dtd">
<svg version="1.1" id="Layer_1" xmlns="http://www.w3.org/2000/svg" xmlns:xlink="http://www.w3.org/1999/xlink" x="0px" y="0px"
	 width="1440px" height="1440px" viewBox="0 0 1440 1440" enable-background="new 0 0 1440 1440" xml:space="preserve">
<rect x="-4" fill="none" width="1440" height="1440"/>
<g>
	<defs>
		<rect id="SVGID_13_" x="-4" width="1444" height="1440"/>
	</defs>
	<clipPath id="SVGID_2_">
		<use xlink:href="#SVGID_13_"  overflow="visible"/>
	</clipPath>
	<g clip-path="url(#SVGID_2_)">
		<polygon fill="#FFEB64" points="297.938,549.725 477.552,580.544 489.283,418.054 346.514,393.561 		"/>
		<polygon fill="#FFEB64" points="-99.609,-64.803 -101.104,249.339 72.914,279.191 125.308,-26.215 		"/>
		<polygon fill="#FFEB64" points="572.354,351.986 490.264,60.44 346.803,35.822 339.074,311.971 		"/>
		<polygon fill="#FFEB64" points="117.836,563.064 110.281,765.344 294.574,796.963 341.686,601.467 		"/>
		<polygon fill="#FFEB64" points="343.219,862.187 606.047,907.283 661.682,733.764 361.195,682.309 		"/>
		<polygon fill="#FFEB64" points="720,680.605 704.916,488.127 531.996,457.406 539.01,649.557 		"/>
		<polygon fill="#FFEB64" points="65.328,468.59 248.803,500.064 292.925,157.17 137.929,130.566 65.329,468.576 		"/>
	</g>
	<g clip-path="url(#SVGID_2_)">
		<polygon fill="#FFEB64" points="1629.171,2058.381 1629.143,2058.36 1629.171,2058.377 1847.914,2174.307 1955.434,1969.952 
			1085.862,1514.811 1085.748,1514.75 1095.166,1498.242 935.51,1415.316 926.021,1431.786 744.975,1336.343 710.127,1402.576 
			709.301,1401.988 431.213,1256.77 316.817,1474.867 1585.727,2139.942 		"/>
		<polygon fill="#FFEB64" points="1585.031,1523.625 812,1065.84 770.984,1144.574 1564.65,1561.129 		"/>
		<polygon fill="#FFEB64" points="1188.031,2014.615 1207.125,1976.51 -131.137,1275.512 -150.237,1313.622 		"/>
	</g>
	<polygon clip-path="url(#SVGID_2_)" fill="#FFEB64" points="2369.041,182.205 2192.449,223.182 2213.585,314.272 1321.041,521.383 
		1300.617,433.367 947.938,515.203 864,153.467 1216.681,71.63 1192.898,-30.862 2262.034,-278.95 	"/>
</g>
<g>
	<defs>
		<rect id="SVGID_15_" x="-1544" width="1440" height="1440"/>
	</defs>
	<clipPath id="SVGID_4_">
		<use xlink:href="#SVGID_15_"  overflow="visible"/>
	</clipPath>
	<g clip-path="url(#SVGID_4_)">
		<polygon fill="#FFAFC8" points="133.422,-894.305 133.41,-894.277 133.426,-894.311 256.748,-1118.604 47.205,-1233.001 
			-437.156,-341.289 -437.223,-341.166 -454.138,-351.166 -542.4,-187.438 -525.527,-177.361 -627.076,8.273 -559.162,45.369 
			-559.781,46.197 -714.334,331.379 -490.683,453.111 217.057,-848.099 		"/>
		<polygon fill="#FFAFC8" points="81.168,-438.961 42.076,-459.296 -703.904,913.036 -664.812,933.388 		"/>
	</g>
	<g clip-path="url(#SVGID_4_)">
		<path fill="#FFAFC8" d="M250.459,1161.411l-610.37,743.339c-48.309,58.842-135.983,67.444-194.816,19.131l-306.954-252.04
			c-58.837-48.311-67.447-135.985-19.141-194.823l610.382-743.34c48.31-58.834,135.979-67.443,194.815-19.132l306.95,252.045
			C290.164,1014.905,298.777,1102.569,250.459,1161.411z"/>
		<polygon fill="#FFAFC8" points="38.866,354.842 430.262,255.194 456.528,359.463 65.396,459.32 		"/>
	</g>
</g>
<g>
	<defs>
		<rect id="SVGID_37_" x="-1540" y="-1540" width="1440" height="1440"/>
	</defs>
	<clipPath id="SVGID_6_">
		<use xlink:href="#SVGID_37_"  overflow="visible"/>
	</clipPath>
	<g clip-path="url(#SVGID_6_)">
		<polygon fill="#FFAFC8" points="-67.951,-1406.92 -67.971,-1406.889 -67.959,-1406.92 29.842,-1649.525 -196.721,-1740.066 
			-579.486,-776.264 -579.533,-776.136 -597.916,-784.222 -667.518,-607.335 -649.174,-599.167 -729.582,-398.432 
			-656.146,-369.088 -656.676,-368.158 -778.729,-59.967 -536.975,36.287 22.525,-1370.226 		"/>
	</g>
</g>
<g>
	<defs>
		<rect id="SVGID_39_" y="-1540" width="1440" height="1440"/>
	</defs>
	<clipPath id="SVGID_8_">
		<use xlink:href="#SVGID_39_"  overflow="visible"/>
	</clipPath>
	<path clip-path="url(#SVGID_8_)" fill="#FFEB64" d="M469.459-579.281l-85.404,167.067l-190.902-98.968l83.73-163.551
		l-131.178-66.984L46.904-934.851l-332.125,162.992l116.664,239.465L70.492-265.298l58.191-113.453l186.295,95.869L222.039-97.84
		l52.75,59.445l57.354-115.964l117.641,61.125L388.129,26.61l686.482,397.81l279.863-544.03L469.459-579.281z M730.695-380.424
		l131.451,67.819l-56.822,110.829L673.76-268.646L730.695-380.424z M384.893-251.481l64.891-123.501l113.451,57.773l-64.473,125.591
		L384.893-251.481z M802.293,201.896L515.789,35.291l87.078-168.575l294.17,149.596L802.293,201.896z"/>
</g>
</svg>
