<?xml version="1.0" encoding="utf-8"?>
<!-- Generator: Adobe Illustrator 16.0.0, SVG Export Plug-In . SVG Version: 6.00 Build 0)  -->
<!DOCTYPE svg PUBLIC "-//W3C//DTD SVG 1.1//EN" "http://www.w3.org/Graphics/SVG/1.1/DTD/svg11.dtd">
<svg version="1.1" id="Layer_1" xmlns="http://www.w3.org/2000/svg" xmlns:xlink="http://www.w3.org/1999/xlink" x="0px" y="0px"
	 width="1440px" height="1440px" viewBox="0 0 1440 1440" enable-background="new 0 0 1440 1440" xml:space="preserve">
<rect x="-4" fill="none" width="1440" height="1440"/>
<g>
	<defs>
		<rect id="SVGID_5_" y="-1540" width="1440" height="1440"/>
	</defs>
	<clipPath id="SVGID_2_">
		<use xlink:href="#SVGID_5_"  overflow="visible"/>
	</clipPath>
	<polygon clip-path="url(#SVGID_2_)" fill="#6EC828" points="1939.243,-892.022 1846.5,-647.396 1972.685,-599.565 
		1503.953,636.828 1382.024,590.609 1196.814,1079.155 695.717,889.181 880.936,400.636 738.963,346.81 1300.427,-1134.204 	"/>
</g>
<g>
	<defs>
		<rect id="SVGID_17_" x="1536" width="1440" height="1440"/>
	</defs>
	<clipPath id="SVGID_4_">
		<use xlink:href="#SVGID_17_"  overflow="visible"/>
	</clipPath>
	<g clip-path="url(#SVGID_4_)">
		<polygon fill="#FFAF3C" points="1419.061,762.975 1353.047,1132.5 1550.268,1264.318 1740.246,980.076 		"/>
		<polygon fill="#FFAF3C" points="1456.518,47.197 1383.762,546.152 1585.225,680.816 1784.117,266.148 		"/>
	</g>
</g>
<g>
	<defs>
		<rect id="SVGID_19_" x="-4" width="1440" height="1440"/>
	</defs>
	<clipPath id="SVGID_6_">
		<use xlink:href="#SVGID_19_"  overflow="visible"/>
	</clipPath>
	<polygon clip-path="url(#SVGID_6_)" fill="#6EC828" points="187.312,2262.318 301.883,2047.288 190.963,1988.196 770.024,901.378 
		877.202,958.479 1106.007,529.037 1546.482,763.724 1317.67,1193.165 1442.465,1259.659 748.845,2561.504 	"/>
	<path clip-path="url(#SVGID_6_)" fill="#6EC828" d="M980.111,382.038l-35.54-205.425l235.653-39.386l34.684,201.184l161.247-27.964
		l216.621,105.729l186.431-366.368L1515.81-85.186l-390.579-77.91l23.96,139.633L919.689,15.6l-40.833-226.427l-86.525-17.646
		L818.713-87.16L673.402-63.018l-25.147-147.618l-875.386,104.364l114.169,670.118L980.111,382.038z M615.325,379.566
		l-162.058,27.406L429.844,270.59l161.522-28.33L615.325,379.566z M836.615,34.337l24.713,153.025l-139.353,24.337L695.497,57.08
		L836.615,34.337z M163.285-90.16l365.737-43.043l35.052,207.889l-361.192,63.27L163.285-90.16z"/>
</g>
<g>
	<defs>
		<rect id="SVGID_21_" x="-1544" width="1440" height="1440"/>
	</defs>
	<clipPath id="SVGID_8_">
		<use xlink:href="#SVGID_21_"  overflow="visible"/>
	</clipPath>
	<g clip-path="url(#SVGID_8_)">
		<path fill="#46B4EB" d="M-501.119,752.744L-228.741,8.037c21.554-58.939,87.43-89.527,146.374-67.969l307.51,112.475
			c58.944,21.559,89.535,87.429,67.974,146.373L20.735,943.609c-21.557,58.947-87.427,89.533-146.365,67.979l-307.52-112.478
			C-492.086,877.553-522.675,811.688-501.119,752.744z"/>
	</g>
</g>
<g>
	<defs>
		<rect id="SVGID_33_" x="-1540" y="-1540" width="1440" height="1440"/>
	</defs>
	<clipPath id="SVGID_10_">
		<use xlink:href="#SVGID_33_"  overflow="visible"/>
	</clipPath>
	<g clip-path="url(#SVGID_10_)">
		<polygon fill="#46B4EB" points="-46.613,37.175 146.401,93.965 180.079,-82.713 26.652,-127.852 		"/>
		<polygon fill="#46B4EB" points="-36.971,385.604 245.456,468.717 328.69,285.564 5.779,190.654 		"/>
		<polygon fill="#46B4EB" points="399.44,234.736 407.561,21.74 221.874,-34.092 204.953,177.517 		"/>
	</g>
</g>
<g>
	<defs>
		<rect id="SVGID_35_" x="1540" y="-1540" width="1440" height="1440"/>
	</defs>
	<clipPath id="SVGID_12_">
		<use xlink:href="#SVGID_35_"  overflow="visible"/>
	</clipPath>
</g>
</svg>
