<?xml version="1.0" encoding="utf-8"?>
<!-- Generator: Adobe Illustrator 16.0.0, SVG Export Plug-In . SVG Version: 6.00 Build 0)  -->
<!DOCTYPE svg PUBLIC "-//W3C//DTD SVG 1.1//EN" "http://www.w3.org/Graphics/SVG/1.1/DTD/svg11.dtd">
<svg version="1.1" id="Layer_1" xmlns="http://www.w3.org/2000/svg" xmlns:xlink="http://www.w3.org/1999/xlink" x="0px" y="0px"
	 width="1440px" height="1440px" viewBox="0 0 1440 1440" enable-background="new 0 0 1440 1440" xml:space="preserve">
<g>
	<defs>
		<rect id="SVGID_1_" x="-4" width="1444" height="1440"/>
	</defs>
	<clipPath id="SVGID_2_">
		<use xlink:href="#SVGID_1_"  overflow="visible"/>
	</clipPath>
	<g clip-path="url(#SVGID_2_)">
		<polygon fill="#46B4EB" points="1295.781,1363.121 1124.486,1425.322 1194.786,1572.287 1330.941,1522.842 		"/>
		<polygon fill="#46B4EB" points="1445.626,1262.32 1351.989,1082.858 1176.232,1146.681 1232.146,1339.845 		"/>
		<polygon fill="#46B4EB" points="1101.667,1114.12 851.012,1205.138 888.636,1383.432 1175.155,1279.283 		"/>
		<polygon fill="#46B4EB" points="864.309,1458.498 972.758,1618.23 1138.188,1559.259 1036.912,1395.814 		"/>
		<polygon fill="#46B4EB" points="1538.038,1318.378 1363.064,1381.922 1494.591,1701.647 1642.412,1647.979 1538.044,1318.392 		
			"/>
	</g>
	<g clip-path="url(#SVGID_2_)">
		<polygon fill="#46B4EB" points="-94.692,-256.743 -94.68,-256.721 -94.693,-256.741 -200.92,-412.65 -346.045,-313.132 
			78.272,302.802 78.329,302.884 66.111,310.664 144.244,423.318 156.497,415.592 244.598,544.29 291.635,512.035 291.981,512.725 
			427.797,709.474 582.442,603.136 -36.412,-296.274 		"/>
		<polygon fill="#46B4EB" points="-255.056,119.399 103.252,702.793 158.888,664.303 -227.984,101.364 		"/>
		<polygon fill="#46B4EB" points="187.095,-70.411 160.68,-51.514 813.509,896.767 839.932,877.87 		"/>
	</g>
	<polygon clip-path="url(#SVGID_2_)" fill="#46B4EB" points="-891.254,1361.795 -714.662,1320.818 -735.799,1229.728 
		156.746,1022.617 177.17,1110.633 529.849,1028.797 613.787,1390.534 261.106,1472.37 284.889,1574.862 -784.247,1822.95 	"/>
	<g clip-path="url(#SVGID_2_)">
		<path fill="#46B4EB" d="M996.049,44.578l310.239-637.432c24.551-50.455,85.926-71.642,136.379-47.086l263.219,128.107
			c50.452,24.554,71.644,85.928,47.09,136.382L1442.74,261.982c-24.557,50.456-85.932,71.643-136.384,47.089l-263.219-128.107
			C992.682,156.407,971.495,95.036,996.049,44.578z"/>
		<polygon fill="#46B4EB" points="1285.894,586.548 1022.38,725.019 985.688,654.77 1248.974,516.188 		"/>
	</g>
</g>
<g>
	<defs>
		<rect id="SVGID_3_" x="1540" width="1440" height="1440"/>
	</defs>
	<clipPath id="SVGID_4_">
		<use xlink:href="#SVGID_3_"  overflow="visible"/>
	</clipPath>
	<g clip-path="url(#SVGID_4_)">
		<polygon fill="#6EC828" points="1955.185,1155.347 1955.175,1155.376 1955.188,1155.34 2044.643,915.521 1820.711,832.755 
			1470.933,1785.336 1470.885,1785.467 1452.697,1778.029 1389.139,1952.836 1407.294,1960.355 1333.772,2158.767 1406.351,2185.61 
			1405.858,2186.519 1294.343,2491.116 1533.298,2579.091 2044.642,1188.922 		"/>
		<polygon fill="#6EC828" points="1412.911,1272.43 1047.461,2126.407 1133.683,2157.879 1454.099,1288.286 		"/>
	</g>
	<g clip-path="url(#SVGID_4_)">
		<path fill="#6EC828" d="M968.04,135.139l922.187-273.269c72.993-21.636,150.413,20.399,172.039,93.393l112.847,380.801
			c21.631,72.993-20.398,150.417-93.388,172.05l-922.197,273.263c-72.99,21.628-150.408-20.398-172.039-93.39L874.648,307.182
			C853.018,234.185,895.039,156.769,968.04,135.139z"/>
		<polygon fill="#6EC828" points="691.003,921.634 311.047,784.69 347.761,683.627 727.616,820.248 		"/>
	</g>
</g>
<g>
	<defs>
		<rect id="SVGID_23_" y="1540" width="1440" height="1440"/>
	</defs>
	<clipPath id="SVGID_6_">
		<use xlink:href="#SVGID_23_"  overflow="visible"/>
	</clipPath>
	<polygon clip-path="url(#SVGID_6_)" fill="#46B4EB" points="-0.212,1063.919 86.3,1228.336 171.11,1183.71 608.371,2014.737 
		526.42,2057.858 699.198,2386.225 362.394,2563.441 189.616,2235.071 94.19,2285.279 -429.583,1289.839 	"/>
	<g clip-path="url(#SVGID_6_)">
		<polygon fill="#46B4EB" points="723.421,2724.983 761.757,2739.637 1305.935,1390.414 1267.597,1375.745 		"/>
	</g>
</g>
<g>
	<defs>
		<rect id="SVGID_25_" x="1540" y="1540" width="1440" height="1440"/>
	</defs>
	<clipPath id="SVGID_8_">
		<use xlink:href="#SVGID_25_"  overflow="visible"/>
	</clipPath>
</g>
</svg>
