<?xml version="1.0" encoding="utf-8"?>
<!-- Generator: Adobe Illustrator 16.0.0, SVG Export Plug-In . SVG Version: 6.00 Build 0)  -->
<!DOCTYPE svg PUBLIC "-//W3C//DTD SVG 1.1//EN" "http://www.w3.org/Graphics/SVG/1.1/DTD/svg11.dtd">
<svg version="1.1" id="Layer_1" xmlns="http://www.w3.org/2000/svg" xmlns:xlink="http://www.w3.org/1999/xlink" x="0px" y="0px"
	 width="1440px" height="1440px" viewBox="0 0 1440 1440" enable-background="new 0 0 1440 1440" xml:space="preserve">
<rect x="-4" fill="none" width="1440" height="1440"/>
<g>
	<defs>
		<rect id="SVGID_5_" x="-1540" y="-1540" width="1440" height="1440"/>
	</defs>
	<clipPath id="SVGID_2_">
		<use xlink:href="#SVGID_5_"  overflow="visible"/>
	</clipPath>
	<polygon clip-path="url(#SVGID_2_)" fill="#6EC828" points="399.243,-892.022 306.5,-647.396 432.685,-599.565 -36.047,636.828 
		-157.976,590.609 -343.186,1079.155 -844.283,889.181 -659.064,400.636 -801.037,346.81 -239.573,-1134.204 	"/>
</g>
<g>
	<defs>
		<rect id="SVGID_15_" x="1536" width="1440" height="1440"/>
	</defs>
	<clipPath id="SVGID_4_">
		<use xlink:href="#SVGID_15_"  overflow="visible"/>
	</clipPath>
	<polygon clip-path="url(#SVGID_4_)" fill="#FFAFC8" points="947.684,1835.738 1040.432,1607.935 922.924,1560.102 
		1391.676,408.729 1505.219,454.95 1690.436,0 2157.076,189.98 1971.85,644.931 2104.06,698.759 1542.572,2077.931 	"/>
</g>
<g>
	<defs>
		<rect id="SVGID_17_" x="-4" width="1440" height="1440"/>
	</defs>
	<clipPath id="SVGID_6_">
		<use xlink:href="#SVGID_17_"  overflow="visible"/>
	</clipPath>
	<g clip-path="url(#SVGID_6_)">
		<polygon fill="#FFAF3C" points="467.797,-67.506 215.561,-236.09 87.605,3.035 288.102,137.033 		"/>
		<polygon fill="#FFAF3C" points="542.051,1609.562 191.943,1375.572 16.875,1701.014 284.906,1880.164 		"/>
		<polygon fill="#FFAF3C" points="748.332,1296.348 403.035,1065.707 278.691,1323.371 621.758,1552.643 		"/>
		<polygon fill="#FFAF3C" points="655.826,1136.344 870.992,659.689 626.621,496.361 339.971,925.25 		"/>
		<polygon fill="#FFAF3C" points="-120.939,762.975 -186.953,1132.5 10.268,1264.318 200.246,980.076 		"/>
		<polygon fill="#FFAF3C" points="-83.482,47.197 -156.238,546.152 45.225,680.816 244.117,266.148 		"/>
		<polygon fill="#FFAF3C" points="750.691,34.275 899.271,-268.191 640.459,-441.166 436.338,-175.832 		"/>
		<polygon fill="#FFAF3C" points="766.51,213.52 508.846,41.32 209.381,532.805 427.031,678.289 766.5,213.529 		"/>
	</g>
	<path clip-path="url(#SVGID_6_)" fill="#FFAF3C" d="M1857.981,902.804l-242.873,87.748l-98.97-278.906l237.882-85.786
		l-68.964-190.62l82.132-287.054L1280.047,0l-107.706,350.425l-10.601,493.217l165.124-59.405l97.255,271.458l-267.337,98.751
		l-2.815,109.348l166.644-62.725l60.857,172.008l-174.611,62.582l316.505,1045.104L2316,2196.669L1857.981,902.804z
		 M1933.816,1348.246l68.456,191.723l-161.282,58.051l-69.464-190.867L1933.816,1348.246z M1464.921,1152.968l181.302-63.214
		l59.798,164.709l-182.849,65.707L1464.921,1152.968z M1458.629,2001.105l-131.555-436.759l245.973-87.692l155.234,426.852
		L1458.629,2001.105z"/>
</g>
<g>
	<defs>
		<rect id="SVGID_19_" x="-1544" width="1440" height="1440"/>
	</defs>
	<clipPath id="SVGID_8_">
		<use xlink:href="#SVGID_19_"  overflow="visible"/>
	</clipPath>
	<polygon clip-path="url(#SVGID_8_)" fill="#6EC828" points="-1352.688,2262.318 -1238.117,2047.288 -1349.037,1988.196 
		-769.976,901.378 -662.798,958.479 -433.993,529.037 6.482,763.724 -222.33,1193.165 -97.535,1259.659 -791.155,2561.504 	"/>
	<path clip-path="url(#SVGID_8_)" fill="#6EC828" d="M-559.889,382.038l-35.54-205.425l235.653-39.386l34.684,201.184
		l161.247-27.964L52.776,416.176L239.207,49.808L-24.19-85.186l-390.579-77.91l23.96,139.633L-620.311,15.6l-40.833-226.427
		l-86.525-17.646l26.382,141.313l-145.311,24.143l-25.147-147.618l-875.386,104.364l114.169,670.118L-559.889,382.038z
		 M-924.675,379.566l-162.058,27.406l-23.423-136.383l161.522-28.33L-924.675,379.566z M-703.385,34.337l24.713,153.025
		l-139.353,24.337L-844.503,57.08L-703.385,34.337z M-1376.715-90.16l365.737-43.043l35.052,207.889l-361.192,63.27L-1376.715-90.16
		z"/>
</g>
<g>
	<defs>
		<rect id="SVGID_35_" y="-1540" width="1440" height="1440"/>
	</defs>
	<clipPath id="SVGID_10_">
		<use xlink:href="#SVGID_35_"  overflow="visible"/>
	</clipPath>
	<g clip-path="url(#SVGID_10_)">
		<polygon fill="#FFAF3C" points="324.896,321.123 715.854,253.341 875.867,-39.249 452.621,-203.568 162.313,-16.509 		"/>
	</g>
</g>
<g>
	<defs>
		<rect id="SVGID_37_" x="1540" y="-1540" width="1440" height="1440"/>
	</defs>
	<clipPath id="SVGID_12_">
		<use xlink:href="#SVGID_37_"  overflow="visible"/>
	</clipPath>
</g>
</svg>
