<?xml version="1.0" encoding="utf-8"?>
<!-- Generator: Adobe Illustrator 16.0.0, SVG Export Plug-In . SVG Version: 6.00 Build 0)  -->
<!DOCTYPE svg PUBLIC "-//W3C//DTD SVG 1.1//EN" "http://www.w3.org/Graphics/SVG/1.1/DTD/svg11.dtd">
<svg version="1.1" id="Layer_1" xmlns="http://www.w3.org/2000/svg" xmlns:xlink="http://www.w3.org/1999/xlink" x="0px" y="0px"
	 width="1440px" height="1440px" viewBox="0 0 1440 1440" enable-background="new 0 0 1440 1440" xml:space="preserve">
<g>
	<defs>
		<rect id="SVGID_7_" x="-1540" y="-3080" width="1440" height="1440"/>
	</defs>
	<clipPath id="SVGID_2_">
		<use xlink:href="#SVGID_7_"  overflow="visible"/>
	</clipPath>
	<g clip-path="url(#SVGID_2_)">
	</g>
</g>
<g>
	<defs>
		<rect id="SVGID_13_" x="1536" y="1540" width="1444" height="1440"/>
	</defs>
	<clipPath id="SVGID_4_">
		<use xlink:href="#SVGID_13_"  overflow="visible"/>
	</clipPath>
	<g clip-path="url(#SVGID_4_)">
		<polygon fill="#FFEB64" points="1387.097,1187.738 1636.409,1230.51 1652.881,1009.139 1462.009,976.394 		"/>
		<polygon fill="#FFEB64" points="1350.51,1410.031 1596.365,1452.137 1601.576,1280.365 1357.288,1238.457 		"/>
	</g>
</g>
<g>
	<defs>
		<rect id="SVGID_15_" x="-4" y="1540" width="1440" height="1440"/>
	</defs>
	<clipPath id="SVGID_6_">
		<use xlink:href="#SVGID_15_"  overflow="visible"/>
	</clipPath>
	<g clip-path="url(#SVGID_6_)">
		<polygon fill="#FFAFC8" points="1673.422,645.695 1673.41,645.723 1673.426,645.689 1796.748,421.396 1587.205,306.999 
			1102.844,1198.711 1102.777,1198.834 1085.862,1188.834 997.6,1352.562 1014.473,1362.639 912.924,1548.273 980.838,1585.369 
			980.219,1586.197 825.666,1871.379 1049.317,1993.111 1757.057,691.901 		"/>
		<polygon fill="#FFAFC8" points="1119.895,682.815 634.344,1474.693 715.084,1518.349 1158.346,704.482 		"/>
		<polygon fill="#FFAFC8" points="1621.168,1101.039 1582.076,1080.704 836.096,2453.036 875.188,2473.388 		"/>
	</g>
</g>
<g>
	<defs>
		<rect id="SVGID_17_" x="-1544" y="1540" width="1440" height="1440"/>
	</defs>
	<clipPath id="SVGID_8_">
		<use xlink:href="#SVGID_17_"  overflow="visible"/>
	</clipPath>
</g>
<g>
	<defs>
		<rect id="SVGID_27_" x="-1540" y="-1540" width="1440" height="1440"/>
	</defs>
	<clipPath id="SVGID_10_">
		<use xlink:href="#SVGID_27_"  overflow="visible"/>
	</clipPath>
	<polygon clip-path="url(#SVGID_10_)" fill="#FFAF3C" points="-847.681,250.951 -746.811,100.432 -824.454,48.405 
		-314.642,-712.361 -239.617,-662.089 -38.173,-962.697 270.157,-756.074 68.707,-455.468 156.064,-396.926 -454.61,514.359 	"/>
</g>
<g>
	<defs>
		<rect id="SVGID_29_" y="-1540" width="1440" height="1440"/>
	</defs>
	<clipPath id="SVGID_12_">
		<use xlink:href="#SVGID_29_"  overflow="visible"/>
	</clipPath>
	<g clip-path="url(#SVGID_12_)">
		<polygon fill="#FFAFC8" points="-10.045,355.686 253.542,-54.946 129.832,-254.161 -211.227,31.763 		"/>
	</g>
	<g clip-path="url(#SVGID_12_)">
		<polygon fill="#FFAFC8" points="854.096,-174.417 1192.25,176.596 1600.053,137.893 1475.762,-405.783 1085.586,-572.28 		"/>
	</g>
</g>
<g>
	<defs>
		<rect id="SVGID_31_" x="1540" y="-1540" width="1440" height="1440"/>
	</defs>
	<clipPath id="SVGID_14_">
		<use xlink:href="#SVGID_31_"  overflow="visible"/>
	</clipPath>
</g>
<g>
	<defs>
		<rect id="SVGID_37_" width="1440" height="1440"/>
	</defs>
	<clipPath id="SVGID_16_">
		<use xlink:href="#SVGID_37_"  overflow="visible"/>
	</clipPath>
	<g clip-path="url(#SVGID_16_)">
		<polygon fill="#FFAFC8" points="1472.049,133.08 1472.029,133.111 1472.041,133.08 1569.842,-109.525 1343.279,-200.066 
			960.514,763.736 960.467,763.864 942.084,755.778 872.482,932.665 890.826,940.833 810.418,1141.568 883.854,1170.912 
			883.324,1171.842 761.271,1480.033 1003.025,1576.287 1562.525,169.774 		"/>
		<polygon fill="#FFAFC8" points="914.936,238.213 518.795,1100.852 606.039,1135.301 956.592,255.509 		"/>
		<polygon fill="#FFAFC8" points="1474.516,601.465 1432.373,585.589 842.746,2068.922 884.885,2084.807 		"/>
	</g>
	<g clip-path="url(#SVGID_16_)">
		<path fill="#FFAFC8" d="M-119.186,356.596L55.798-299.403c13.848-51.926,67.667-83.073,119.592-69.221l270.885,72.253
			c51.924,13.849,83.077,67.669,69.231,119.591L340.517,479.224c-13.852,51.921-67.668,83.072-119.591,69.223L-49.96,476.188
			C-101.886,462.338-133.037,408.525-119.186,356.596z"/>
		<polygon fill="#FFAFC8" points="252.469,813.034 30.096,991.435 -17.251,932.111 204.893,753.653 		"/>
	</g>
</g>
<g>
	<defs>
		<rect id="SVGID_39_" x="1540" width="1440" height="1440"/>
	</defs>
	<clipPath id="SVGID_18_">
		<use xlink:href="#SVGID_39_"  overflow="visible"/>
	</clipPath>
	<path clip-path="url(#SVGID_18_)" fill="#FFEB64" d="M2009.459,960.719l-85.404,167.067l-190.902-98.968l83.73-163.551
		l-131.178-66.984l-98.801-193.134l-332.125,162.992l116.664,239.465l239.049,267.096l58.191-113.453l186.295,95.869
		l-92.939,185.042l52.75,59.445l57.354-115.964l117.641,61.125l-61.654,119.844l686.482,397.81l279.863-544.03L2009.459,960.719z
		 M2270.695,1159.576l131.451,67.819l-56.822,110.829l-131.564-66.871L2270.695,1159.576z M1924.893,1288.519l64.891-123.501
		l113.451,57.773l-64.473,125.591L1924.893,1288.519z M2342.293,1741.896l-286.504-166.605l87.078-168.575l294.17,149.596
		L2342.293,1741.896z"/>
</g>
</svg>
