<?xml version="1.0" encoding="utf-8"?>
<!-- Generator: Adobe Illustrator 16.0.0, SVG Export Plug-In . SVG Version: 6.00 Build 0)  -->
<!DOCTYPE svg PUBLIC "-//W3C//DTD SVG 1.1//EN" "http://www.w3.org/Graphics/SVG/1.1/DTD/svg11.dtd">
<svg version="1.1" id="Layer_1" xmlns="http://www.w3.org/2000/svg" xmlns:xlink="http://www.w3.org/1999/xlink" x="0px" y="0px"
	 width="1440px" height="1440px" viewBox="0 0 1440 1440" enable-background="new 0 0 1440 1440" xml:space="preserve">
<g>
	<defs>
		<rect id="SVGID_7_" x="-1540" y="-1540" width="1440" height="1440"/>
	</defs>
	<clipPath id="SVGID_2_">
		<use xlink:href="#SVGID_7_"  overflow="visible"/>
	</clipPath>
	<g clip-path="url(#SVGID_2_)">
		<polygon fill="#FFAF3C" points="59.482,675.469 132.238,176.513 -69.225,41.849 -268.117,456.517 		"/>
		<polygon fill="#FFAF3C" points="61.273,1275.206 168.793,972.316 -73.326,808.41 -192.887,1105.348 		"/>
	</g>
</g>
<g>
	<defs>
		<rect id="SVGID_9_" y="-1540" width="1440" height="1440"/>
	</defs>
	<clipPath id="SVGID_4_">
		<use xlink:href="#SVGID_9_"  overflow="visible"/>
	</clipPath>
	<polygon clip-path="url(#SVGID_4_)" fill="#FFAFC8" points="653.498,-1669.34 567.125,-1441.515 684.645,-1396.968 
		248.102,-245.485 134.547,-288.531 -37.943,166.463 -504.627,-10.463 -332.129,-465.458 -464.35,-515.586 58.555,-1894.891 	"/>
	<path clip-path="url(#SVGID_4_)" fill="#FFAFC8" d="M797.535-574.151l189.316,87.305L885.561-270.457l-185.338-85.604
		L631.75-207.42L421.77-89.049L617.65,272.356L878.27,132.073l285.785-277.396l-128.57-59.506l98.066-211.139l209.611,94.864
		l63.629-61.233l-131.328-58.465l62.576-133.35l135.82,63.059l410.803-780.022l-616.566-286.249L797.535-574.151z M1006.568-873.115
		l69.393-148.992l125.59,58.103l-68.328,149.075L1006.568-873.115z M1165.262-495.004l-140.025-66.484l59.037-128.555
		l142.338,65.937L1165.262-495.004z M1649.854-978.783L1477.76-653.208l-191.068-89.104l152.861-333.312L1649.854-978.783z"/>
</g>
<g>
	<defs>
		<rect id="SVGID_11_" x="1540" y="-1540" width="1440" height="1440"/>
	</defs>
	<clipPath id="SVGID_6_">
		<use xlink:href="#SVGID_11_"  overflow="visible"/>
	</clipPath>
</g>
<g>
	<defs>
		<rect id="SVGID_27_" x="-1540" width="1440" height="1440"/>
	</defs>
	<clipPath id="SVGID_8_">
		<use xlink:href="#SVGID_27_"  overflow="visible"/>
	</clipPath>
	<polygon clip-path="url(#SVGID_8_)" fill="#FFAF3C" points="-847.681,1790.951 -746.811,1640.432 -824.454,1588.405 
		-314.642,827.639 -239.617,877.911 -38.173,577.303 270.157,783.926 68.707,1084.532 156.064,1143.074 -454.61,2054.359 	"/>
</g>
<g>
	<defs>
		<rect id="SVGID_29_" width="1440" height="1440"/>
	</defs>
	<clipPath id="SVGID_10_">
		<use xlink:href="#SVGID_29_"  overflow="visible"/>
	</clipPath>
	<g clip-path="url(#SVGID_10_)">
		<polygon fill="#FFAFC8" points="63.283,268.719 278.279,614.896 562.68,398.085 398.084,133.044 		"/>
		<polygon fill="#FFAFC8" points="-243.723,462.279 -31.625,803.582 180.957,626.227 -29.707,287.015 		"/>
		<polygon fill="#FFAFC8" points="309.115,1279.86 515.021,980.591 393.909,785.581 112.854,960.127 		"/>
		<polygon fill="#FFAFC8" points="-10.045,1895.686 253.542,1485.054 129.832,1285.839 -211.227,1571.763 		"/>
	</g>
	<g clip-path="url(#SVGID_10_)">
		<polygon fill="#FFAFC8" points="854.096,1365.583 1192.25,1716.596 1600.053,1677.893 1475.762,1134.217 1085.586,967.72 		"/>
		<polygon fill="#FFAFC8" points="1103.341,572.874 1002.374,820.985 1160.141,972.488 1208.52,978.407 1404.259,845.37 
			1341.916,641.005 		"/>
	</g>
	<g clip-path="url(#SVGID_10_)">
		<polygon fill="#FFAFC8" points="945.305,107.808 945.34,107.785 945.313,107.813 720,311.799 910.9,521.379 1799.975,-291.927 
			1800.088,-292.036 1815.205,-274.26 1977.697,-423.851 1962.664,-441.695 2148.559,-610.74 2086.682,-678.668 2087.709,-679.375 
			2371.643,-939.613 2167.762,-1162.877 869.339,23.55 		"/>
	</g>
</g>
<g>
	<defs>
		<rect id="SVGID_31_" x="1540" width="1440" height="1440"/>
	</defs>
	<clipPath id="SVGID_12_">
		<use xlink:href="#SVGID_31_"  overflow="visible"/>
	</clipPath>
	<g clip-path="url(#SVGID_12_)">
		<path fill="#FFEB64" d="M849.086,219.664l1131.717-419.771c89.578-33.228,190.051,12.888,223.281,102.465l173.34,467.323
			c33.223,89.577-12.883,190.056-102.457,223.281L1143.24,1012.73c-89.58,33.226-190.053-12.883-223.279-102.457L746.625,442.947
			C713.395,353.368,759.502,252.891,849.086,219.664z"/>
		<polygon fill="#FFEB64" points="568.375,1227.785 81.1,1088.279 118.564,958.637 605.695,1097.746 		"/>
	</g>
</g>
<g>
	<defs>
		<rect id="SVGID_37_" y="1540" width="1440" height="1440"/>
	</defs>
	<clipPath id="SVGID_14_">
		<use xlink:href="#SVGID_37_"  overflow="visible"/>
	</clipPath>
	<g clip-path="url(#SVGID_14_)">
		<polygon fill="#FFAFC8" points="1472.049,1673.08 1472.029,1673.111 1472.041,1673.08 1569.842,1430.475 1343.279,1339.934 
			960.514,2303.736 960.467,2303.864 942.084,2295.778 872.482,2472.665 890.826,2480.833 810.418,2681.568 883.854,2710.912 
			883.324,2711.842 761.271,3020.033 1003.025,3116.287 1562.525,1709.774 		"/>
	</g>
	<g clip-path="url(#SVGID_14_)">
		<path fill="#FFAFC8" d="M-119.186,1896.596l174.983-655.999c13.848-51.926,67.667-83.073,119.592-69.221l270.885,72.253
			c51.924,13.849,83.077,67.669,69.231,119.591l-174.989,656.004c-13.852,51.921-67.668,83.072-119.591,69.223l-270.886-72.259
			C-101.886,2002.338-133.037,1948.525-119.186,1896.596z"/>
	</g>
</g>
<g>
	<defs>
		<rect id="SVGID_39_" x="1540" y="1540" width="1440" height="1440"/>
	</defs>
	<clipPath id="SVGID_16_">
		<use xlink:href="#SVGID_39_"  overflow="visible"/>
	</clipPath>
</g>
</svg>
