<?xml version="1.0" encoding="utf-8"?>
<!-- Generator: Adobe Illustrator 16.0.0, SVG Export Plug-In . SVG Version: 6.00 Build 0)  -->
<!DOCTYPE svg PUBLIC "-//W3C//DTD SVG 1.1//EN" "http://www.w3.org/Graphics/SVG/1.1/DTD/svg11.dtd">
<svg version="1.1" id="Layer_1" xmlns="http://www.w3.org/2000/svg" xmlns:xlink="http://www.w3.org/1999/xlink" x="0px" y="0px"
	 width="1440px" height="1440px" viewBox="0 0 1440 1440" enable-background="new 0 0 1440 1440" xml:space="preserve">
<g>
	<defs>
		<rect id="SVGID_1_" x="-1544" y="-1540" width="1444" height="1440"/>
	</defs>
	<clipPath id="SVGID_2_">
		<use xlink:href="#SVGID_1_"  overflow="visible"/>
	</clipPath>
	<g clip-path="url(#SVGID_2_)">
		<polygon fill="#46B4EB" points="594.226,383.341 356.465,469.685 451.813,670.147 633.843,604.043 		"/>
		<polygon fill="#46B4EB" points="515.896,172.115 281.467,257.324 362.027,409.121 594.998,324.517 		"/>
		<polygon fill="#46B4EB" points="405.537,160.028 251.224,-113.604 85.267,-53.336 191.039,237.922 		"/>
		<polygon fill="#46B4EB" points="-51.384,403.411 104.073,566.739 238.011,518.103 167.913,325.07 		"/>
		<polygon fill="#46B4EB" points="-1.962,-221.622 -176.936,-158.078 -45.409,161.647 102.412,107.979 -1.956,-221.608 		"/>
	</g>
</g>
<g>
	<defs>
		<rect id="SVGID_3_" y="-1540" width="1440" height="1440"/>
	</defs>
	<clipPath id="SVGID_4_">
		<use xlink:href="#SVGID_3_"  overflow="visible"/>
	</clipPath>
	<g clip-path="url(#SVGID_4_)">
		<polygon fill="#6EC828" points="1518.894,371.345 1880.843,177.759 1942.938,-161.588 1473.876,-185.466 1249.524,92.562 		"/>
		<polygon fill="#6EC828" points="933.615,-12.316 1111.542,126.375 1270.477,33.245 1286.354,-4.606 1223.407,-193.724 
			1043.507,-190.033 		"/>
	</g>
	<g clip-path="url(#SVGID_4_)">
		<polygon fill="#6EC828" points="415.185,-384.653 415.175,-384.624 415.188,-384.66 504.643,-624.479 280.711,-707.245 
			-69.067,245.336 -69.115,245.467 -87.303,238.029 -150.861,412.836 -132.706,420.355 -206.228,618.767 -133.649,645.61 
			-134.142,646.519 -245.657,951.116 -6.702,1039.091 504.642,-351.078 		"/>
		<polygon fill="#6EC828" points="429.587,73.452 387.956,59.008 -150.897,1525.098 -109.265,1539.559 		"/>
	</g>
</g>
<g>
	<defs>
		<rect id="SVGID_5_" y="1540" width="1440" height="1440"/>
	</defs>
	<clipPath id="SVGID_6_">
		<use xlink:href="#SVGID_5_"  overflow="visible"/>
	</clipPath>
	<g clip-path="url(#SVGID_6_)">
	</g>
	<path clip-path="url(#SVGID_6_)" fill="#6EC828" d="M1868.703,1720.93l27.443-222.165l254.422,32.904l-27.002,217.538
		l174.409,21.468l189.678,176.095l305.647-318.438l-228.634-220.727l-377.109-201.674l-18.853,150.948l-247.994-31.311
		l28.536-245.394l-83.424-45.071l-16.885,153.424l-156.84-20.434l20.121-159.527L780.173,843.256l-91.329,724.17L1868.703,1720.93z
		 M1494.617,1604.812l-175.062-22.289l18.396-147.448l174.792,21.179L1494.617,1604.812z M1829.511,1318.95l-22.255,164.949
		l-150.78-18.385l20.934-167.123L1829.511,1318.95z M1176.354,981.376l389.229,69.639l-28.702,224.543l-390.862-47.447
		L1176.354,981.376z"/>
</g>
<g>
	<defs>
		<rect id="SVGID_7_" x="1540" y="-1540" width="1440" height="1440"/>
	</defs>
	<clipPath id="SVGID_8_">
		<use xlink:href="#SVGID_7_"  overflow="visible"/>
	</clipPath>
</g>
<g>
	<defs>
		<rect id="SVGID_23_" x="-1540" width="1440" height="1440"/>
	</defs>
	<clipPath id="SVGID_10_">
		<use xlink:href="#SVGID_23_"  overflow="visible"/>
	</clipPath>
	<g clip-path="url(#SVGID_10_)">
		<polygon fill="#46B4EB" points="-308.237,1518.607 56.754,734.201 -22.601,702.401 -346.121,1502.651 		"/>
	</g>
</g>
<g>
	<defs>
		<rect id="SVGID_25_" width="1440" height="1440"/>
	</defs>
	<clipPath id="SVGID_12_">
		<use xlink:href="#SVGID_25_"  overflow="visible"/>
	</clipPath>
	<g clip-path="url(#SVGID_12_)">
		<polygon fill="#6EC828" points="189.14,1224.626 59.056,1433.995 256.68,1531.45 360.077,1365.022 		"/>
		<polygon fill="#6EC828" points="1548.942,1119.077 1368.384,1409.683 1637.379,1543.06 1775.616,1320.581 		"/>
		<polygon fill="#6EC828" points="1289.043,960.023 1111.074,1246.636 1323.659,1340.654 1500.573,1055.894 		"/>
		<polygon fill="#6EC828" points="1161.612,1039.46 768.757,877.605 642.727,1080.443 998.723,1301.632 		"/>
		<polygon fill="#6EC828" points="879.392,1680.279 1181.232,1723.911 1282.949,1560.212 1047.011,1413.611 		"/>
		<polygon fill="#6EC828" points="297.157,1669.181 704.281,1714.789 808.193,1547.57 466.112,1397.257 		"/>
		<polygon fill="#6EC828" points="264.155,992.163 14.536,879.678 -118.935,1094.501 102.025,1253.096 		"/>
		<polygon fill="#6EC828" points="409.277,974.481 276.399,1188.36 683.58,1418.266 795.839,1237.601 409.285,974.49 		"/>
	</g>
	<path clip-path="url(#SVGID_12_)" fill="#6EC828" d="M732.428-130.527l24.603,208.363l-238.943,26.828L494.116-99.385L330.562-80
		L118.598-197.968L-88.558,160.126l257.384,149.891l388.293,99.419l-16.528-141.612l232.731-26.852l28.789,229.751l86.005,22.408
		l-18.875-143.425l147.328-16.41l17.291,149.707l885.326-57.534l-78.489-679.586L732.428-130.527z M1098.868-108.315l164.33-18.782
		l16.164,138.324l-163.837,19.736L1098.868-108.315z M857.819,226.642L841.267,71.529L982.622,54.61l18.243,156.802L857.819,226.642
		z M1527.724,388.16l-369.855,23.478l-23.985-210.803l366.386-44.045L1527.724,388.16z"/>
</g>
<g>
	<defs>
		<rect id="SVGID_27_" x="1540" width="1440" height="1440"/>
	</defs>
	<clipPath id="SVGID_14_">
		<use xlink:href="#SVGID_27_"  overflow="visible"/>
	</clipPath>
	<g clip-path="url(#SVGID_14_)">
		<polygon fill="#FFAF3C" points="1545.086,680.38 1631.545,372.685 1414.954,274.814 1268.649,415.598 1336.064,655.119 		"/>
		<polygon fill="#FFAF3C" points="1665.055,143.788 1683.104,-128.551 1431.9,-209.035 1284.792,-56.195 1418.162,169.74 		"/>
	</g>
</g>
<g>
	<defs>
		<rect id="SVGID_33_" x="-1540" y="1540" width="1440" height="1440"/>
	</defs>
	<clipPath id="SVGID_16_">
		<use xlink:href="#SVGID_33_"  overflow="visible"/>
	</clipPath>
</g>
<g>
	<defs>
		<rect id="SVGID_35_" x="1540" y="1540" width="1440" height="1440"/>
	</defs>
	<clipPath id="SVGID_18_">
		<use xlink:href="#SVGID_35_"  overflow="visible"/>
	</clipPath>
	<g clip-path="url(#SVGID_18_)">
		<path fill="#FFAF3C" d="M2167.558,2198.014l-723.939-430.527c-57.304-34.073-76.3-108.844-42.221-166.143l177.775-298.941
			c34.075-57.303,108.847-76.305,166.146-42.232l723.945,430.535c57.298,34.076,76.299,108.841,42.22,166.144l-177.779,298.939
			C2299.628,2213.091,2224.865,2232.094,2167.558,2198.014z"/>
	</g>
</g>
</svg>
