<?xml version="1.0" encoding="utf-8"?>
<!-- Generator: Adobe Illustrator 16.0.0, SVG Export Plug-In . SVG Version: 6.00 Build 0)  -->
<!DOCTYPE svg PUBLIC "-//W3C//DTD SVG 1.1//EN" "http://www.w3.org/Graphics/SVG/1.1/DTD/svg11.dtd">
<svg version="1.1" id="Layer_1" xmlns="http://www.w3.org/2000/svg" xmlns:xlink="http://www.w3.org/1999/xlink" x="0px" y="0px"
	 width="1440px" height="1440px" viewBox="0 0 1440 1440" enable-background="new 0 0 1440 1440" xml:space="preserve">
<rect x="-4" fill="none" width="1440" height="1440"/>
<g>
	<defs>
		<rect id="SVGID_5_" x="1540" y="-1540" width="1440" height="1440"/>
	</defs>
	<clipPath id="SVGID_2_">
		<use xlink:href="#SVGID_5_"  overflow="visible"/>
	</clipPath>
</g>
<g>
	<defs>
		<rect id="SVGID_19_" x="1536" width="1440" height="1440"/>
	</defs>
	<clipPath id="SVGID_4_">
		<use xlink:href="#SVGID_19_"  overflow="visible"/>
	</clipPath>
	<path clip-path="url(#SVGID_4_)" fill="#6EC828" d="M2520.111,382.038l-35.54-205.425l235.653-39.386l34.684,201.184
		l161.247-27.964l216.621,105.729l186.431-366.368L3055.81-85.186l-390.579-77.91l23.96,139.633L2459.689,15.6l-40.833-226.427
		l-86.525-17.646l26.382,141.313l-145.311,24.143l-25.147-147.618l-875.386,104.364l114.169,670.118L2520.111,382.038z
		 M2155.325,379.566l-162.058,27.406l-23.423-136.383l161.522-28.33L2155.325,379.566z M2376.615,34.337l24.713,153.025
		l-139.353,24.337L2235.497,57.08L2376.615,34.337z M1703.285-90.16l365.737-43.043l35.052,207.889l-361.192,63.27L1703.285-90.16z"
		/>
</g>
<g>
	<defs>
		<rect id="SVGID_21_" x="-4" width="1440" height="1440"/>
	</defs>
	<clipPath id="SVGID_6_">
		<use xlink:href="#SVGID_21_"  overflow="visible"/>
	</clipPath>
	<g clip-path="url(#SVGID_6_)">
		<polygon fill="#46B4EB" points="705.802,1596.082 863.884,1296.881 749.845,1036.338 418.274,1236.32 393.161,1529.781 		"/>
		<polygon fill="#46B4EB" points="128.909,1603.783 314.46,1616.51 380.126,1479.58 373.524,1446.389 243.3,1346.178 
			122.06,1431.654 		"/>
		<polygon fill="#46B4EB" points="-78.413,1161.791 -128.438,1306.326 -37.001,1411.301 126.579,1348.957 78.45,1184.666 		"/>
		<polygon fill="#46B4EB" points="15.894,1154.732 229.802,1169.828 264.745,1014.238 152.401,937.186 4.153,1013.957 		"/>
		<polygon fill="#46B4EB" points="384.755,1160.812 566.153,1135.756 584.983,959.775 464.606,883.83 334.228,1002.1 		"/>
	</g>
	<g clip-path="url(#SVGID_6_)">
		<polygon fill="#46B4EB" points="667.922,62.971 675.938,-140.713 494.027,-130.055 487.66,31.846 		"/>
		<polygon fill="#46B4EB" points="44.307,593.355 392.908,549.26 400.674,351.926 54.346,338.299 		"/>
		<polygon fill="#46B4EB" points="408.658,-212.559 97.289,-79.053 90.883,83.633 398.254,51.98 		"/>
		<polygon fill="#46B4EB" points="708.939,260.762 934.377,239.68 942.598,30.688 718.93,6.918 		"/>
		<polygon fill="#46B4EB" points="611.814,332.756 619.994,124.695 233.303,125.707 226.377,301.471 611.807,332.756 		"/>
	</g>
	<g clip-path="url(#SVGID_6_)">
		<path fill="#46B4EB" d="M1038.881,752.744L1311.259,8.037c21.554-58.939,87.43-89.527,146.374-67.969l307.51,112.475
			c58.944,21.559,89.535,87.429,67.974,146.373l-272.381,744.693c-21.557,58.947-87.427,89.533-146.365,67.979l-307.52-112.478
			C1047.914,877.553,1017.325,811.688,1038.881,752.744z"/>
		<polygon fill="#46B4EB" points="1423.292,1322.672 1145.909,1506.844 1097.053,1432.866 1374.184,1248.596 		"/>
	</g>
</g>
<g>
	<defs>
		<rect id="SVGID_33_" y="-1540" width="1440" height="1440"/>
	</defs>
	<clipPath id="SVGID_8_">
		<use xlink:href="#SVGID_33_"  overflow="visible"/>
	</clipPath>
	<g clip-path="url(#SVGID_8_)">
		<polygon fill="#46B4EB" points="1294.181,28.729 1259.991,249.582 1458.037,307.852 1534.735,99.514 		"/>
	</g>
	<path clip-path="url(#SVGID_8_)" fill="#46B4EB" d="M641.935,154.113L748.974,20.426l152.501,123.546L796.581,274.818
		l104.979,83.979l52.862,190.818l326.877-84.735l-60.328-235.517L1056.299-53.342l-72.861,90.746L834.482-82.514l117.077-148.375
		l-36.249-62.838l-72.569,93.148l-93.953-76.253l77.129-95.826L285.219-854.396L-64.905-419.393L641.935,154.113z M444.895-71.652
		l-105.073-84.773l71.157-88.652l105.346,83.941L444.895-71.652z M777.741-123.428l-80.696,98.494l-90.827-72.484l80.708-100.447
		L777.741-123.428z M487.817-605.434l225.56,201.571L604.563-269.137L369.035-456.908L487.817-605.434z"/>
</g>
</svg>
