<?xml version="1.0" encoding="utf-8"?>
<!-- Generator: Adobe Illustrator 16.0.0, SVG Export Plug-In . SVG Version: 6.00 Build 0)  -->
<!DOCTYPE svg PUBLIC "-//W3C//DTD SVG 1.1//EN" "http://www.w3.org/Graphics/SVG/1.1/DTD/svg11.dtd">
<svg version="1.1" id="Layer_1" xmlns="http://www.w3.org/2000/svg" xmlns:xlink="http://www.w3.org/1999/xlink" x="0px" y="0px"
	 width="1440px" height="1440px" viewBox="0 0 1440 1440" enable-background="new 0 0 1440 1440" xml:space="preserve">
<g>
	<defs>
		<rect id="SVGID_9_" x="-1540" width="1440" height="1440"/>
	</defs>
	<clipPath id="SVGID_2_">
		<use xlink:href="#SVGID_9_"  overflow="visible"/>
	</clipPath>
	<path clip-path="url(#SVGID_2_)" fill="#FFAFC8" d="M-742.465,965.849l189.316,87.305l-101.291,216.389l-185.338-85.604
		l-68.473,148.641l-209.98,118.371l195.881,361.405l260.619-140.283l285.785-277.396l-128.57-59.506l98.066-211.139l209.611,94.864
		l63.629-61.233l-131.328-58.465l62.576-133.35l135.82,63.059l410.803-780.022L-271.904-37.363L-742.465,965.849z M-533.432,666.885
		l69.393-148.992l125.59,58.103l-68.328,149.075L-533.432,666.885z M-374.738,1044.996l-140.025-66.484l59.037-128.555
		l142.338,65.937L-374.738,1044.996z M109.854,561.217L-62.24,886.792l-191.068-89.104l152.861-333.312L109.854,561.217z"/>
</g>
<g>
	<defs>
		<rect id="SVGID_11_" width="1440" height="1440"/>
	</defs>
	<clipPath id="SVGID_4_">
		<use xlink:href="#SVGID_11_"  overflow="visible"/>
	</clipPath>
	<g clip-path="url(#SVGID_4_)">
		<polygon fill="#FFEB64" points="1066.198,-100.083 908.115,199.118 1022.154,459.661 1353.726,259.679 1378.839,-33.781 		"/>
		<polygon fill="#FFEB64" points="1643.091,-107.783 1457.54,-120.509 1391.875,16.42 1398.475,49.61 1528.699,149.821 
			1649.94,64.345 		"/>
		<polygon fill="#FFEB64" points="1387.244,335.188 1205.846,360.244 1187.017,536.225 1307.394,612.17 1437.772,493.899 		"/>
	</g>
	<g clip-path="url(#SVGID_4_)">
		<polygon fill="#FFEB64" points="1326.721,895.823 1315.602,1178.535 1563.5,1164.569 1572.02,948.122 		"/>
		<polygon fill="#FFEB64" points="1074.873,887.624 1063.982,1166.405 1255.234,1147.172 1266.135,870.151 		"/>
		<polygon fill="#FFEB64" points="1015.693,996.797 667.092,1040.893 659.326,1238.226 1005.654,1251.853 		"/>
		<polygon fill="#FFEB64" points="1074.523,1572.858 1309.385,1480.932 1315.65,1321.674 1086.123,1312.643 		"/>
		<polygon fill="#FFEB64" points="351.061,1329.39 125.623,1350.472 117.402,1559.464 341.07,1583.233 		"/>
		<polygon fill="#FFEB64" points="448.186,1257.396 440.006,1465.456 826.697,1464.445 833.623,1288.681 448.193,1257.396 		"/>
	</g>
	<g clip-path="url(#SVGID_4_)">
		<path fill="#FFEB64" d="M645.321,486.596l-428.601,667.141c-33.918,52.803-104.887,68.249-157.692,34.326l-275.481-176.982
			c-52.805-33.925-68.254-104.889-34.328-157.694l428.6-667.128c33.924-52.808,104.888-68.253,157.688-34.336l275.49,176.988
			C663.793,362.832,679.243,433.792,645.321,486.596z"/>
	</g>
</g>
<g>
	<defs>
		<rect id="SVGID_29_" x="-1540" y="1540" width="1440" height="1440"/>
	</defs>
	<clipPath id="SVGID_6_">
		<use xlink:href="#SVGID_29_"  overflow="visible"/>
	</clipPath>
	<g clip-path="url(#SVGID_6_)">
		<polygon fill="#FFAFC8" points="-594.695,1647.808 -594.66,1647.785 -594.687,1647.813 -820,1851.799 -629.1,2061.379 
			259.975,1248.073 260.088,1247.964 275.205,1265.74 437.697,1116.149 422.664,1098.305 608.559,929.26 546.682,861.332 
			547.709,860.625 831.643,600.387 627.762,377.123 -670.661,1563.55 		"/>
		<polygon fill="#FFAFC8" points="41.008,1820.544 892.742,1119.77 819.025,1039.497 6.239,1781.331 		"/>
		<polygon fill="#FFAFC8" points="-359.652,1156.939 -323.658,1194.914 1045.23,-56.533 1009.24,-94.515 		"/>
	</g>
</g>
<g>
	<defs>
		<rect id="SVGID_31_" y="1540" width="1440" height="1440"/>
	</defs>
	<clipPath id="SVGID_8_">
		<use xlink:href="#SVGID_31_"  overflow="visible"/>
	</clipPath>
	<path clip-path="url(#SVGID_8_)" fill="#FFEB64" d="M1168.619,2295.108l191.82,181.552l-209.312,218.646l-187.742-177.898
		l-142.449,150.64l-300.02,56.927l88.555,513.193l369.684-62.692l455.488-217.059l-130.188-123.552l203.312-213.647l213.113,198.853
		l101.203-47.697l-133.914-123.421l129.172-134.674l137.445,130.758l809.347-769.625l-623.952-593.576L1168.619,2295.108z
		 M1540.732,2021.048l143.695-150.688l127.18,120.661L1669.15,2142.24L1540.732,2021.048z M1577.881,2539.211l-141.109-136.571
		l122.992-130.359l144.102,136.854L1577.881,2539.211z M2355.666,2155.068L2017.1,2476.046L1823.9,2291.627l318.625-338.066
		L2355.666,2155.068z"/>
	<g clip-path="url(#SVGID_8_)">
		<path fill="#FFEB64" d="M-690.914,1759.664l1131.717-419.771c89.578-33.228,190.051,12.888,223.281,102.465l173.34,467.323
			c33.223,89.577-12.883,190.056-102.457,223.281L-396.76,2552.73c-89.58,33.226-190.053-12.883-223.279-102.457l-173.336-467.326
			C-826.605,1893.368-780.498,1792.891-690.914,1759.664z"/>
	</g>
</g>
</svg>
