<?xml version="1.0" encoding="utf-8"?>
<!-- Generator: Adobe Illustrator 16.0.0, SVG Export Plug-In . SVG Version: 6.00 Build 0)  -->
<!DOCTYPE svg PUBLIC "-//W3C//DTD SVG 1.1//EN" "http://www.w3.org/Graphics/SVG/1.1/DTD/svg11.dtd">
<svg version="1.1" id="Layer_1" xmlns="http://www.w3.org/2000/svg" xmlns:xlink="http://www.w3.org/1999/xlink" x="0px" y="0px"
	 width="1440px" height="1440px" viewBox="0 0 1440 1440" enable-background="new 0 0 1440 1440" xml:space="preserve">
<g>
	<defs>
		<rect id="SVGID_1_" x="-4" y="-1540" width="1444" height="1440"/>
	</defs>
	<clipPath id="SVGID_2_">
		<use xlink:href="#SVGID_1_"  overflow="visible"/>
	</clipPath>
	<g clip-path="url(#SVGID_2_)">
		<polygon fill="#46B4EB" points="1295.781,-176.879 1124.486,-114.678 1194.786,32.287 1330.941,-17.158 		"/>
		<polygon fill="#46B4EB" points="1155.349,130.829 1371.08,343.427 1507.899,293.749 1377.82,50.033 		"/>
		<polygon fill="#46B4EB" points="864.309,-81.502 972.758,78.23 1138.188,19.259 1036.912,-144.186 		"/>
		<polygon fill="#46B4EB" points="1538.038,-221.622 1363.064,-158.078 1494.591,161.647 1642.412,107.979 1538.044,-221.608 		"/>
	</g>
	<polygon clip-path="url(#SVGID_2_)" fill="#46B4EB" points="-891.254,-178.205 -714.662,-219.182 -735.799,-310.272 
		156.746,-517.383 177.17,-429.367 529.849,-511.203 613.787,-149.466 261.106,-67.63 284.889,34.862 -784.247,282.95 	"/>
</g>
<g>
	<defs>
		<rect id="SVGID_3_" x="1540" y="-1540" width="1440" height="1440"/>
	</defs>
	<clipPath id="SVGID_4_">
		<use xlink:href="#SVGID_3_"  overflow="visible"/>
	</clipPath>
	<g clip-path="url(#SVGID_4_)">
		<polygon fill="#6EC828" points="1955.185,-384.653 1955.175,-384.624 1955.188,-384.66 2044.643,-624.479 1820.711,-707.245 
			1470.933,245.336 1470.885,245.467 1452.697,238.029 1389.139,412.836 1407.294,420.355 1333.772,618.767 1406.351,645.61 
			1405.858,646.519 1294.343,951.116 1533.298,1039.091 2044.642,-351.078 		"/>
		<polygon fill="#6EC828" points="1412.911,-267.57 1047.461,586.407 1133.683,617.879 1454.099,-251.714 		"/>
		<polygon fill="#6EC828" points="1969.587,73.452 1927.956,59.008 1389.103,1525.098 1430.735,1539.559 		"/>
	</g>
</g>
<g>
	<defs>
		<rect id="SVGID_5_" x="1540" y="1540" width="1440" height="1440"/>
	</defs>
	<clipPath id="SVGID_6_">
		<use xlink:href="#SVGID_5_"  overflow="visible"/>
	</clipPath>
	<g clip-path="url(#SVGID_6_)">
		<polygon fill="#6EC828" points="1233.318,1348.401 1098.191,1089.418 844.555,1181.521 925.242,1460.276 		"/>
		<polygon fill="#6EC828" points="736.95,1134.531 375.229,1265.881 429.522,1523.178 842.999,1372.879 		"/>
		<polygon fill="#6EC828" points="1366.68,1429.3 1114.175,1520.999 1303.98,1982.397 1517.3,1904.947 1366.686,1429.318 		"/>
	</g>
</g>
<g>
	<defs>
		<rect id="SVGID_23_" width="1440" height="1440"/>
	</defs>
	<clipPath id="SVGID_8_">
		<use xlink:href="#SVGID_23_"  overflow="visible"/>
	</clipPath>
	<polygon clip-path="url(#SVGID_8_)" fill="#46B4EB" points="-0.212,-476.081 86.3,-311.664 171.11,-356.29 608.371,474.737 
		526.42,517.858 699.198,846.225 362.394,1023.441 189.616,695.071 94.19,745.279 -429.583,-250.161 	"/>
	<g clip-path="url(#SVGID_8_)">
		<polygon fill="#46B4EB" points="723.538,1611.873 723.548,1611.846 723.536,1611.879 633.3,1832.543 839.367,1916.088 
			1192.627,1039.432 1192.677,1039.314 1209.392,1046.765 1273.633,885.872 1256.95,878.344 1331.152,695.767 1264.362,668.675 
			1264.847,667.838 1377.5,387.513 1157.599,298.68 641.232,1578.021 		"/>
		<polygon fill="#46B4EB" points="1231.763,1518.607 1596.754,734.201 1517.399,702.401 1193.879,1502.651 		"/>
		<polygon fill="#46B4EB" points="723.421,1184.983 761.757,1199.637 1305.935,-149.586 1267.597,-164.255 		"/>
	</g>
</g>
<g>
	<defs>
		<rect id="SVGID_25_" x="1540" width="1440" height="1440"/>
	</defs>
	<clipPath id="SVGID_10_">
		<use xlink:href="#SVGID_25_"  overflow="visible"/>
	</clipPath>
	<g clip-path="url(#SVGID_10_)">
		<polygon fill="#6EC828" points="1804.155,992.163 1554.536,879.678 1421.065,1094.501 1642.025,1253.096 		"/>
		<polygon fill="#6EC828" points="1314.564,1122.24 1124.206,1428.592 1313.297,1586.678 1530.801,1236.377 		"/>
	</g>
</g>
<g>
	<defs>
		<rect id="SVGID_33_" y="1540" width="1440" height="1440"/>
	</defs>
	<clipPath id="SVGID_12_">
		<use xlink:href="#SVGID_33_"  overflow="visible"/>
	</clipPath>
	<g clip-path="url(#SVGID_12_)">
		<polygon fill="#46B4EB" points="-8.809,1769.259 -8.785,1769.251 -8.815,1769.261 -210.978,1819.378 -163.667,2007.796 
			636.791,1805 636.9,1804.974 640.262,1820.604 786.865,1782.968 783.572,1767.319 950.606,1725.528 935.283,1664.451 
			936.12,1664.363 1191.922,1599.297 1141.208,1398.395 -27.364,1693.754 		"/>
		<polygon fill="#46B4EB" points="292.229,1549.091 301.658,1583.688 1533.859,1271.918 1524.441,1237.314 		"/>
	</g>
</g>
</svg>
