<?xml version="1.0" encoding="utf-8"?>
<!-- Generator: Adobe Illustrator 16.0.0, SVG Export Plug-In . SVG Version: 6.00 Build 0)  -->
<!DOCTYPE svg PUBLIC "-//W3C//DTD SVG 1.1//EN" "http://www.w3.org/Graphics/SVG/1.1/DTD/svg11.dtd">
<svg version="1.1" id="Layer_1" xmlns="http://www.w3.org/2000/svg" xmlns:xlink="http://www.w3.org/1999/xlink" x="0px" y="0px"
	 width="1440px" height="1440px" viewBox="0 0 1440 1440" enable-background="new 0 0 1440 1440" xml:space="preserve">
<g>
	<defs>
		<rect id="SVGID_13_" x="-4" y="1540" width="1444" height="1440"/>
	</defs>
	<clipPath id="SVGID_2_">
		<use xlink:href="#SVGID_13_"  overflow="visible"/>
	</clipPath>
	<g clip-path="url(#SVGID_2_)">
		<polygon fill="#FFEB64" points="-152.903,1187.738 96.409,1230.51 112.881,1009.139 -77.991,976.394 		"/>
		<polygon fill="#FFEB64" points="-189.49,1410.031 56.365,1452.137 61.576,1280.365 -182.712,1238.457 		"/>
		<polygon fill="#FFEB64" points="417.875,1490.111 363.734,1271.223 223.293,1247.127 188.566,1449.535 		"/>
	</g>
	<polygon clip-path="url(#SVGID_2_)" fill="#FFEB64" points="2369.041,1722.205 2192.449,1763.182 2213.585,1854.272 
		1321.041,2061.383 1300.617,1973.367 947.938,2055.203 864,1693.467 1216.681,1611.63 1192.898,1509.138 2262.034,1261.05 	"/>
</g>
<g>
	<defs>
		<rect id="SVGID_15_" x="-1544" y="1540" width="1440" height="1440"/>
	</defs>
	<clipPath id="SVGID_4_">
		<use xlink:href="#SVGID_15_"  overflow="visible"/>
	</clipPath>
	<g clip-path="url(#SVGID_4_)">
		<polygon fill="#FFAFC8" points="133.422,645.695 133.41,645.723 133.426,645.689 256.748,421.396 47.205,306.999 
			-437.156,1198.711 -437.223,1198.834 -454.138,1188.834 -542.4,1352.562 -525.527,1362.639 -627.076,1548.273 -559.162,1585.369 
			-559.781,1586.197 -714.334,1871.379 -490.683,1993.111 217.057,691.901 		"/>
		<polygon fill="#FFAFC8" points="81.168,1101.039 42.076,1080.704 -703.904,2453.036 -664.812,2473.388 		"/>
	</g>
</g>
<g>
	<defs>
		<rect id="SVGID_29_" x="-1540" y="-1540" width="1440" height="1440"/>
	</defs>
	<clipPath id="SVGID_6_">
		<use xlink:href="#SVGID_29_"  overflow="visible"/>
	</clipPath>
	<g clip-path="url(#SVGID_6_)">
		<polygon fill="#FFAFC8" points="-685.904,-174.417 -347.75,176.596 60.053,137.893 -64.238,-405.783 -454.414,-572.28 		"/>
	</g>
</g>
<g>
	<defs>
		<rect id="SVGID_31_" y="-1540" width="1440" height="1440"/>
	</defs>
	<clipPath id="SVGID_8_">
		<use xlink:href="#SVGID_31_"  overflow="visible"/>
	</clipPath>
	<path clip-path="url(#SVGID_8_)" fill="#FFEB64" d="M1168.619-784.892l191.82,181.552l-209.312,218.646L963.385-562.593
		l-142.449,150.64l-300.02,56.927l88.555,513.193l369.684-62.692l455.488-217.059l-130.188-123.552l203.312-213.647l213.113,198.853
		l101.203-47.697L1688.17-431.049l129.172-134.674l137.445,130.758l809.347-769.625l-623.952-593.576L1168.619-784.892z
		 M1540.732-1058.952l143.695-150.688l127.18,120.661L1669.15-937.76L1540.732-1058.952z M1577.881-540.789L1436.771-677.36
		l122.992-130.359l144.102,136.854L1577.881-540.789z M2355.666-924.932L2017.1-603.954L1823.9-788.373l318.625-338.066
		L2355.666-924.932z"/>
</g>
<g>
	<defs>
		<rect id="SVGID_37_" x="-1540" width="1440" height="1440"/>
	</defs>
	<clipPath id="SVGID_10_">
		<use xlink:href="#SVGID_37_"  overflow="visible"/>
	</clipPath>
	<g clip-path="url(#SVGID_10_)">
		<polygon fill="#FFAFC8" points="-67.951,133.08 -67.971,133.111 -67.959,133.08 29.842,-109.525 -196.721,-200.066 
			-579.486,763.736 -579.533,763.864 -597.916,755.778 -667.518,932.665 -649.174,940.833 -729.582,1141.568 -656.146,1170.912 
			-656.676,1171.842 -778.729,1480.033 -536.975,1576.287 22.525,169.774 		"/>
	</g>
</g>
<g>
	<defs>
		<rect id="SVGID_39_" width="1440" height="1440"/>
	</defs>
	<clipPath id="SVGID_12_">
		<use xlink:href="#SVGID_39_"  overflow="visible"/>
	</clipPath>
	<polygon clip-path="url(#SVGID_12_)" fill="#FFEB64" points="763.395,-594.083 912.16,-398.25 1013.18,-474.985 1765.066,514.801 
		1667.459,588.948 1964.562,980.054 1563.414,1284.784 1266.309,893.676 1152.65,980.016 251.998,-205.6 	"/>
	<path clip-path="url(#SVGID_12_)" fill="#FFEB64" d="M469.459,960.719l-85.404,167.067l-190.902-98.968l83.73-163.551
		l-131.178-66.984L46.904,605.149l-332.125,162.992l116.664,239.465l239.049,267.096l58.191-113.453l186.295,95.869l-92.939,185.042
		l52.75,59.445l57.354-115.964l117.641,61.125l-61.654,119.844l686.482,397.81l279.863-544.03L469.459,960.719z M730.695,1159.576
		l131.451,67.819l-56.822,110.829l-131.564-66.871L730.695,1159.576z M384.893,1288.519l64.891-123.501l113.451,57.773
		l-64.473,125.591L384.893,1288.519z M802.293,1741.896l-286.504-166.605l87.078-168.575l294.17,149.596L802.293,1741.896z"/>
</g>
</svg>
