<?xml version="1.0" encoding="utf-8"?>
<!-- Generator: Adobe Illustrator 16.0.0, SVG Export Plug-In . SVG Version: 6.00 Build 0)  -->
<!DOCTYPE svg PUBLIC "-//W3C//DTD SVG 1.1//EN" "http://www.w3.org/Graphics/SVG/1.1/DTD/svg11.dtd">
<svg version="1.1" id="Layer_1" xmlns="http://www.w3.org/2000/svg" xmlns:xlink="http://www.w3.org/1999/xlink" x="0px" y="0px"
	 width="1440px" height="1440px" viewBox="0 0 1440 1440" enable-background="new 0 0 1440 1440" xml:space="preserve">
<g>
	<defs>
		<rect id="SVGID_9_" x="-1540" y="-1540" width="1440" height="1440"/>
	</defs>
	<clipPath id="SVGID_2_">
		<use xlink:href="#SVGID_9_"  overflow="visible"/>
	</clipPath>
	<path clip-path="url(#SVGID_2_)" fill="#FFAFC8" d="M-742.465-574.151l189.316,87.305l-101.291,216.389l-185.338-85.604
		L-908.25-207.42l-209.98,118.371l195.881,361.405l260.619-140.283l285.785-277.396l-128.57-59.506l98.066-211.139l209.611,94.864
		l63.629-61.233l-131.328-58.465l62.576-133.35l135.82,63.059l410.803-780.022l-616.566-286.249L-742.465-574.151z
		 M-533.432-873.115l69.393-148.992l125.59,58.103l-68.328,149.075L-533.432-873.115z M-374.738-495.004l-140.025-66.484
		l59.037-128.555l142.338,65.937L-374.738-495.004z M109.854-978.783L-62.24-653.208l-191.068-89.104l152.861-333.312
		L109.854-978.783z"/>
</g>
<g>
	<defs>
		<rect id="SVGID_11_" y="-1540" width="1440" height="1440"/>
	</defs>
	<clipPath id="SVGID_4_">
		<use xlink:href="#SVGID_11_"  overflow="visible"/>
	</clipPath>
	<g clip-path="url(#SVGID_4_)">
		<polygon fill="#FFEB64" points="392.078,-12.819 384.062,190.864 565.973,180.207 572.34,18.306 		"/>
		<polygon fill="#FFEB64" points="1074.523,32.858 1309.385,-59.068 1315.65,-218.326 1086.123,-227.357 		"/>
		<polygon fill="#FFEB64" points="651.342,262.71 962.711,129.205 969.117,-33.481 661.746,-1.829 		"/>
		<polygon fill="#FFEB64" points="351.061,-210.61 125.623,-189.528 117.402,19.464 341.07,43.233 		"/>
		<polygon fill="#FFEB64" points="52.158,82.906 40.424,380.949 240.965,417.378 254.262,76.644 		"/>
		<polygon fill="#FFEB64" points="308.406,474.31 519.672,429.549 528.551,233.306 316.48,269.073 		"/>
	</g>
</g>
<g>
	<defs>
		<rect id="SVGID_29_" x="-1540" width="1440" height="1440"/>
	</defs>
	<clipPath id="SVGID_6_">
		<use xlink:href="#SVGID_29_"  overflow="visible"/>
	</clipPath>
	<g clip-path="url(#SVGID_6_)">
		<polygon fill="#FFAFC8" points="-685.904,1365.583 -347.75,1716.596 60.053,1677.893 -64.238,1134.217 -454.414,967.72 		"/>
		<polygon fill="#FFAFC8" points="261.389,488.261 86.176,354.731 -98.613,432.565 -86.984,684.43 159.459,692.561 		"/>
		<polygon fill="#FFAFC8" points="228.576,620.457 111.602,906.316 308.734,1024.183 464.734,905.178 426.464,667.788 		"/>
		<polygon fill="#FFAFC8" points="54.156,1122.358 6.756,1381.825 239.041,1486.822 397.147,1356.339 294.047,1124.705 		"/>
	</g>
	<g clip-path="url(#SVGID_6_)">
		<polygon fill="#FFAFC8" points="-594.695,107.808 -594.66,107.785 -594.687,107.813 -820,311.799 -629.1,521.379 
			259.975,-291.927 260.088,-292.036 275.205,-274.26 437.697,-423.851 422.664,-441.695 608.559,-610.74 546.682,-678.668 
			547.709,-679.375 831.643,-939.613 627.762,-1162.877 -670.661,23.55 		"/>
		<polygon fill="#FFAFC8" points="41.008,280.544 892.742,-420.23 819.025,-500.503 6.239,241.331 		"/>
	</g>
</g>
<g>
	<defs>
		<rect id="SVGID_31_" width="1440" height="1440"/>
	</defs>
	<clipPath id="SVGID_8_">
		<use xlink:href="#SVGID_31_"  overflow="visible"/>
	</clipPath>
	<path clip-path="url(#SVGID_8_)" fill="#FFEB64" d="M1168.619,755.108l191.82,181.552l-209.312,218.646L963.385,977.407
		l-142.449,150.64l-300.02,56.927l88.555,513.193l369.684-62.692l455.488-217.059l-130.188-123.552l203.312-213.647l213.113,198.853
		l101.203-47.697l-133.914-123.421l129.172-134.674l137.445,130.758l809.347-769.625l-623.952-593.576L1168.619,755.108z
		 M1540.732,481.048l143.695-150.688l127.18,120.661L1669.15,602.24L1540.732,481.048z M1577.881,999.211L1436.771,862.64
		l122.992-130.359l144.102,136.854L1577.881,999.211z M2355.666,615.068L2017.1,936.046L1823.9,751.627l318.625-338.066
		L2355.666,615.068z"/>
	<g clip-path="url(#SVGID_8_)">
		<path fill="#FFEB64" d="M-690.914,219.664L440.803-200.107c89.578-33.228,190.051,12.888,223.281,102.465l173.34,467.323
			c33.223,89.577-12.883,190.056-102.457,223.281L-396.76,1012.73c-89.58,33.226-190.053-12.883-223.279-102.457l-173.336-467.326
			C-826.605,353.368-780.498,252.891-690.914,219.664z"/>
	</g>
</g>
<g>
	<defs>
		<rect id="SVGID_37_" x="-1540" y="1540" width="1440" height="1440"/>
	</defs>
	<clipPath id="SVGID_10_">
		<use xlink:href="#SVGID_37_"  overflow="visible"/>
	</clipPath>
	<g clip-path="url(#SVGID_10_)">
		<polygon fill="#FFAFC8" points="-67.951,1673.08 -67.971,1673.111 -67.959,1673.08 29.842,1430.475 -196.721,1339.934 
			-579.486,2303.736 -579.533,2303.864 -597.916,2295.778 -667.518,2472.665 -649.174,2480.833 -729.582,2681.568 
			-656.146,2710.912 -656.676,2711.842 -778.729,3020.033 -536.975,3116.287 22.525,1709.774 		"/>
	</g>
</g>
<g>
	<defs>
		<rect id="SVGID_39_" y="1540" width="1440" height="1440"/>
	</defs>
	<clipPath id="SVGID_12_">
		<use xlink:href="#SVGID_39_"  overflow="visible"/>
	</clipPath>
	<polygon clip-path="url(#SVGID_12_)" fill="#FFEB64" points="763.395,945.917 912.16,1141.75 1013.18,1065.015 1765.066,2054.801 
		1667.459,2128.948 1964.562,2520.054 1563.414,2824.784 1266.309,2433.676 1152.65,2520.016 251.998,1334.4 	"/>
</g>
</svg>
