<?xml version="1.0" encoding="utf-8"?>
<!-- Generator: Adobe Illustrator 16.0.0, SVG Export Plug-In . SVG Version: 6.00 Build 0)  -->
<!DOCTYPE svg PUBLIC "-//W3C//DTD SVG 1.1//EN" "http://www.w3.org/Graphics/SVG/1.1/DTD/svg11.dtd">
<svg version="1.1" id="Layer_1" xmlns="http://www.w3.org/2000/svg" xmlns:xlink="http://www.w3.org/1999/xlink" x="0px" y="0px"
	 width="1440px" height="1440px" viewBox="0 0 1440 1440" enable-background="new 0 0 1440 1440" xml:space="preserve">
<g>
	<defs>
		<rect id="SVGID_3_" x="-1540" y="-1540" width="1440" height="1440"/>
	</defs>
	<clipPath id="SVGID_2_">
		<use xlink:href="#SVGID_3_"  overflow="visible"/>
	</clipPath>
	<g clip-path="url(#SVGID_2_)">
		<polygon fill="#6EC828" points="-21.106,371.345 340.843,177.759 402.938,-161.588 -66.124,-185.466 -290.476,92.562 		"/>
	</g>
</g>
<g>
	<defs>
		<rect id="SVGID_5_" x="-1540" y="1540" width="1440" height="1440"/>
	</defs>
	<clipPath id="SVGID_4_">
		<use xlink:href="#SVGID_5_"  overflow="visible"/>
	</clipPath>
	<path clip-path="url(#SVGID_4_)" fill="#6EC828" d="M328.703,1720.93l27.443-222.165l254.422,32.904l-27.002,217.538
		l174.409,21.468l189.678,176.095l305.647-318.438l-228.634-220.727l-377.109-201.674l-18.853,150.948l-247.994-31.311
		l28.536-245.394l-83.424-45.071l-16.885,153.424l-156.84-20.434l20.121-159.527l-932.047-165.312l-91.329,724.17L328.703,1720.93z
		 M-45.383,1604.812l-175.062-22.289l18.396-147.448l174.792,21.179L-45.383,1604.812z M289.511,1318.95l-22.255,164.949
		l-150.78-18.385l20.934-167.123L289.511,1318.95z M-363.646,981.376l389.229,69.639L-3.12,1275.558l-390.862-47.447
		L-363.646,981.376z"/>
</g>
<g>
	<defs>
		<rect id="SVGID_7_" y="-1540" width="1440" height="1440"/>
	</defs>
	<clipPath id="SVGID_6_">
		<use xlink:href="#SVGID_7_"  overflow="visible"/>
	</clipPath>
	<g clip-path="url(#SVGID_6_)">
		<polygon fill="#FFAF3C" points="1048.203,790.172 1300.439,958.755 1428.395,719.63 1227.898,585.633 		"/>
		<polygon fill="#FFAF3C" points="860.174,-413.678 645.008,62.976 889.379,226.304 1176.029,-202.583 		"/>
		<polygon fill="#FFAF3C" points="1599.482,675.469 1672.238,176.513 1470.775,41.849 1271.883,456.517 		"/>
		<polygon fill="#FFAF3C" points="765.309,688.39 616.729,990.857 875.541,1163.831 1079.662,898.499 		"/>
		<polygon fill="#FFAF3C" points="905.303,1295.976 1274.387,1542.667 1476.582,1316.519 1054.545,1034.64 		"/>
		<polygon fill="#FFAF3C" points="1601.273,1275.206 1708.793,972.316 1466.674,808.41 1347.113,1105.348 		"/>
		<polygon fill="#FFAF3C" points="749.49,509.146 1007.154,681.345 1306.619,189.862 1088.969,44.376 749.5,509.137 		"/>
	</g>
</g>
<g>
	<defs>
		<rect id="SVGID_9_" x="1540" y="-1540" width="1440" height="1440"/>
	</defs>
	<clipPath id="SVGID_8_">
		<use xlink:href="#SVGID_9_"  overflow="visible"/>
	</clipPath>
	<polygon clip-path="url(#SVGID_8_)" fill="#FFAFC8" points="2193.498,-1669.34 2107.125,-1441.515 2224.645,-1396.968 
		1788.102,-245.485 1674.547,-288.531 1502.057,166.463 1035.373,-10.463 1207.871,-465.458 1075.65,-515.586 1598.555,-1894.891 	
		"/>
</g>
<g>
	<defs>
		<rect id="SVGID_25_" x="-1540" width="1440" height="1440"/>
	</defs>
	<clipPath id="SVGID_10_">
		<use xlink:href="#SVGID_25_"  overflow="visible"/>
	</clipPath>
	<g clip-path="url(#SVGID_10_)">
		<polygon fill="#6EC828" points="8.942,1119.077 -171.616,1409.683 97.379,1543.06 235.616,1320.581 		"/>
	</g>
	<path clip-path="url(#SVGID_10_)" fill="#6EC828" d="M-807.572-130.527l24.603,208.363l-238.943,26.828l-23.972-204.049
		L-1209.438-80l-211.964-117.968l-207.156,358.094l257.384,149.891l388.293,99.419l-16.528-141.612l232.731-26.852l28.789,229.751
		l86.005,22.408l-18.875-143.425l147.328-16.41l17.291,149.707l885.326-57.534l-78.489-679.586L-807.572-130.527z M-441.132-108.315
		l164.33-18.782l16.164,138.324l-163.837,19.736L-441.132-108.315z M-682.181,226.642l-16.552-155.113l141.355-16.918
		l18.243,156.802L-682.181,226.642z M-12.276,388.16l-369.855,23.478l-23.985-210.803l366.386-44.045L-12.276,388.16z"/>
</g>
<g>
	<defs>
		<rect id="SVGID_27_" width="1440" height="1440"/>
	</defs>
	<clipPath id="SVGID_12_">
		<use xlink:href="#SVGID_27_"  overflow="visible"/>
	</clipPath>
	<g clip-path="url(#SVGID_12_)">
		<polygon fill="#FFAF3C" points="857.104,-193.759 467.972,-514.625 53.314,-426.619 245.366,117.596 666.167,242.63 		"/>
		<polygon fill="#FFAF3C" points="694.604,650.646 769.06,383.632 588.963,246.546 538.525,246.181 353.024,406.09 441.284,608.81 
					"/>
		<polygon fill="#FFAF3C" points="-13.01,820.165 182.906,936.712 363.669,834.857 321.935,577.303 67.623,598.081 		"/>
		<polygon fill="#FFAF3C" points="5.086,680.38 91.545,372.685 -125.046,274.814 -271.351,415.598 -203.936,655.119 		"/>
		<polygon fill="#FFAF3C" points="125.055,143.788 143.104,-128.551 -108.1,-209.035 -255.208,-56.195 -121.838,169.74 		"/>
	</g>
	<polygon clip-path="url(#SVGID_12_)" fill="#FFAF3C" points="692.319,1790.951 793.189,1640.432 715.546,1588.405 
		1225.358,827.639 1300.383,877.911 1501.827,577.303 1810.157,783.926 1608.707,1084.532 1696.064,1143.074 1085.39,2054.359 	"/>
</g>
<g>
	<defs>
		<rect id="SVGID_29_" x="1540" width="1440" height="1440"/>
	</defs>
	<clipPath id="SVGID_14_">
		<use xlink:href="#SVGID_29_"  overflow="visible"/>
	</clipPath>
	<g clip-path="url(#SVGID_14_)">
		<polygon fill="#FFAFC8" points="1296.277,462.279 1508.375,803.582 1720.957,626.227 1510.293,287.015 		"/>
		<polygon fill="#FFAFC8" points="1313.838,640.274 933.653,974.327 1083.714,1215.963 1507.794,952.592 		"/>
		<polygon fill="#FFAFC8" points="1529.955,1895.686 1793.542,1485.054 1669.832,1285.839 1328.773,1571.763 		"/>
		<polygon fill="#FFAFC8" points="847.362,1409.3 1005.59,1664.064 1465.994,1350.646 1332.342,1135.416 847.368,1409.296 		"/>
	</g>
</g>
<g>
	<defs>
		<rect id="SVGID_35_" y="1540" width="1440" height="1440"/>
	</defs>
	<clipPath id="SVGID_16_">
		<use xlink:href="#SVGID_35_"  overflow="visible"/>
	</clipPath>
	<g clip-path="url(#SVGID_16_)">
		<path fill="#FFAF3C" d="M627.558,2198.014l-723.939-430.527c-57.304-34.073-76.3-108.844-42.221-166.143l177.775-298.941
			c34.075-57.303,108.847-76.305,166.146-42.232l723.945,430.535c57.298,34.076,76.299,108.841,42.22,166.144l-177.779,298.939
			C759.628,2213.091,684.865,2232.094,627.558,2198.014z"/>
	</g>
</g>
<g>
	<defs>
		<rect id="SVGID_37_" x="1540" y="1540" width="1440" height="1440"/>
	</defs>
	<clipPath id="SVGID_18_">
		<use xlink:href="#SVGID_37_"  overflow="visible"/>
	</clipPath>
	<g clip-path="url(#SVGID_18_)">
		<path fill="#FFAFC8" d="M1420.814,1896.596l174.983-655.999c13.848-51.926,67.667-83.073,119.592-69.221l270.885,72.253
			c51.924,13.849,83.077,67.669,69.231,119.591l-174.989,656.004c-13.852,51.921-67.668,83.072-119.591,69.223l-270.886-72.259
			C1438.114,2002.338,1406.963,1948.525,1420.814,1896.596z"/>
	</g>
</g>
</svg>
