<?xml version="1.0" encoding="utf-8"?>
<!-- Generator: Adobe Illustrator 16.0.0, SVG Export Plug-In . SVG Version: 6.00 Build 0)  -->
<!DOCTYPE svg PUBLIC "-//W3C//DTD SVG 1.1//EN" "http://www.w3.org/Graphics/SVG/1.1/DTD/svg11.dtd">
<svg version="1.1" id="Layer_1" xmlns="http://www.w3.org/2000/svg" xmlns:xlink="http://www.w3.org/1999/xlink" x="0px" y="0px"
	 width="1440px" height="1440px" viewBox="0 0 1440 1440" enable-background="new 0 0 1440 1440" xml:space="preserve">
<g>
	<defs>
		<rect id="SVGID_5_" width="1440" height="1440"/>
	</defs>
	<clipPath id="SVGID_2_">
		<use xlink:href="#SVGID_5_"  overflow="visible"/>
	</clipPath>
	<g clip-path="url(#SVGID_2_)">
		<polygon fill="#6EC828" points="687.043,762.325 343.928,886.928 481.526,1176.216 744.214,1080.82 		"/>
		<polygon fill="#6EC828" points="574.006,457.504 235.7,580.469 351.956,799.528 688.157,677.437 		"/>
		<polygon fill="#6EC828" points="414.744,440.061 192.054,45.181 -47.439,132.153 105.2,552.471 		"/>
		<polygon fill="#6EC828" points="-244.645,791.288 -20.298,1026.986 172.986,956.799 71.827,678.233 		"/>
	</g>
	<path clip-path="url(#SVGID_2_)" fill="#6EC828" d="M1868.703,180.93l27.443-222.165l254.422,32.904l-27.002,217.538
		l174.409,21.468l189.678,176.095l305.647-318.438l-228.634-220.727l-377.109-201.674l-18.853,150.948l-247.994-31.311
		l28.536-245.394l-83.424-45.071l-16.885,153.424l-156.84-20.434l20.121-159.527L780.173-696.744l-91.329,724.17L1868.703,180.93z
		 M1494.617,64.812l-175.062-22.289l18.396-147.448l174.792,21.179L1494.617,64.812z M1829.511-221.05l-22.255,164.949
		l-150.78-18.385l20.934-167.123L1829.511-221.05z M1176.354-558.624l389.229,69.639l-28.702,224.543l-390.862-47.447
		L1176.354-558.624z"/>
	<polygon clip-path="url(#SVGID_2_)" fill="#6EC828" points="1939.243,647.978 1846.5,892.604 1972.685,940.435 1503.953,2176.828 
		1382.024,2130.609 1196.814,2619.155 695.717,2429.181 880.936,1940.636 738.963,1886.81 1300.427,405.796 	"/>
</g>
<g>
	<defs>
		<rect id="SVGID_7_" x="1540" y="-3080" width="1440" height="1440"/>
	</defs>
	<clipPath id="SVGID_4_">
		<use xlink:href="#SVGID_7_"  overflow="visible"/>
	</clipPath>
</g>
<g>
	<defs>
		<rect id="SVGID_17_" x="1536" y="1540" width="1440" height="1440"/>
	</defs>
	<clipPath id="SVGID_6_">
		<use xlink:href="#SVGID_17_"  overflow="visible"/>
	</clipPath>
	<g clip-path="url(#SVGID_6_)">
		<polygon fill="#FFAF3C" points="1454.727,987.461 1347.207,1290.35 1589.326,1454.256 1708.887,1157.318 		"/>
	</g>
</g>
<g>
	<defs>
		<rect id="SVGID_19_" x="-4" y="1540" width="1440" height="1440"/>
	</defs>
	<clipPath id="SVGID_8_">
		<use xlink:href="#SVGID_19_"  overflow="visible"/>
	</clipPath>
	<path clip-path="url(#SVGID_8_)" fill="#6EC828" d="M980.111,1922.038l-35.54-205.425l235.653-39.386l34.684,201.184
		l161.247-27.964l216.621,105.729l186.431-366.368l-263.397-134.993l-390.579-77.91l23.96,139.633L919.689,1555.6l-40.833-226.427
		l-86.525-17.646l26.382,141.313l-145.311,24.143l-25.147-147.618l-875.386,104.364l114.169,670.118L980.111,1922.038z
		 M615.325,1919.566l-162.058,27.406l-23.423-136.383l161.522-28.33L615.325,1919.566z M836.615,1574.337l24.713,153.025
		l-139.353,24.337l-26.478-154.619L836.615,1574.337z M163.285,1449.84l365.737-43.043l35.052,207.889l-361.192,63.27
		L163.285,1449.84z"/>
</g>
<g>
	<defs>
		<rect id="SVGID_21_" x="-1544" y="1540" width="1440" height="1440"/>
	</defs>
	<clipPath id="SVGID_10_">
		<use xlink:href="#SVGID_21_"  overflow="visible"/>
	</clipPath>
</g>
<g>
	<defs>
		<rect id="SVGID_23_" x="-1540" y="-1540" width="1440" height="1440"/>
	</defs>
	<clipPath id="SVGID_12_">
		<use xlink:href="#SVGID_23_"  overflow="visible"/>
	</clipPath>
	<g clip-path="url(#SVGID_12_)">
	</g>
</g>
<g>
	<defs>
		<rect id="SVGID_25_" y="-1540" width="1440" height="1440"/>
	</defs>
	<clipPath id="SVGID_14_">
		<use xlink:href="#SVGID_25_"  overflow="visible"/>
	</clipPath>
	<g clip-path="url(#SVGID_14_)">
		<polygon fill="#6EC828" points="1548.942,-420.923 1368.384,-130.317 1637.379,3.06 1775.616,-219.419 		"/>
		<polygon fill="#6EC828" points="879.392,140.279 1181.232,183.911 1282.949,20.212 1047.011,-126.389 		"/>
		<polygon fill="#6EC828" points="297.157,129.181 704.281,174.789 808.193,7.57 466.112,-142.743 		"/>
		<polygon fill="#6EC828" points="-189.789,146.817 59.063,225.95 185.62,24.924 -58.72,-64.15 		"/>
	</g>
</g>
<g>
	<defs>
		<rect id="SVGID_27_" x="1540" y="-1540" width="1440" height="1440"/>
	</defs>
	<clipPath id="SVGID_16_">
		<use xlink:href="#SVGID_27_"  overflow="visible"/>
	</clipPath>
</g>
<g>
	<defs>
		<rect id="SVGID_33_" x="-1540" width="1440" height="1440"/>
	</defs>
	<clipPath id="SVGID_18_">
		<use xlink:href="#SVGID_33_"  overflow="visible"/>
	</clipPath>
	<g clip-path="url(#SVGID_18_)">
		<polygon fill="#46B4EB" points="-46.613,1577.175 146.401,1633.965 180.079,1457.287 26.652,1412.148 		"/>
		<polygon fill="#46B4EB" points="161.695,935.004 130.355,688.045 -20.56,643.635 -84.567,861.147 		"/>
		<polygon fill="#46B4EB" points="279.631,1395.479 226.942,1065.26 72.778,1019.889 28.944,1321.715 		"/>
	</g>
</g>
<g>
	<defs>
		<rect id="SVGID_35_" x="1540" width="1440" height="1440"/>
	</defs>
	<clipPath id="SVGID_20_">
		<use xlink:href="#SVGID_35_"  overflow="visible"/>
	</clipPath>
	<g clip-path="url(#SVGID_20_)">
		<path fill="#FFAF3C" d="M2167.558,658.014l-723.939-430.527c-57.304-34.073-76.3-108.844-42.221-166.143l177.775-298.941
			c34.075-57.303,108.847-76.305,166.146-42.232l723.945,430.535c57.298,34.076,76.299,108.841,42.22,166.144l-177.779,298.939
			C2299.628,673.091,2224.865,692.094,2167.558,658.014z"/>
	</g>
</g>
</svg>
