<?xml version="1.0" encoding="utf-8"?>
<!-- Generator: Adobe Illustrator 16.0.0, SVG Export Plug-In . SVG Version: 6.00 Build 0)  -->
<!DOCTYPE svg PUBLIC "-//W3C//DTD SVG 1.1//EN" "http://www.w3.org/Graphics/SVG/1.1/DTD/svg11.dtd">
<svg version="1.1" id="Layer_1" xmlns="http://www.w3.org/2000/svg" xmlns:xlink="http://www.w3.org/1999/xlink" x="0px" y="0px"
	 width="1440px" height="1440px" viewBox="0 0 1440 1440" enable-background="new 0 0 1440 1440" xml:space="preserve">
<g>
	<defs>
		<rect id="SVGID_5_" x="1540" width="1440" height="1440"/>
	</defs>
	<clipPath id="SVGID_2_">
		<use xlink:href="#SVGID_5_"  overflow="visible"/>
	</clipPath>
	<g clip-path="url(#SVGID_2_)">
		<polygon fill="#6EC828" points="1017.074,-46.132 769.879,43.63 871.33,255.716 1067.816,184.363 		"/>
		<polygon fill="#6EC828" points="1295.355,791.288 1519.702,1026.986 1712.986,956.799 1611.827,678.233 		"/>
		<polygon fill="#6EC828" points="814.418,397.923 1125.738,704.725 1323.186,633.035 1135.469,281.325 		"/>
		<polygon fill="#6EC828" points="394.418,91.506 550.917,322.016 789.652,236.916 643.5,1.047 		"/>
		<polygon fill="#6EC828" points="1366.68,-110.7 1114.175,-19.001 1303.98,442.397 1517.3,364.947 1366.686,-110.682 		"/>
	</g>
</g>
<g>
	<defs>
		<rect id="SVGID_19_" x="1536" y="1540" width="1440" height="1440"/>
	</defs>
	<clipPath id="SVGID_4_">
		<use xlink:href="#SVGID_19_"  overflow="visible"/>
	</clipPath>
	<path clip-path="url(#SVGID_4_)" fill="#6EC828" d="M2520.111,1922.038l-35.54-205.425l235.653-39.386l34.684,201.184
		l161.247-27.964l216.621,105.729l186.431-366.368l-263.397-134.993l-390.579-77.91l23.96,139.633l-229.501,39.062l-40.833-226.427
		l-86.525-17.646l26.382,141.313l-145.311,24.143l-25.147-147.618l-875.386,104.364l114.169,670.118L2520.111,1922.038z
		 M2155.325,1919.566l-162.058,27.406l-23.423-136.383l161.522-28.33L2155.325,1919.566z M2376.615,1574.337l24.713,153.025
		l-139.353,24.337l-26.478-154.619L2376.615,1574.337z M1703.285,1449.84l365.737-43.043l35.052,207.889l-361.192,63.27
		L1703.285,1449.84z"/>
</g>
<g>
	<defs>
		<rect id="SVGID_21_" x="-4" y="1540" width="1440" height="1440"/>
	</defs>
	<clipPath id="SVGID_6_">
		<use xlink:href="#SVGID_21_"  overflow="visible"/>
	</clipPath>
	<g clip-path="url(#SVGID_6_)">
		<polygon fill="#46B4EB" points="667.922,1602.971 675.938,1399.287 494.027,1409.945 487.66,1571.846 		"/>
		<polygon fill="#46B4EB" points="408.658,1327.441 97.289,1460.947 90.883,1623.633 398.254,1591.98 		"/>
		<polygon fill="#46B4EB" points="1007.842,1507.246 1019.576,1209.203 819.035,1172.773 805.738,1513.508 		"/>
		<polygon fill="#46B4EB" points="751.594,1115.842 540.328,1160.604 531.449,1356.846 743.52,1321.08 		"/>
	</g>
</g>
<g>
	<defs>
		<rect id="SVGID_23_" y="-1540" width="1440" height="1440"/>
	</defs>
	<clipPath id="SVGID_8_">
		<use xlink:href="#SVGID_23_"  overflow="visible"/>
	</clipPath>
	<g clip-path="url(#SVGID_8_)">
		<polygon fill="#46B4EB" points="723.538,71.873 723.548,71.846 723.536,71.879 633.3,292.543 839.367,376.088 1192.627,-500.568 
			1192.677,-500.686 1209.392,-493.235 1273.633,-654.128 1256.95,-661.656 1331.152,-844.233 1264.362,-871.325 1264.847,-872.162 
			1377.5,-1152.487 1157.599,-1241.32 641.232,38.021 		"/>
	</g>
</g>
<g>
	<defs>
		<rect id="SVGID_25_" x="1540" y="-1540" width="1440" height="1440"/>
	</defs>
	<clipPath id="SVGID_10_">
		<use xlink:href="#SVGID_25_"  overflow="visible"/>
	</clipPath>
	<g clip-path="url(#SVGID_10_)">
		<polygon fill="#6EC828" points="1314.564,-417.76 1124.206,-111.408 1313.297,46.678 1530.801,-303.623 		"/>
		<polygon fill="#6EC828" points="1350.211,146.817 1599.063,225.95 1725.62,24.924 1481.28,-64.15 		"/>
	</g>
</g>
<g>
	<defs>
		<rect id="SVGID_33_" width="1440" height="1440"/>
	</defs>
	<clipPath id="SVGID_12_">
		<use xlink:href="#SVGID_33_"  overflow="visible"/>
	</clipPath>
	<g clip-path="url(#SVGID_12_)">
		<polygon fill="#46B4EB" points="1114.519,530.339 1382.428,609.168 1428.84,368.526 1223.735,308.172 		"/>
		<polygon fill="#46B4EB" points="1045.929,769.413 1310.131,847.072 1337.85,659.372 1075.333,582.14 		"/>
		<polygon fill="#46B4EB" points="1136.146,852.384 1094.277,1196.668 1281.275,1251.691 1377.84,923.498 		"/>
		<polygon fill="#46B4EB" points="1248.7,1458.404 1445.871,1516.413 1538.161,1146.059 1371.604,1097.043 1248.705,1458.396 		"/>
	</g>
	<g clip-path="url(#SVGID_12_)">
		<polygon fill="#46B4EB" points="-8.809,229.259 -8.785,229.251 -8.815,229.261 -210.978,279.378 -163.667,467.796 636.791,265 
			636.9,264.974 640.262,280.604 786.865,242.968 783.572,227.319 950.606,185.528 935.283,124.451 936.12,124.363 1191.922,59.297 
			1141.208,-141.605 -27.364,153.754 		"/>
		<polygon fill="#46B4EB" points="318.992,539.643 1060.43,392.68 1041.946,320.313 310.714,504.696 		"/>
		<polygon fill="#46B4EB" points="292.229,9.091 301.658,43.688 1533.859,-268.082 1524.441,-302.686 		"/>
	</g>
	<path clip-path="url(#SVGID_12_)" fill="#46B4EB" d="M641.935,1694.113l107.039-133.688l152.501,123.546l-104.895,130.847
		l104.979,83.979l52.862,190.818l326.877-84.735l-60.328-235.517l-164.673-282.705l-72.861,90.746l-148.956-119.918l117.077-148.375
		l-36.249-62.838l-72.569,93.148l-93.953-76.253l77.129-95.826L285.219,685.604l-350.124,435.003L641.935,1694.113z
		 M444.895,1468.348l-105.073-84.773l71.157-88.652l105.346,83.941L444.895,1468.348z M777.741,1416.572l-80.696,98.494
		l-90.827-72.484l80.708-100.447L777.741,1416.572z M487.817,934.566l225.56,201.571l-108.813,134.726l-235.529-187.771
		L487.817,934.566z"/>
</g>
</svg>
