<?xml version="1.0" encoding="utf-8"?>
<!-- Generator: Adobe Illustrator 16.0.0, SVG Export Plug-In . SVG Version: 6.00 Build 0)  -->
<!DOCTYPE svg PUBLIC "-//W3C//DTD SVG 1.1//EN" "http://www.w3.org/Graphics/SVG/1.1/DTD/svg11.dtd">
<svg version="1.1" id="Layer_1" xmlns="http://www.w3.org/2000/svg" xmlns:xlink="http://www.w3.org/1999/xlink" x="0px" y="0px"
	 width="200px" height="200px" viewBox="0 0 200 200" enable-background="new 0 0 200 200" xml:space="preserve">
<path fill="#46B4EB" d="M100.086,62.096L82.881,74.955L68.256,55.154L85.111,42.57l-10.1-13.5l-0.41-24.832L32.248,4.232
	l-0.09,30.494l11.09,39.506l11.703-8.723l14.307,19.25L50.371,99.088l2.424,8.768l11.742-9.021l9.006,12.215l-12.381,9.205
	l50.475,75.514l56.205-41.787L100.086,62.096z M116.898,95.709l10.088,13.602l-11.432,8.521l-10.145-13.51L116.898,95.709z
	 M74.857,91.514l12.9-9.418L96.5,93.758l-12.959,9.654L74.857,91.514z M94.879,159.162l-21.037-31.574l17.453-12.93l22.682,30.213
	L94.879,159.162z"/>
</svg>
