<?xml version="1.0" encoding="utf-8"?>
<!-- Generator: Adobe Illustrator 16.0.0, SVG Export Plug-In . SVG Version: 6.00 Build 0)  -->
<!DOCTYPE svg PUBLIC "-//W3C//DTD SVG 1.1//EN" "http://www.w3.org/Graphics/SVG/1.1/DTD/svg11.dtd">
<svg version="1.1" id="Layer_1" xmlns="http://www.w3.org/2000/svg" xmlns:xlink="http://www.w3.org/1999/xlink" x="0px" y="0px"
	 width="1000px" height="1000px" viewBox="0 0 1000 1000" enable-background="new 0 0 1000 1000" xml:space="preserve">
<g>
	<polygon fill="#6EC829" points="740.562,885.586 566.172,876.938 581.625,779.312 715.195,785.953 	"/>
	<polygon fill="#6EC829" points="658.164,751.805 675.047,652.086 773.719,657.086 778.812,757.789 	"/>
	<polygon fill="#6EC829" points="540.234,746.102 460.086,741.969 433.719,636.586 547.922,642.133 	"/>
	<polygon fill="#6EC829" points="565.133,700.5 570.625,576.18 642.156,579.633 648.289,704.711 	"/>
	<polygon fill="#6EC829" points="500.984,621.188 413.086,616.969 420.312,486.32 494.422,489.938 	"/>
	<polygon fill="#6EC829" points="400.234,568.312 319.398,564.484 269.516,424.68 393.398,430.789 	"/>
	<polygon fill="#6EC829" points="500.555,431.32 524.938,518.734 650.672,524.914 601.703,436.344 	"/>
	<polygon fill="#6EC829" points="555.531,403.109 457.469,398.305 414.352,267.477 490.477,271.07 	"/>
	<polygon fill="#6EC829" points="372.094,404.992 346.914,304.367 240.547,299.039 281.625,400.367 	"/>
	<polygon fill="#6EC829" points="358.289,251.68 336.211,120.258 222.641,114.648 221.398,244.828 	"/>
</g>
</svg>
