<?xml version="1.0" encoding="utf-8"?>
<!-- Generator: Adobe Illustrator 16.0.0, SVG Export Plug-In . SVG Version: 6.00 Build 0)  -->
<!DOCTYPE svg PUBLIC "-//W3C//DTD SVG 1.1//EN" "http://www.w3.org/Graphics/SVG/1.1/DTD/svg11.dtd">
<svg version="1.1" id="Layer_1" xmlns="http://www.w3.org/2000/svg" xmlns:xlink="http://www.w3.org/1999/xlink" x="0px" y="0px"
	 width="1000px" height="1000px" viewBox="0 0 1000 1000" enable-background="new 0 0 1000 1000" xml:space="preserve">
<path fill="#FFAF3E" d="M570.203,710.633l120.367-52.977l-29.547-119.07l-110.102-2.492l-40.391,88.125L570.203,710.633z
	 M473.422,358.359l65.547,67.469l28.75-18.906l11.859,101.25l137.32,22.055l40.57-101.969l-79.203-92.914L647,356.508
	l-18.984-114.281l-128.484,14.578L473.422,358.359z M329.078,311.211l110.75,12.156l37.758,101.469l-90.523,68.484l117.805,58.914
	l-28.727,203.789l-143.75-14.578l-88.688-171.727l55.992-119.18l-20.531-10.172L329.078,311.211z"/>
</svg>
