<?xml version="1.0" encoding="utf-8"?>
<!-- Generator: Adobe Illustrator 16.0.0, SVG Export Plug-In . SVG Version: 6.00 Build 0)  -->
<!DOCTYPE svg PUBLIC "-//W3C//DTD SVG 1.1//EN" "http://www.w3.org/Graphics/SVG/1.1/DTD/svg11.dtd">
<svg version="1.1" id="Layer_1" xmlns="http://www.w3.org/2000/svg" xmlns:xlink="http://www.w3.org/1999/xlink" x="0px" y="0px"
	 width="100px" height="100px" viewBox="0 0 100 100" enable-background="new 0 0 100 100" xml:space="preserve">
<path d="M80.384,9.489H19.619c-5.57,0-10.13,4.558-10.13,10.128v60.766c0,5.57,4.56,10.128,10.13,10.128H50.35V61.46h-9.701V48.803
	h9.701v-6.34c0-9.773,7.216-17.428,16.431-17.428h8.943v14.287h-8.002c-2.094,0-2.709,1.207-2.709,2.867v6.613h10.711V61.46H65.014
	v29.051h15.37c5.573,0,10.128-4.558,10.128-10.128V19.617C90.512,14.047,85.957,9.489,80.384,9.489"/>
</svg>
