<?xml version="1.0" encoding="utf-8"?>
<!-- Generator: Adobe Illustrator 15.0.0, SVG Export Plug-In . SVG Version: 6.00 Build 0)  -->
<!DOCTYPE svg PUBLIC "-//W3C//DTD SVG 1.1//EN" "http://www.w3.org/Graphics/SVG/1.1/DTD/svg11.dtd">
<svg version="1.1" id="Layer_1" xmlns="http://www.w3.org/2000/svg" xmlns:xlink="http://www.w3.org/1999/xlink" x="0px" y="0px"
	 width="301.5px" height="133.5px" viewBox="0 0 301.5 133.5" enable-background="new 0 0 301.5 133.5" xml:space="preserve">
<path fill="#925D9E" d="M243.88,18.41l-13.437,5.09l-4.025,8.942l10.844,28.622l8.942,4.028l13.432-5.091l4.03-8.94L252.82,22.438
	L243.88,18.41z M254.445,54.424l-8.051,3.05l-3.179-1.433l-9.011-23.782l1.432-3.179l8.051-3.05l3.178,1.433l9.01,23.782
	L254.445,54.424z"/>
<polygon fill="#925D9E" points="277.826,5.549 290.211,38.238 289.312,40.231 287.316,39.334 282.742,27.261 275.871,29.864 
	280.445,41.937 279.559,43.907 277.548,43.023 265.168,10.345 258.297,12.948 271.598,48.057 280.538,52.085 284.207,50.696 
	286.102,46.491 290.307,48.386 293.973,46.995 298,38.054 284.699,2.944 "/>
<path fill="#FCFCFC" d="M15.841,93.775c-8.041,0-13.218-5.414-13.218-13.69c0-8.315,5.295-13.729,13.298-13.729
	c5.294,0,9.101,2.001,11.257,7.102l-6.041,2.627c-1.099-2.785-2.941-3.728-5.414-3.728c-3.961,0-6.392,3.1-6.392,7.729
	c0,4.865,2.47,8.081,6.628,8.081c3.138,0,4.903-1.451,5.139-4.315h-5.295v-5.295h12.826C29.179,87.186,24.628,93.775,15.841,93.775"
	/>
<path fill="#FCFCFC" d="M40.356,93.814c-5.884,0-8.865-2.51-8.865-7.258V75.3h5.963v10.082c0,2.274,0.901,3.294,2.902,3.294
	c1.883,0,2.901-1.099,2.901-3.294V75.3h5.963v11.259C49.221,91.305,46.24,93.814,40.356,93.814"/>
<path fill="#FCFCFC" d="M62.045,80.086c-2.156,0-3.882,1.805-3.882,4.041c0,2.234,1.726,4.039,3.882,4.039
	c2.119,0,3.846-1.805,3.846-4.039C65.891,81.891,64.164,80.086,62.045,80.086 M61.733,102.443c-5.1,0-9.14-2.784-9.572-6.786h6.708
	c0.433,1.178,1.333,1.766,2.864,1.766c2.431,0,3.844-1.606,3.844-4.274v-2.08c-1.765,1.767-3.138,2.394-5.297,2.394
	c-4.903,0-8.314-3.726-8.314-9.022c0-5.529,3.688-9.646,8.591-9.646c2.079,0,3.687,0.627,5.021,2.354V75.3h5.962v17.691
	C71.539,98.914,68.01,102.443,61.733,102.443"/>
<path fill="#FCFCFC" d="M84.403,80.086c-2.156,0-3.882,1.805-3.882,4.041c0,2.234,1.726,4.039,3.882,4.039
	c2.119,0,3.846-1.805,3.846-4.039C88.249,81.891,86.522,80.086,84.403,80.086 M84.092,102.443c-5.102,0-9.14-2.784-9.572-6.786
	h6.708c0.433,1.178,1.333,1.766,2.864,1.766c2.431,0,3.844-1.606,3.844-4.274v-2.08c-1.765,1.767-3.138,2.394-5.297,2.394
	c-4.903,0-8.314-3.726-8.314-9.022c0-5.529,3.688-9.646,8.591-9.646c2.077,0,3.687,0.627,5.021,2.354V75.3h5.962v17.691
	C93.897,98.914,90.367,102.443,84.092,102.443"/>
<path fill="#FCFCFC" d="M105.938,78.79c-1.805,0-3.021,1.06-3.333,2.864h6.824C109.037,79.889,107.743,78.79,105.938,78.79
	 M102.447,85.302c0,2.668,1.215,3.962,3.648,3.962c1.412,0,2.157-0.432,2.903-1.646h5.765c-0.823,3.961-4.275,6.118-8.746,6.118
	c-5.806,0-9.61-3.728-9.61-9.453c0-5.922,3.608-9.649,9.492-9.649c5.647,0,9.1,3.884,9.1,10.003v0.666L102.447,85.302
	L102.447,85.302z"/>
<path fill="#FCFCFC" d="M129.395,93.068v-8.982c0-2.354-0.236-4.195-2.746-4.195c-2.001,0-3.138,1.332-3.138,3.646v9.531h-5.963
	V75.3h5.963v2.235c1.255-1.725,2.942-2.667,5.413-2.667c4.275,0,6.433,2.746,6.433,6.903v11.297H129.395z"/>
<path fill="#FCFCFC" d="M150.732,93.068v-8.982c0-2.354-0.236-4.195-2.746-4.195c-2.001,0-3.139,1.332-3.139,3.646v9.531h-5.963
	V63.141h5.963v14.395c1.256-1.726,2.942-2.667,5.413-2.667c4.275,0,6.434,2.746,6.434,6.904V93.07h-5.961V93.068z"/>
<path fill="#FCFCFC" d="M168.736,78.79c-1.807,0-3.021,1.06-3.334,2.864h6.822C171.834,79.889,170.54,78.79,168.736,78.79
	 M165.244,85.302c0,2.668,1.215,3.962,3.646,3.962c1.414,0,2.158-0.432,2.904-1.646h5.764c-0.822,3.961-4.273,6.118-8.746,6.118
	c-5.805,0-9.608-3.728-9.608-9.453c0-5.922,3.606-9.649,9.491-9.649c5.647,0,9.101,3.884,9.101,10.003v0.666L165.244,85.302
	L165.244,85.302z"/>
<path fill="#FCFCFC" d="M180.503,75.3h5.962V93.07h-5.962V75.3z M183.482,71.966c-1.961,0-3.529-1.567-3.529-3.53
	c0-1.961,1.568-3.529,3.529-3.529c1.963,0,3.531,1.568,3.531,3.529C187.014,70.398,185.445,71.966,183.482,71.966"/>
<path fill="#925D9E" d="M215.994,28.975l-6.871,2.603l9.67,25.521l-22.986-20.475l-6.214,2.354l13.655,36.043
	c1.88,0.357,3.355,1.398,4.162,3.26c0.955-1.602,2.218-2.629,3.763-3.088l-8.594-22.681l22.905,20.431l6.271-2.373L215.994,28.975z"
	/>
<polygon fill="#FCFCFC" points="105.9,130.333 105.9,119.586 96.524,119.586 96.524,130.333 90.093,130.333 90.093,104.169 
	96.524,104.169 96.524,114.289 105.9,114.289 105.9,104.169 112.332,104.169 112.332,130.333 "/>
<path fill="#FCFCFC" d="M124.374,116.057c-1.805,0-3.021,1.057-3.334,2.861h6.824C127.473,117.152,126.177,116.057,124.374,116.057
	 M120.882,122.564c0,2.668,1.218,3.963,3.648,3.963c1.413,0,2.158-0.432,2.901-1.646h5.768c-0.824,3.961-4.276,6.119-8.747,6.119
	c-5.806,0-9.61-3.729-9.61-9.454c0-5.922,3.608-9.649,9.492-9.649c5.648,0,9.1,3.884,9.1,10.004v0.666h-12.552V122.564z"/>
<rect x="135.827" y="100.402" fill="#FCFCFC" width="5.962" height="29.93"/>
<path fill="#FCFCFC" d="M150.339,131c-2.314,0-4.511-0.667-6.746-2.04l2.157-4.435c1.608,1.101,3.413,1.768,4.785,1.768
	c1.059,0,1.845-0.55,1.845-1.335c0-1.06-0.823-1.138-2.551-1.647c-2.471-0.744-4.943-1.883-4.943-4.979
	c0-3.923,2.904-6.396,7.532-6.396c1.883,0,3.727,0.354,5.451,1.139l-2,4.08c-1.139-0.588-2.234-0.902-3.256-0.902
	c-1.098,0-1.843,0.548-1.843,1.294c0,2.158,7.609,0.589,7.609,6.747C158.38,128.372,155.242,131,150.339,131"/>
<path fill="#FCFCFC" d="M160.734,112.562h5.961v17.77h-5.961V112.562z M163.715,109.229c-1.961,0-3.529-1.568-3.529-3.53
	s1.568-3.53,3.529-3.53c1.962,0,3.53,1.568,3.53,3.53S165.677,109.229,163.715,109.229"/>
<path fill="#FCFCFC" d="M181.798,130.333v-8.983c0-2.354-0.235-4.197-2.746-4.197c-2.001,0-3.139,1.334-3.139,3.648v9.532h-5.963
	v-17.771h5.963v2.236c1.255-1.727,2.942-2.668,5.413-2.668c4.275,0,6.434,2.747,6.434,6.903v11.298L181.798,130.333L181.798,130.333
	z"/>
<polygon fill="#FCFCFC" points="202.979,130.333 196.427,123.075 196.427,130.333 190.464,130.333 190.464,100.402 196.427,100.402 
	196.427,118.958 202.663,112.562 210.861,112.562 202.389,120.761 211.372,130.333 "/>
<path fill="#FCFCFC" d="M212.941,112.562h5.961v17.77h-5.961V112.562z M215.922,109.229c-1.962,0-3.529-1.568-3.529-3.53
	s1.567-3.53,3.529-3.53c1.961,0,3.53,1.568,3.53,3.53S217.883,109.229,215.922,109.229"/>
<path fill="#FCFCFC" d="M212.823,84.282c0-2.274-0.078-4.511-2.589-4.511c-2.551,0-2.746,2.235-2.746,4.511v8.786h-5.922v-8.786
	c0-2.274-0.078-4.511-2.59-4.511c-2.551,0-2.746,2.235-2.746,4.511v8.786h-5.961V75.3h5.961v2.234
	c1.334-1.921,3.256-2.666,5.453-2.666c2.629,0,4.707,1.06,5.727,3.412c1.334-2.234,3.256-3.372,5.727-3.372
	c2,0,3.729,0.979,4.707,2.471c0.627,0.98,0.941,2.236,0.941,4.12v11.569h-5.962V84.282z"/>
</svg>
