<?xml version="1.0" encoding="utf-8"?>
<!-- Generator: Adobe Illustrator 16.0.0, SVG Export Plug-In . SVG Version: 6.00 Build 0)  -->
<!DOCTYPE svg PUBLIC "-//W3C//DTD SVG 1.1//EN" "http://www.w3.org/Graphics/SVG/1.1/DTD/svg11.dtd">
<svg version="1.1" id="Layer_1" xmlns="http://www.w3.org/2000/svg" xmlns:xlink="http://www.w3.org/1999/xlink" x="0px" y="0px"
	 width="301.5px" height="133.5px" viewBox="0 0 301.5 133.5" enable-background="new 0 0 301.5 133.5" xml:space="preserve">
<path fill="#925D9E" d="M243.88,18.41l-13.436,5.09l-4.026,8.942l10.844,28.622l8.942,4.028l13.432-5.091l4.03-8.94L252.82,22.438
	L243.88,18.41z M254.445,54.424l-8.051,3.05l-3.178-1.433l-9.011-23.782l1.431-3.179l8.051-3.05l3.178,1.433l9.01,23.782
	L254.445,54.424z"/>
<polygon fill="#925D9E" points="277.826,5.549 290.211,38.238 289.313,40.231 287.317,39.334 282.742,27.261 275.871,29.864 
	280.445,41.937 279.559,43.907 277.548,43.023 265.168,10.345 258.297,12.948 271.598,48.057 280.538,52.085 284.207,50.696 
	286.101,46.491 290.306,48.386 293.973,46.995 298,38.054 284.699,2.944 "/>
<path d="M15.841,93.775c-8.041,0-13.218-5.413-13.218-13.69c0-8.315,5.295-13.729,13.298-13.729c5.294,0,9.101,2.001,11.257,7.102
	l-6.041,2.627c-1.099-2.785-2.941-3.727-5.414-3.727c-3.961,0-6.392,3.099-6.392,7.728c0,4.865,2.47,8.081,6.628,8.081
	c3.138,0,4.903-1.451,5.139-4.315h-5.295v-5.295h12.826C29.179,87.185,24.628,93.775,15.841,93.775"/>
<path d="M40.356,93.814c-5.884,0-8.865-2.51-8.865-7.257V75.3h5.963v10.082c0,2.274,0.901,3.294,2.902,3.294
	c1.883,0,2.901-1.099,2.901-3.294V75.3h5.963v11.258C49.221,91.305,46.24,93.814,40.356,93.814"/>
<path d="M62.045,80.086c-2.156,0-3.882,1.804-3.882,4.041c0,2.234,1.726,4.039,3.882,4.039c2.119,0,3.846-1.805,3.846-4.039
	C65.891,81.89,64.164,80.086,62.045,80.086 M61.733,102.443c-5.1,0-9.14-2.784-9.572-6.786h6.708
	c0.433,1.178,1.333,1.766,2.864,1.766c2.431,0,3.844-1.607,3.844-4.275v-2.079c-1.765,1.766-3.138,2.393-5.297,2.393
	c-4.903,0-8.314-3.726-8.314-9.022c0-5.53,3.688-9.647,8.591-9.647c2.079,0,3.687,0.627,5.021,2.353V75.3h5.962v17.691
	C71.539,98.914,68.01,102.443,61.733,102.443"/>
<path d="M84.403,80.086c-2.156,0-3.882,1.804-3.882,4.041c0,2.234,1.726,4.039,3.882,4.039c2.119,0,3.846-1.805,3.846-4.039
	C88.249,81.89,86.522,80.086,84.403,80.086 M84.092,102.443c-5.102,0-9.14-2.784-9.572-6.786h6.708
	c0.433,1.178,1.333,1.766,2.864,1.766c2.431,0,3.844-1.607,3.844-4.275v-2.079c-1.765,1.766-3.138,2.393-5.297,2.393
	c-4.903,0-8.314-3.726-8.314-9.022c0-5.53,3.688-9.647,8.591-9.647c2.077,0,3.687,0.627,5.021,2.353V75.3h5.962v17.691
	C93.897,98.914,90.367,102.443,84.092,102.443"/>
<path d="M105.938,78.79c-1.805,0-3.021,1.059-3.333,2.864h6.824C109.037,79.889,107.743,78.79,105.938,78.79 M102.447,85.302
	c0,2.668,1.215,3.962,3.648,3.962c1.412,0,2.157-0.432,2.903-1.646h5.765c-0.823,3.961-4.275,6.119-8.746,6.119
	c-5.806,0-9.61-3.728-9.61-9.454c0-5.922,3.608-9.649,9.492-9.649c5.647,0,9.1,3.883,9.1,10.003v0.666H102.447z"/>
<path d="M129.395,93.069v-8.983c0-2.354-0.236-4.196-2.746-4.196c-2.001,0-3.138,1.333-3.138,3.647v9.532h-5.963V75.3h5.963v2.235
	c1.255-1.725,2.942-2.667,5.413-2.667c4.275,0,6.433,2.746,6.433,6.904v11.297H129.395z"/>
<path d="M150.732,93.069v-8.983c0-2.354-0.236-4.196-2.746-4.196c-2.001,0-3.139,1.333-3.139,3.647v9.532h-5.963V63.141h5.963
	v14.395c1.256-1.725,2.942-2.667,5.413-2.667c4.275,0,6.434,2.746,6.434,6.904v11.297H150.732z"/>
<path d="M168.736,78.79c-1.806,0-3.021,1.059-3.334,2.864h6.823C171.834,79.889,170.54,78.79,168.736,78.79 M165.244,85.302
	c0,2.668,1.215,3.962,3.647,3.962c1.413,0,2.158-0.432,2.904-1.646h5.764c-0.823,3.961-4.274,6.119-8.746,6.119
	c-5.805,0-9.609-3.728-9.609-9.454c0-5.922,3.607-9.649,9.491-9.649c5.648,0,9.101,3.883,9.101,10.003v0.666H165.244z"/>
<path d="M180.503,75.3h5.962v17.77h-5.962V75.3z M183.482,71.966c-1.961,0-3.529-1.568-3.529-3.53s1.568-3.53,3.529-3.53
	c1.963,0,3.531,1.568,3.531,3.53S185.445,71.966,183.482,71.966"/>
<path fill="#925D9E" d="M215.994,28.975l-6.871,2.603l9.67,25.521l-22.986-20.475l-6.214,2.354l13.655,36.043
	c1.88,0.358,3.355,1.399,4.162,3.26c0.955-1.601,2.218-2.628,3.763-3.088l-8.594-22.681l22.905,20.431l6.271-2.373L215.994,28.975z"
	/>
<polygon points="105.9,130.333 105.9,119.586 96.524,119.586 96.524,130.333 90.093,130.333 90.093,104.169 96.524,104.169 
	96.524,114.289 105.9,114.289 105.9,104.169 112.332,104.169 112.332,130.333 "/>
<path d="M124.374,116.056c-1.805,0-3.021,1.057-3.334,2.862h6.824C127.473,117.152,126.177,116.056,124.374,116.056
	 M120.882,122.565c0,2.668,1.218,3.962,3.648,3.962c1.413,0,2.158-0.431,2.901-1.646h5.768c-0.824,3.961-4.276,6.119-8.747,6.119
	c-5.806,0-9.61-3.728-9.61-9.454c0-5.922,3.608-9.65,9.492-9.65c5.648,0,9.1,3.884,9.1,10.004v0.666H120.882z"/>
<rect x="135.827" y="100.403" width="5.962" height="29.929"/>
<path d="M150.339,131c-2.314,0-4.511-0.667-6.746-2.04l2.157-4.434c1.608,1.1,3.413,1.767,4.785,1.767
	c1.059,0,1.845-0.55,1.845-1.335c0-1.059-0.824-1.137-2.551-1.647c-2.471-0.744-4.943-1.883-4.943-4.98
	c0-3.923,2.904-6.395,7.532-6.395c1.883,0,3.727,0.354,5.451,1.138l-2,4.08c-1.138-0.588-2.234-0.902-3.256-0.902
	c-1.098,0-1.843,0.548-1.843,1.294c0,2.158,7.609,0.589,7.609,6.747C158.38,128.372,155.242,131,150.339,131"/>
<path d="M160.734,112.563h5.962v17.769h-5.962V112.563z M163.715,109.229c-1.961,0-3.53-1.569-3.53-3.531
	c0-1.961,1.569-3.53,3.53-3.53c1.962,0,3.53,1.569,3.53,3.53C167.245,107.66,165.677,109.229,163.715,109.229"/>
<path d="M181.798,130.333v-8.983c0-2.354-0.236-4.197-2.746-4.197c-2.001,0-3.139,1.334-3.139,3.648v9.532h-5.963v-17.77h5.963
	v2.236c1.255-1.727,2.942-2.668,5.413-2.668c4.275,0,6.434,2.747,6.434,6.903v11.298H181.798z"/>
<polygon points="202.978,130.333 196.427,123.075 196.427,130.333 190.464,130.333 190.464,100.403 196.427,100.403 
	196.427,118.958 202.663,112.563 210.862,112.563 202.389,120.761 211.372,130.333 "/>
<path d="M212.941,112.563h5.962v17.769h-5.962V112.563z M215.922,109.229c-1.962,0-3.53-1.569-3.53-3.531
	c0-1.961,1.568-3.53,3.53-3.53c1.961,0,3.53,1.569,3.53,3.53C219.452,107.66,217.883,109.229,215.922,109.229"/>
<path d="M212.823,84.282c0-2.274-0.078-4.511-2.589-4.511c-2.551,0-2.746,2.236-2.746,4.511v8.787h-5.922v-8.787
	c0-2.274-0.078-4.511-2.59-4.511c-2.55,0-2.745,2.236-2.745,4.511v8.787h-5.962V75.3h5.962v2.234
	c1.333-1.921,3.256-2.666,5.452-2.666c2.629,0,4.707,1.06,5.727,3.412c1.334-2.234,3.256-3.372,5.727-3.372
	c2,0,3.728,0.979,4.707,2.471c0.627,0.98,0.941,2.236,0.941,4.12v11.57h-5.962V84.282z"/>
</svg>
