<?xml version="1.0" encoding="utf-8"?>
<!-- Generator: Adobe Illustrator 16.0.0, SVG Export Plug-In . SVG Version: 6.00 Build 0)  -->
<!DOCTYPE svg PUBLIC "-//W3C//DTD SVG 1.1//EN" "http://www.w3.org/Graphics/SVG/1.1/DTD/svg11.dtd">
<svg version="1.1" id="Layer_1" xmlns="http://www.w3.org/2000/svg" xmlns:xlink="http://www.w3.org/1999/xlink" x="0px" y="0px"
	 width="130px" height="130px" viewBox="0 0 130 130" enable-background="new 0 0 130 130" xml:space="preserve">
<circle cx="65.297" cy="64.606" r="64"/>
<g>
	<path fill="#FFFFFF" d="M46.989,53.008h-2.324v6.188h-4.592V40.52h6.496c4.088,0,7,1.652,7,6.188
		C53.569,50.852,50.881,53.008,46.989,53.008z M46.233,44.44h-1.568v4.648h1.54c1.764,0,2.576-0.728,2.576-2.296
		C48.781,45.196,47.941,44.44,46.233,44.44z"/>
	<path fill="#FFFFFF" d="M55.529,59.196V37.832h4.256v21.364H55.529z"/>
	<path fill="#FFFFFF" d="M71.517,59.196v-1.4c-0.784,1.176-2.128,1.82-3.696,1.82c-3.444,0-6.104-2.94-6.104-6.804
		c0-3.78,2.632-6.72,6.048-6.72c1.484,0,2.771,0.504,3.752,1.652v-1.232h4.256v12.684H71.517z M68.913,49.956
		c-1.541,0-2.772,1.288-2.772,2.912c0,1.596,1.231,2.884,2.772,2.884c1.512,0,2.744-1.288,2.744-2.884
		C71.657,51.272,70.425,49.956,68.913,49.956z"/>
	<path fill="#FFFFFF" d="M83.192,65.859h-4.788l4.256-8.399l-5.823-10.948h4.955l3.221,6.496l3.135-6.496h4.873L83.192,65.859z"/>
	<path fill="#FFFFFF" d="M38.351,93.888c-3.64,0-6.524-1.987-6.832-4.844h4.788c0.308,0.84,0.952,1.26,2.044,1.26
		c1.736,0,2.744-1.147,2.744-3.052v-1.484c-1.26,1.26-2.24,1.708-3.78,1.708c-3.5,0-5.936-2.659-5.936-6.44
		c0-3.947,2.632-6.887,6.132-6.887c1.484,0,2.632,0.447,3.584,1.68v-1.316h4.256V87.14C45.351,91.367,42.831,93.888,38.351,93.888z
		 M38.575,77.928c-1.54,0-2.772,1.288-2.772,2.885c0,1.596,1.232,2.883,2.772,2.883c1.512,0,2.744-1.287,2.744-2.883
		C41.319,79.216,40.086,77.928,38.575,77.928z"/>
	<path fill="#FFFFFF" d="M57.083,87.195v-1.399c-0.784,1.176-2.128,1.819-3.696,1.819c-3.444,0-6.104-2.939-6.104-6.803
		c0-3.781,2.632-6.721,6.048-6.721c1.484,0,2.772,0.504,3.752,1.652v-1.232h4.256v12.684H57.083z M54.479,77.956
		c-1.54,0-2.772,1.288-2.772,2.911c0,1.597,1.232,2.885,2.772,2.885c1.512,0,2.744-1.288,2.744-2.885
		C57.223,79.271,55.99,77.956,54.479,77.956z"/>
	<path fill="#FFFFFF" d="M80.294,80.924c0-1.624-0.057-3.221-1.848-3.221c-1.82,0-1.961,1.597-1.961,3.221v6.271h-4.227v-6.271
		c0-1.624-0.057-3.221-1.849-3.221c-1.819,0-1.96,1.597-1.96,3.221v6.271h-4.256V74.512h4.256v1.596
		c0.951-1.371,2.324-1.904,3.893-1.904c1.875,0,3.359,0.757,4.088,2.437c0.951-1.596,2.323-2.407,4.088-2.407
		c1.428,0,2.66,0.699,3.359,1.764c0.448,0.699,0.672,1.596,0.672,2.939v8.26h-4.256V80.924z"/>
	<path fill="#FFFFFF" d="M90.794,81.652c0,1.903,0.867,2.828,2.604,2.828c1.008,0,1.54-0.309,2.072-1.177h4.115
		c-0.588,2.828-3.051,4.368-6.243,4.368c-4.144,0-6.86-2.66-6.86-6.748c0-4.229,2.576-6.889,6.776-6.889
		c4.032,0,6.495,2.772,6.495,7.141v0.477H90.794z M93.286,77.004c-1.289,0-2.156,0.756-2.381,2.044h4.873
		C95.497,77.787,94.573,77.004,93.286,77.004z"/>
</g>
</svg>
