<?xml version="1.0" encoding="utf-8"?>
<!-- Generator: Adobe Illustrator 16.0.0, SVG Export Plug-In . SVG Version: 6.00 Build 0)  -->
<!DOCTYPE svg PUBLIC "-//W3C//DTD SVG 1.1//EN" "http://www.w3.org/Graphics/SVG/1.1/DTD/svg11.dtd">
<svg version="1.1" id="Layer_1" xmlns="http://www.w3.org/2000/svg" xmlns:xlink="http://www.w3.org/1999/xlink" x="0px" y="0px"
	 width="128.125px" height="128.125px" viewBox="0 0 128.125 128.125" enable-background="new 0 0 128.125 128.125"
	 xml:space="preserve">
<g>
	<path d="M31.544,45.521c0-2.069-1.405-3.396-4.215-3.396H26v7h1.21C30.1,49.125,31.544,47.729,31.544,45.521z"/>
	<path d="M44.44,49.616c-0.358,0-0.694-0.021-1.008,0.088c-0.314,0.109-0.6,0.229-0.857,0.433c-0.258,0.205-0.478,0.585-0.661,0.874
		c-0.184,0.288-0.323,0.115-0.419,1.115h5.917C47.002,50.125,46.012,49.616,44.44,49.616z"/>
	<path d="M54.529,75.605c-1.012,0-1.859,0.385-2.54,1.152c-0.672,0.776-1.008,1.736-1.008,2.88c0,1.223,0.327,2.217,0.981,2.985
		c0.672,0.776,1.519,1.165,2.54,1.165c1.091,0,1.972-0.375,2.645-1.126c0.672-0.776,1.008-1.763,1.008-2.959
		c0-1.195-0.336-2.182-1.008-2.958C56.476,75.985,55.603,75.605,54.529,75.605z"/>
	<path d="M78.495,49.464c-1.013,0-1.859,0.385-2.54,1.152c-0.673,0.776-1.008,1.736-1.008,2.88c0,1.223,0.327,2.217,0.981,2.985
		c0.672,0.776,1.52,1.165,2.54,1.165c1.091,0,1.972-0.375,2.645-1.126c0.672-0.776,1.008-1.763,1.008-2.959
		c0-1.195-0.336-2.182-1.008-2.958C80.44,49.844,79.568,49.464,78.495,49.464z"/>
	<path d="M38.104,75.605c-1.117,0-1.999,0.414-2.645,1.242c-0.585,0.74-0.877,1.699-0.877,2.875c0,1.159,0.292,2.109,0.877,2.85
		c0.637,0.811,1.519,1.216,2.645,1.216s2.016-0.41,2.67-1.229c0.603-0.741,0.903-1.69,0.903-2.85c0-1.237-0.332-2.227-0.995-2.967
		C40.011,75.984,39.152,75.605,38.104,75.605z"/>
	<path d="M92.118,75.688c-0.358,0-0.694,0.014-1.008,0.123c-0.314,0.109-0.601,0.246-0.857,0.45
		c-0.258,0.205-0.479,0.523-0.662,0.812s-0.322,0.053-0.418,1.053h5.917C94.678,76.125,93.688,75.688,92.118,75.688z"/>
	<path d="M64.063,0C28.682,0,0,28.682,0,64.062c0,35.382,28.682,64.063,64.063,64.063s64.062-28.682,64.062-64.063
		C128.125,28.682,99.444,0,64.063,0z M89,47.125h3v1.174c0-0.567,0.908-0.956,1.327-1.165c0.428-0.218,0.878-0.327,1.462-0.327
		c0.777,0,1.56,0.253,2.407,0.759l-1.362,2.697c-0.561-0.401-0.999-0.603-1.531-0.603C92.697,49.66,92,50.874,92,53.3v6.825h-3
		V47.125z M26,52.125v8h-3v-20h3.766c2.67,0,4.599,0.289,5.786,1.292c1.31,1.117,1.964,2.486,1.964,4.318
		c0,1.432-0.41,2.609-1.23,3.639c-0.821,1.029-1.903,1.769-3.247,2.057l6.257,8.694h-3.731l-5.773-8H26z M45,85.752
		c0,0.602-0.267,1.132-0.306,1.59c-0.039,0.459-0.217,0.862-0.287,1.211c-0.209,0.961-0.681,1.785-1.292,2.475
		c-1.152,1.327-2.767,1.99-4.783,1.99c-1.702,0-3.118-0.256-4.217-1.178c-1.135-0.945-1.805-2.715-1.979-3.715h2.958
		c0.113,0,0.301,0.908,0.563,1.248c0.611,0.795,1.721,1.089,2.891,1.089c2.155,0,3.453-1.42,3.453-4.056v-1.78
		c-2,1.195-2.738,1.793-4.266,1.793c-1.736,0-3.269-0.628-4.377-1.885c-1.117-1.274-1.73-2.867-1.73-4.778
		c0-1.859,0.491-3.438,1.53-4.739c1.117-1.379,2.799-2.068,4.632-2.068c1.605,0,2.212,0.598,4.212,1.793v-1.616h3V85.752z
		 M46.378,60.068c-0.567,0.14-1.183,0.209-1.846,0.209c-1.903,0-3.43-0.61-4.582-1.832c-1.152-1.231-1.728-2.863-1.728-4.896
		c0-2.017,0.559-3.648,1.676-4.896c1.126-1.23,2.618-1.846,4.477-1.846c1.876,0,3.36,0.598,4.451,1.793
		c1.082,1.188,1.624,2.781,1.624,4.883l-0.013,0.642h-9.138c0.078,1,0.419,1.933,1.021,2.552c0.602,0.611,1.375,0.943,2.317,0.943
		c0.733,0,1.339-0.162,1.819-0.51c0.472-0.35,1.008-0.988,1.61-1.931l2.487,1.391c-0.384,0.654-0.79,1.217-1.217,1.684
		c-0.428,0.467-0.886,0.852-1.375,1.153C47.473,59.707,46.945,59.929,46.378,60.068z M61,86.125h-3v-1.407
		c-1,1.135-2.532,1.701-3.929,1.701c-1.763,0-3.227-0.637-4.379-1.911c-1.144-1.3-1.718-2.924-1.718-4.87
		c0-1.911,0.57-3.504,1.713-4.778s2.587-1.911,4.307-1.911c1.484,0,3.006,0.611,4.006,1.833v-1.656h3V86.125z M60.664,59.101
		c-0.881,0.785-1.946,1.177-3.194,1.177c-2.138,0-3.652-1.042-4.542-3.129l2.513-1.165c0.349,0.611,0.616,1,0.799,1.165
		c0.358,0.332,0.786,0.498,1.283,0.498c0.995,0,1.492-0.454,1.492-1.361c0-0.524-0.384-1.013-1.152-1.467
		c-0.297-0.148-0.594-0.292-0.891-0.432c-0.296-0.14-0.598-0.284-0.903-0.433c-0.855-0.419-1.458-0.838-1.807-1.257
		c-0.445-0.532-0.667-1.217-0.667-2.055c0-1.108,0.38-2.025,1.139-2.749c0.776-0.725,1.719-1.087,2.828-1.087
		c1.632,0,2.845,0.842,3.64,2.526l-2.435,1.296c-0.384-0.776-0.86-1.165-1.427-1.165c-0.271,0-0.502,0.09-0.694,0.269
		s-0.288,0.407-0.288,0.687c0,0.488,0.567,0.972,1.702,1.451c1.562,0.671,2.614,1.29,3.155,1.856s0.812,1.33,0.812,2.288
		C62.026,57.244,61.572,58.272,60.664,59.101z M64,50.125v-3h1v-5h3v5h2v3h-2v10h-3v-10H64z M82,86.125h-3V78.97
		c0-1.222,0.062-2.085-0.234-2.592c-0.306-0.515-0.702-0.772-1.4-0.772c-0.812,0-1.42,0.306-1.791,0.917
		C75.204,77.133,75,78.115,75,79.468v6.657h-3V79.01c0-2.27-0.563-3.404-1.872-3.404c-0.83,0-1.306,0.311-1.687,0.93
		C68.063,77.155,68,78.133,68,79.468v6.657h-3v-13h3v1.354c0-0.593,0.969-0.995,1.371-1.204c0.427-0.218,0.923-0.327,1.568-0.327
		c1.44,0,2.56,0.628,3.397,1.885c0.924-1.257,1.977-1.885,3.556-1.885c2.872,0,4.107,1.741,4.107,5.224V86.125z M85,60.125h-3
		v-1.549c-1,1.135-2.55,1.701-3.946,1.701c-1.763,0-3.235-0.637-4.388-1.911c-1.145-1.3-1.723-2.924-1.723-4.87
		c0-1.911,0.566-3.504,1.711-4.778c1.143-1.274,2.604-1.911,4.322-1.911c1.484,0,3.023,0.611,4.023,1.833v-1.515h3V60.125z
		 M97.014,84.396c-0.428,0.467-0.887,0.852-1.375,1.152c-0.489,0.301-1.018,0.521-1.584,0.661c-0.568,0.14-1.184,0.209-1.846,0.209
		c-1.903,0-3.431-0.61-4.582-1.832c-1.152-1.231-1.729-2.863-1.729-4.896c0-2.017,0.559-3.648,1.676-4.896
		c1.126-1.23,2.618-1.846,4.477-1.846c1.877,0,3.361,0.598,4.451,1.793c1.082,1.188,1.624,2.71,1.624,4.812l-0.013,0.571h-9.139
		c0.078,1,0.42,2.004,1.021,2.623c0.602,0.611,1.375,0.979,2.317,0.979c0.733,0,1.339-0.145,1.819-0.492
		c0.472-0.35,1.008-0.98,1.61-1.923l2.487,1.396C97.847,83.361,97.441,83.93,97.014,84.396z M105,50.125h-2v10h-3v-10h-2v-3h2v-5h3
		v5h2V50.125z"/>
</g>
</svg>
