<?xml version="1.0" encoding="utf-8"?>
<!-- Generator: Adobe Illustrator 16.0.0, SVG Export Plug-In . SVG Version: 6.00 Build 0)  -->
<!DOCTYPE svg PUBLIC "-//W3C//DTD SVG 1.1//EN" "http://www.w3.org/Graphics/SVG/1.1/DTD/svg11.dtd">
<svg version="1.1" id="Layer_1" xmlns="http://www.w3.org/2000/svg" xmlns:xlink="http://www.w3.org/1999/xlink" x="0px" y="0px"
	 width="100px" height="100px" viewBox="0 0 100 100" enable-background="new 0 0 100 100" xml:space="preserve">
<path d="M93.338,23.119c-3.192,1.412-6.616,2.368-10.216,2.799c3.672-2.199,6.493-5.686,7.822-9.837
	c-3.438,2.035-7.246,3.516-11.295,4.313c-3.244-3.46-7.865-5.616-12.979-5.616c-9.819,0-17.782,7.96-17.782,17.782
	c0,1.393,0.156,2.749,0.458,4.052c-14.777-0.741-27.881-7.822-36.651-18.579c-1.531,2.625-2.408,5.681-2.408,8.94
	c0,6.166,3.139,11.61,7.912,14.802c-2.914-0.092-5.659-0.891-8.055-2.223c-0.003,0.073-0.003,0.146-0.003,0.223
	c0,8.615,6.13,15.803,14.267,17.436c-1.495,0.408-3.065,0.625-4.687,0.625c-1.143,0-2.262-0.111-3.347-0.318
	c2.265,7.061,8.835,12.205,16.612,12.348c-6.088,4.768-13.752,7.611-22.085,7.611c-1.434,0-2.848-0.082-4.24-0.25
	c7.868,5.047,17.211,7.994,27.262,7.994c32.702,0,50.589-27.098,50.589-50.599c0-0.77-0.015-1.535-0.049-2.301
	C87.939,29.812,90.954,26.684,93.338,23.119"/>
</svg>
